<?xml version="1.0" encoding="UTF-8" standalone="no"?>
<!DOCTYPE svg PUBLIC "-//W3C//DTD SVG 1.1//EN" "http://www.w3.org/Graphics/SVG/1.1/DTD/svg11.dtd">
<svg width="100%" height="100%" viewBox="0 0 1083 320" version="1.1" xmlns="http://www.w3.org/2000/svg" xmlns:xlink="http://www.w3.org/1999/xlink" xml:space="preserve" xmlns:serif="http://www.serif.com/" style="fill-rule:evenodd;clip-rule:evenodd;stroke-linejoin:round;stroke-miterlimit:2;">
    <g transform="matrix(1,0,0,1,-23,-71.7882)">
        <path d="M855.132,141.884L852.587,141.884L852.587,129.787L842.328,117.265L844.293,115.651L855.132,128.878L855.132,141.884Z" style="fill:rgb(245,245,245);fill-rule:nonzero;"/>
        <path d="M853.257,123.791L848.648,128.146L825.699,130.374L856.77,101.003L853.257,123.791Z" style="fill:rgb(245,245,245);fill-rule:nonzero;"/>
        <rect x="824.577" y="172.903" width="58.566" height="182.701" style="fill:rgb(245,245,245);fill-rule:nonzero;"/>
        <path d="M912.236,133.32L905.179,148.568L901.623,156.219L897.204,165.863L893.648,173.514L889.177,183.158L818.543,183.158L814.07,173.514L810.515,165.863L806.097,156.219L802.541,148.568L795.482,133.32L912.236,133.32Z" style="fill:rgb(245,245,245);fill-rule:nonzero;"/>
        <path d="M840.626,116.357L836.661,112.748L837.876,111.413L841.841,115.021L840.626,116.357Z" style="fill:rgb(245,245,245);fill-rule:nonzero;"/>
        <path d="M834.961,111.739C834.961,110.554 835.922,109.593 837.106,109.593C838.292,109.593 839.252,110.554 839.252,111.739C839.252,112.924 838.292,113.885 837.106,113.885C835.922,113.885 834.961,112.924 834.961,111.739Z" style="fill:rgb(245,245,245);fill-rule:nonzero;"/>
        <path d="M372.551,265.33C372.551,225.383 404.482,193 443.87,193C483.259,193 515.19,225.383 515.19,265.33C515.19,305.276 483.259,337.659 443.87,337.659C404.482,337.659 372.551,305.276 372.551,265.33Z" style="fill:rgb(245,245,245);fill-rule:nonzero;"/>
        <path d="M418.16,231.807L417.386,243.373C417.277,245.001 418.399,246.454 420.001,246.762L440.022,250.599C442.014,250.979 443.861,249.453 443.861,247.426L443.861,236.036C443.861,234.507 442.788,233.187 441.29,232.874L422.042,228.86C420.122,228.46 418.291,229.85 418.16,231.807Z" style="fill:rgb(229,229,229);fill-rule:nonzero;"/>
        <path d="M415.129,230.909L413.821,243.886C413.7,245.092 412.717,246.029 411.507,246.095L398.904,246.782C397.757,246.845 396.72,246.106 396.404,245.002L395.504,241.85C395.269,241.027 395.478,240.142 396.056,239.512L405.237,229.496C405.652,229.043 406.222,228.762 406.835,228.707L412.466,228.212C414.003,228.076 415.284,229.374 415.129,230.909Z" style="fill:rgb(229,229,229);fill-rule:nonzero;"/>
        <path d="M471.866,231.807L472.64,243.373C472.749,245.001 471.626,246.454 470.024,246.762L450.003,250.599C448.011,250.979 446.165,249.453 446.165,247.426L446.165,236.036C446.165,234.507 447.238,233.187 448.736,232.874L467.983,228.86C469.904,228.46 471.735,229.85 471.866,231.807Z" style="fill:rgb(229,229,229);fill-rule:nonzero;"/>
        <path d="M474.896,230.909L476.205,243.886C476.326,245.092 477.308,246.029 478.519,246.095L491.122,246.782C492.269,246.845 493.306,246.106 493.622,245.002L494.522,241.85C494.757,241.027 494.548,240.142 493.97,239.512L484.789,229.496C484.374,229.043 483.803,228.762 483.191,228.707L477.56,228.212C476.022,228.076 474.742,229.374 474.896,230.909Z" style="fill:rgb(229,229,229);fill-rule:nonzero;"/>
        <path d="M317.966,256.597L376.187,267.063L376.187,258.546L318.126,255.237C317.268,255.188 317.119,256.443 317.966,256.597Z" style="fill:rgb(245,245,245);fill-rule:nonzero;"/>
        <path d="M173.771,261.149L388.498,277.614C389.479,277.689 390.314,278.359 390.6,279.302L400.179,310.916C400.703,312.645 399.192,314.306 397.422,313.947L150.973,264.148C149.372,263.825 148.562,262.024 149.382,260.611C149.843,259.817 150.717,259.358 151.631,259.43L173.771,261.149Z" style="fill:rgb(245,245,245);fill-rule:nonzero;"/>
        <path d="M196.814,316.267C196.814,292.845 215.801,273.858 239.223,273.858C262.644,273.858 281.631,292.845 281.631,316.267C281.631,339.688 262.644,358.675 239.223,358.675C215.801,358.675 196.814,339.688 196.814,316.267Z" style="fill:rgb(245,245,245);fill-rule:nonzero;"/>
        <path d="M211.507,316.267C211.507,300.959 223.916,288.55 239.223,288.55C254.53,288.55 266.938,300.959 266.938,316.267C266.938,331.573 254.53,343.982 239.223,343.982C223.916,343.982 211.507,331.573 211.507,316.267Z" style="fill:rgb(229,229,229);fill-rule:nonzero;"/>
        <path d="M563.662,256.597L505.44,267.063L505.44,258.546L563.501,255.237C564.36,255.188 564.508,256.443 563.662,256.597Z" style="fill:rgb(245,245,245);fill-rule:nonzero;"/>
        <path d="M707.857,261.149L493.13,277.614C492.148,277.689 491.313,278.359 491.028,279.302L481.449,310.916C480.925,312.645 482.436,314.306 484.206,313.947L730.654,264.148C732.256,263.825 733.065,262.024 732.245,260.611C731.785,259.817 730.911,259.358 729.997,259.43L707.857,261.149Z" style="fill:rgb(245,245,245);fill-rule:nonzero;"/>
        <path d="M684.813,316.267C684.813,292.845 665.826,273.858 642.405,273.858C618.983,273.858 599.997,292.845 599.997,316.267C599.997,339.688 618.983,358.675 642.405,358.675C665.826,358.675 684.813,339.688 684.813,316.267Z" style="fill:rgb(245,245,245);fill-rule:nonzero;"/>
        <path d="M670.121,316.267C670.121,300.959 657.712,288.55 642.405,288.55C627.098,288.55 614.689,300.959 614.689,316.267C614.689,331.573 627.098,343.982 642.405,343.982C657.712,343.982 670.121,331.573 670.121,316.267Z" style="fill:rgb(229,229,229);fill-rule:nonzero;"/>
        <g transform="matrix(1,0,0,1,170.387,-8.93219)">
            <path d="M244.665,107.624L251.752,110.127L333.642,111.742C333.642,111.742 358.622,90.832 364.008,87.707C369.394,84.582 376.764,79.751 378.182,80.891C378.506,81.152 379.013,81.432 379.603,81.709C382.312,82.983 383.373,86.274 381.97,88.918C380.125,92.395 377.398,96.756 374.213,99.43C368.26,104.425 355.906,115.458 355.906,115.458L379.316,132.502L387.537,137.584L382.434,140.143L348.984,132.502L338.496,132.502C338.496,132.502 332.542,136.776 327.156,135.908C327.439,135.891 316.857,147.041 302.777,150.316C303.344,151.199 308.164,155.617 308.164,155.617L306.18,158.239L290.871,154.621L284.352,155.617L284.635,152.028L259.972,150.124C259.972,150.124 260.823,148.225 265.926,147.019C271.028,145.813 285.655,145.557 285.655,145.557L281.328,132.489L285.679,129.063L295.566,136.009C297.164,137.131 299.284,137.167 300.918,136.1L309.967,130.19L312.982,125.969L246.649,112.896L242.681,108.751L244.665,107.624Z" style="fill:rgb(245,245,245);fill-rule:nonzero;"/>
        </g>
        <g transform="matrix(0.973923,0,0,1,0.656474,0)">
            <rect x="25.174" y="351.891" width="1109.01" height="38.485" style="fill:rgb(221,233,255);fill-rule:nonzero;"/>
        </g>
        <g transform="matrix(1,0,0,1,-496.292,-1.5295)">
            <rect x="542.913" y="94.445" width="201.702" height="22.773" style="fill:rgb(229,229,229);fill-rule:nonzero;"/>
        </g>
        <g transform="matrix(1,0,0,1,-496.292,-1.5295)">
            <rect x="542.913" y="94.445" width="22.774" height="22.773" style="fill:rgb(216,91,102);fill-rule:nonzero;"/>
        </g>
        <g transform="matrix(1,0,0,1,-496.292,-1.5295)">
            <rect x="721.842" y="94.445" width="22.773" height="22.773" style="fill:rgb(216,91,102);fill-rule:nonzero;"/>
        </g>
        <g transform="matrix(1,0,0,1,-496.292,-1.5295)">
            <path d="M571.682,105.832C571.682,102.382 574.479,99.586 577.928,99.586C581.378,99.586 584.174,102.382 584.174,105.832C584.174,109.281 581.378,112.077 577.928,112.077C574.479,112.077 571.682,109.281 571.682,105.832Z" style="fill:rgb(255,196,18);fill-rule:nonzero;"/>
        </g>
        <g transform="matrix(1,0,0,1,-496.292,-1.5295)">
            <path d="M587.496,105.832C587.496,102.382 590.292,99.586 593.742,99.586C597.191,99.586 599.988,102.382 599.988,105.832C599.988,109.281 597.191,112.077 593.742,112.077C590.292,112.077 587.496,109.281 587.496,105.832Z" style="fill:rgb(255,196,18);fill-rule:nonzero;"/>
        </g>
        <g transform="matrix(1,0,0,1,-496.292,-1.5295)">
            <path d="M701.811,105.832C701.811,102.382 704.607,99.586 708.057,99.586C711.507,99.586 714.303,102.382 714.303,105.832C714.303,109.281 711.507,112.077 708.057,112.077C704.607,112.077 701.811,109.281 701.811,105.832Z" style="fill:rgb(255,196,18);fill-rule:nonzero;"/>
        </g>
        <g transform="matrix(1,0,0,1,-496.292,-1.5295)">
            <path d="M547.731,107.364L546.225,105.816L554.315,97.959L562.099,105.83L560.562,107.35L554.285,100.999L547.731,107.364Z" style="fill:rgb(250,248,252);fill-rule:nonzero;"/>
        </g>
        <g transform="matrix(1,0,0,1,-496.292,-1.5295)">
            <rect x="553.074" y="99.479" width="2.159" height="14.225" style="fill:rgb(250,248,252);fill-rule:nonzero;"/>
        </g>
        <g transform="matrix(1,0,0,1,-496.292,-1.5295)">
            <path d="M732.675,113.768L731.154,112.234L737.506,105.953L731.141,99.401L732.688,97.895L740.547,105.986L732.675,113.768Z" style="fill:rgb(250,248,252);fill-rule:nonzero;"/>
        </g>
        <g transform="matrix(1,0,0,1,-496.292,-1.5295)">
            <rect x="724.8" y="104.742" width="14.226" height="2.162" style="fill:rgb(250,248,252);fill-rule:nonzero;"/>
        </g>
        <rect x="23" y="357.422" width="1082.26" height="25.54" style="fill:rgb(245,245,245);fill-rule:nonzero;"/>
        <rect x="23" y="382.962" width="1082.26" height="8.353" style="fill:rgb(180,191,212);fill-rule:nonzero;"/>
        <rect x="23.398" y="353.886" width="1081.86" height="9.577" style="fill:rgb(180,191,212);fill-rule:nonzero;"/>
        <path d="M656.713,363.114L676.467,363.114L709.889,354.234L690.335,354.234L656.713,363.114Z" style="fill:rgb(134,145,166);fill-rule:nonzero;"/>
        <path d="M692.181,363.114L711.934,363.114L745.355,354.234L725.802,354.234L692.181,363.114Z" style="fill:rgb(134,145,166);fill-rule:nonzero;"/>
        <path d="M727.348,363.114L747.102,363.114L780.523,354.234L760.969,354.234L727.348,363.114Z" style="fill:rgb(134,145,166);fill-rule:nonzero;"/>
        <path d="M762.814,363.114L782.568,363.114L815.99,354.234L796.436,354.234L762.814,363.114Z" style="fill:rgb(134,145,166);fill-rule:nonzero;"/>
        <path d="M514.909,363.114L534.663,363.114L568.084,354.234L548.53,354.234L514.909,363.114Z" style="fill:rgb(134,145,166);fill-rule:nonzero;"/>
        <path d="M550.376,363.114L570.13,363.114L603.552,354.234L583.997,354.234L550.376,363.114Z" style="fill:rgb(134,145,166);fill-rule:nonzero;"/>
        <path d="M585.543,363.114L605.297,363.114L638.719,354.234L619.165,354.234L585.543,363.114Z" style="fill:rgb(134,145,166);fill-rule:nonzero;"/>
        <path d="M621.011,363.114L640.765,363.114L674.186,354.234L654.632,354.234L621.011,363.114Z" style="fill:rgb(134,145,166);fill-rule:nonzero;"/>
        <path d="M372.244,363.114L391.997,363.114L425.419,354.234L405.865,354.234L372.244,363.114Z" style="fill:rgb(134,145,166);fill-rule:nonzero;"/>
        <path d="M407.71,363.114L427.464,363.114L460.886,354.234L441.332,354.234L407.71,363.114Z" style="fill:rgb(134,145,166);fill-rule:nonzero;"/>
        <path d="M442.878,363.114L462.632,363.114L496.053,354.234L476.499,354.234L442.878,363.114Z" style="fill:rgb(134,145,166);fill-rule:nonzero;"/>
        <path d="M478.345,363.114L498.099,363.114L531.52,354.234L511.966,354.234L478.345,363.114Z" style="fill:rgb(134,145,166);fill-rule:nonzero;"/>
        <path d="M230.177,363.114L249.93,363.114L283.352,354.234L263.798,354.234L230.177,363.114Z" style="fill:rgb(134,145,166);fill-rule:nonzero;"/>
        <path d="M265.644,363.114L285.397,363.114L318.819,354.234L299.265,354.234L265.644,363.114Z" style="fill:rgb(134,145,166);fill-rule:nonzero;"/>
        <path d="M300.811,363.114L320.565,363.114L353.986,354.234L334.432,354.234L300.811,363.114Z" style="fill:rgb(134,145,166);fill-rule:nonzero;"/>
        <path d="M336.278,363.114L356.032,363.114L389.453,354.234L369.899,354.234L336.278,363.114Z" style="fill:rgb(134,145,166);fill-rule:nonzero;"/>
        <path d="M87.511,363.114L107.265,363.114L140.687,354.234L121.132,354.234L87.511,363.114Z" style="fill:rgb(134,145,166);fill-rule:nonzero;"/>
        <path d="M122.978,363.114L142.731,363.114L176.153,354.234L156.599,354.234L122.978,363.114Z" style="fill:rgb(134,145,166);fill-rule:nonzero;"/>
        <path d="M158.146,363.114L177.899,363.114L211.321,354.234L191.767,354.234L158.146,363.114Z" style="fill:rgb(134,145,166);fill-rule:nonzero;"/>
        <path d="M193.612,363.114L213.366,363.114L246.788,354.234L227.233,354.234L193.612,363.114Z" style="fill:rgb(134,145,166);fill-rule:nonzero;"/>
        <path d="M51.564,363.114L71.317,363.114L104.74,354.234L85.185,354.234L51.564,363.114Z" style="fill:rgb(134,145,166);fill-rule:nonzero;"/>
        <path d="M799.029,363.114L818.783,363.114L852.205,354.234L832.65,354.234L799.029,363.114Z" style="fill:rgb(134,145,166);fill-rule:nonzero;"/>
        <path d="M834.496,363.114L854.25,363.114L887.672,354.234L868.118,354.234L834.496,363.114Z" style="fill:rgb(134,145,166);fill-rule:nonzero;"/>
        <path d="M869.664,363.114L889.418,363.114L922.84,354.234L903.285,354.234L869.664,363.114Z" style="fill:rgb(134,145,166);fill-rule:nonzero;"/>
        <path d="M905.131,363.114L924.885,363.114L958.307,354.234L938.752,354.234L905.131,363.114Z" style="fill:rgb(134,145,166);fill-rule:nonzero;"/>
        <path d="M942.095,363.114L961.848,363.114L995.27,354.234L975.716,354.234L942.095,363.114Z" style="fill:rgb(134,145,166);fill-rule:nonzero;"/>
        <path d="M977.562,363.114L997.314,363.114L1030.74,354.234L1011.18,354.234L977.562,363.114Z" style="fill:rgb(134,145,166);fill-rule:nonzero;"/>
        <path d="M1012.73,363.114L1032.48,363.114L1065.9,354.234L1046.35,354.234L1012.73,363.114Z" style="fill:rgb(134,145,166);fill-rule:nonzero;"/>
        <path d="M1048.2,363.114L1067.95,363.114L1101.37,354.234L1081.82,354.234L1048.2,363.114Z" style="fill:rgb(134,145,166);fill-rule:nonzero;"/>
        <path d="M1076.06,355.991L1008.19,355.991C1003.43,355.991 999.565,352.131 999.565,347.37L999.565,323.88C999.565,319.118 1003.43,315.259 1008.19,315.259L1076.06,315.259C1080.82,315.259 1084.68,319.118 1084.68,323.88L1084.68,347.37C1084.68,352.131 1080.82,355.991 1076.06,355.991Z" style="fill:rgb(216,91,102);fill-rule:nonzero;"/>
        <rect x="998.359" y="332.897" width="87.531" height="1.485" style="fill:rgb(40,42,65);fill-rule:nonzero;"/>
        <rect x="998.359" y="335.975" width="87.531" height="1.483" style="fill:rgb(40,42,65);fill-rule:nonzero;"/>
        <path d="M1085.02,329.223L1083.23,329.223L1083.23,325.643L1085.02,325.643C1086.01,325.643 1086.81,326.444 1086.81,327.433C1086.81,328.421 1086.01,329.223 1085.02,329.223Z" style="fill:rgb(40,42,65);fill-rule:nonzero;"/>
        <path d="M1085.02,345.452L1083.23,345.452L1083.23,341.872L1085.02,341.872C1086.01,341.872 1086.81,342.674 1086.81,343.663C1086.81,344.651 1086.01,345.452 1085.02,345.452Z" style="fill:rgb(40,42,65);fill-rule:nonzero;"/>
        <rect x="1019.28" y="331.359" width="4.58" height="8.221" style="fill:rgb(40,42,65);fill-rule:nonzero;"/>
        <rect x="1059.5" y="331.359" width="4.58" height="8.221" style="fill:rgb(40,42,65);fill-rule:nonzero;"/>
        <path d="M1060.32,315.179L996.387,315.179C992.258,315.179 989.143,311.428 989.902,307.369L995.349,278.229C996.367,272.784 1001.12,268.837 1006.66,268.837L1050.04,268.837C1055.58,268.837 1060.34,272.784 1061.36,278.229L1066.8,307.369C1067.56,311.428 1064.45,315.179 1060.32,315.179Z" style="fill:rgb(255,196,18);fill-rule:nonzero;"/>
        <path d="M1060.32,315.177L996.387,315.177C992.257,315.177 989.144,311.429 989.898,307.371L990.4,304.665C991.634,306.065 993.43,306.951 995.477,306.951L1061.23,306.951C1063.27,306.951 1065.07,306.065 1066.3,304.665L1066.81,307.371C1067.56,311.429 1064.45,315.177 1060.32,315.177Z" style="fill:rgb(214,156,66);fill-rule:nonzero;"/>
        <path d="M1013.33,318.211L1013.39,318.211C1014.39,318.211 1015.19,317.405 1015.19,316.41L1015.19,274.289L1011.53,274.289L1011.53,316.41C1011.53,317.405 1012.33,318.211 1013.33,318.211Z" style="fill:rgb(106,147,203);fill-rule:nonzero;"/>
        <path d="M1011.85,287.378C1011.68,287.378 1011.54,287.517 1011.54,287.688L1011.54,291.68C1011.54,291.852 1011.68,291.991 1011.85,291.991L1014.87,291.991C1015.04,291.991 1015.18,291.852 1015.18,291.68L1015.18,287.688C1015.18,287.517 1015.04,287.378 1014.87,287.378L1011.85,287.378ZM1014.87,292.84L1011.85,292.84C1011.21,292.84 1010.69,292.319 1010.69,291.68L1010.69,287.688C1010.69,287.049 1011.21,286.528 1011.85,286.528L1014.87,286.528C1015.51,286.528 1016.03,287.049 1016.03,287.688L1016.03,291.68C1016.03,292.319 1015.51,292.84 1014.87,292.84Z" style="fill:white;fill-rule:nonzero;"/>
        <rect x="1011.53" y="291.499" width="3.66" height="3.966" style="fill:rgb(106,147,203);fill-rule:nonzero;"/>
        <rect x="1010.93" y="292.846" width="4.9" height="1.383" style="fill:rgb(63,122,203);fill-rule:nonzero;"/>
        <path d="M1043.06,318.211L1043.12,318.211C1044.12,318.211 1044.92,317.405 1044.92,316.41L1044.92,274.289L1041.25,274.289L1041.25,316.41C1041.25,317.405 1042.06,318.211 1043.06,318.211Z" style="fill:rgb(106,147,203);fill-rule:nonzero;"/>
        <path d="M1041.58,287.378C1041.41,287.378 1041.27,287.517 1041.27,287.688L1041.27,291.68C1041.27,291.852 1041.41,291.991 1041.58,291.991L1044.6,291.991C1044.77,291.991 1044.91,291.852 1044.91,291.68L1044.91,287.688C1044.91,287.517 1044.77,287.378 1044.6,287.378L1041.58,287.378ZM1044.6,292.84L1041.58,292.84C1040.94,292.84 1040.42,292.319 1040.42,291.68L1040.42,287.688C1040.42,287.049 1040.94,286.528 1041.58,286.528L1044.6,286.528C1045.24,286.528 1045.76,287.049 1045.76,287.688L1045.76,291.68C1045.76,292.319 1045.24,292.84 1044.6,292.84Z" style="fill:white;fill-rule:nonzero;"/>
        <rect x="1040.66" y="292.846" width="4.9" height="1.383" style="fill:rgb(63,122,203);fill-rule:nonzero;"/>
        <path d="M1028.35,251.318C1021.07,251.318 1014.84,258.729 1012.23,269.24L1014.87,269.24C1015.04,269.24 1015.18,269.288 1015.3,269.384C1017.58,260.488 1022.57,254.312 1028.35,254.312C1034.11,254.312 1039.09,260.44 1041.38,269.276C1041.44,269.252 1041.52,269.24 1041.59,269.24L1044.48,269.24C1041.87,258.729 1035.63,251.318 1028.35,251.318Z" style="fill:rgb(106,147,203);fill-rule:nonzero;"/>
        <path d="M1041.59,269.664C1041.37,269.719 1041.29,269.834 1041.29,269.971L1041.29,273.969C1041.29,274.141 1041.42,274.275 1041.59,274.275L1044.61,274.275C1044.79,274.275 1044.93,274.139 1044.93,273.969L1044.93,269.971C1044.93,269.801 1044.79,269.664 1044.61,269.664L1041.59,269.664ZM1044.61,275.124L1041.59,275.124C1040.96,275.124 1040.44,274.606 1040.44,273.969L1040.44,269.971C1040.44,269.449 1040.77,269.006 1041.26,268.868C1041.33,268.84 1041.46,268.815 1041.59,268.815L1044.61,268.815C1045.25,268.815 1045.78,269.333 1045.78,269.971L1045.78,273.969C1045.78,274.606 1045.25,275.124 1044.61,275.124Z" style="fill:white;fill-rule:nonzero;"/>
        <path d="M1011.85,269.664C1011.68,269.664 1011.54,269.801 1011.54,269.971L1011.54,273.969C1011.54,274.034 1011.56,274.104 1011.61,274.153C1011.68,274.238 1011.76,274.275 1011.85,274.275L1014.87,274.275C1015.04,274.275 1015.18,274.141 1015.18,273.969L1015.18,269.971C1015.18,269.876 1015.13,269.783 1015.05,269.725C1015.01,269.69 1014.96,269.664 1014.87,269.664L1011.85,269.664ZM1014.87,275.124L1011.85,275.124C1011.5,275.124 1011.17,274.969 1010.96,274.698C1010.79,274.515 1010.69,274.241 1010.69,273.969L1010.69,269.971C1010.69,269.333 1011.21,268.815 1011.85,268.815L1014.87,268.815C1015.14,268.815 1015.37,268.895 1015.57,269.053C1015.85,269.26 1016.03,269.606 1016.03,269.971L1016.03,273.969C1016.03,274.606 1015.51,275.124 1014.87,275.124Z" style="fill:white;fill-rule:nonzero;"/>
        <rect x="1052.01" y="276.459" width="2.09" height="26.602" style="fill:rgb(214,156,66);fill-rule:nonzero;"/>
        <path d="M867.238,337.63L864.279,337.046C862.874,336.769 861.959,335.403 862.237,333.998L862.559,332.373C862.836,330.968 864.2,330.053 865.605,330.331L868.564,330.915L867.238,337.63Z" style="fill:rgb(40,42,65);fill-rule:nonzero;"/>
        <rect x="928.759" y="349.514" width="50.04" height="2.544" style="fill:rgb(176,188,200);fill-rule:nonzero;"/>
        <path d="M872.357,352.192C872.357,348.849 869.646,346.138 866.303,346.138C862.959,346.138 860.248,348.849 860.248,352.192C860.248,355.536 862.959,358.246 866.303,358.246C869.646,358.246 872.357,355.536 872.357,352.192Z" style="fill:rgb(40,42,65);fill-rule:nonzero;"/>
        <path d="M869.712,352.192C869.712,350.31 868.186,348.783 866.303,348.783C864.42,348.783 862.894,350.31 862.894,352.192C862.894,354.075 864.42,355.602 866.303,355.602C868.186,355.602 869.712,354.075 869.712,352.192Z" style="fill:white;fill-rule:nonzero;"/>
        <path d="M906.304,306.052L906.304,288.576L905.4,289.925L898.747,299.846L898.747,306.13L906.304,306.052Z" style="fill:rgb(244,191,110);fill-rule:nonzero;"/>
        <path d="M918.707,306.052L918.707,288.576L919.611,289.925L926.264,299.846L926.264,306.13L918.707,306.052Z" style="fill:rgb(244,191,110);fill-rule:nonzero;"/>
        <path d="M906.304,293.367L906.304,288.585C906.304,288.585 908.613,284.191 911.972,283.98C916.204,283.715 918.871,288.756 918.738,288.623L918.706,293.367C918.706,293.367 915.604,291.016 912.248,291.089C908.669,291.167 906.304,293.367 906.304,293.367Z" style="fill:rgb(227,178,102);fill-rule:nonzero;"/>
        <path d="M951.651,357.879L873.356,357.879C867.477,357.879 863.005,352.596 863.977,346.796L869.568,313.419C870.337,308.837 874.303,305.479 878.949,305.479L946.059,305.479C950.705,305.479 954.671,308.837 955.439,313.419L961.031,346.796C962.003,352.596 957.531,357.879 951.651,357.879Z" style="fill:rgb(106,147,203);fill-rule:nonzero;"/>
        <path d="M946.914,354.709L878.094,354.709C872.925,354.709 868.994,350.064 869.849,344.967L874.764,315.629C875.439,311.601 878.926,308.65 883.01,308.65L941.998,308.65C946.082,308.65 949.568,311.601 950.243,315.629L955.159,344.967C956.014,350.064 952.083,354.709 946.914,354.709Z" style="fill:rgb(106,147,203);fill-rule:nonzero;"/>
        <path d="M946.913,354.706L878.098,354.706C872.926,354.706 868.999,350.062 869.85,344.961L874.77,315.63C875.045,313.978 875.8,312.493 876.877,311.332C876.303,312.792 876.087,314.48 876.326,316.217L880.457,345.548C881.02,349.582 883.952,352.527 887.376,352.527L936.964,352.527C940.388,352.527 943.321,349.582 943.884,345.548L948.015,316.217C948.313,314.05 947.906,311.979 946.973,310.303C948.661,311.535 949.87,313.415 950.241,315.63L955.161,344.961C956.012,350.062 952.085,354.706 946.913,354.706Z" style="fill:rgb(150,173,203);fill-rule:nonzero;"/>
        <path d="M875.633,314.606C875.515,314.972 875.424,315.346 875.36,315.729L870.439,345.061C870.063,347.319 870.696,349.616 872.176,351.363C873.652,353.106 875.813,354.107 878.098,354.107L946.913,354.107C949.198,354.107 951.358,353.106 952.835,351.363C954.314,349.616 954.947,347.319 954.571,345.06L949.651,315.729C949.471,314.656 949.078,313.654 948.505,312.772C948.734,313.91 948.771,315.106 948.607,316.299L944.477,345.631C943.871,349.975 940.712,353.126 936.964,353.126L887.376,353.126C883.629,353.126 880.47,349.975 879.864,345.631L875.733,316.3C875.655,315.733 875.623,315.168 875.633,314.606ZM946.913,355.305L878.098,355.305C875.459,355.305 872.968,354.149 871.262,352.136C869.555,350.12 868.824,347.47 869.259,344.863L874.18,315.53C874.468,313.799 875.249,312.205 876.438,310.925C876.635,310.713 876.953,310.673 877.196,310.826C877.439,310.979 877.54,311.284 877.434,311.552C876.878,312.963 876.7,314.547 876.919,316.135L881.05,345.465C881.572,349.211 884.232,351.929 887.376,351.929L936.964,351.929C940.107,351.929 942.769,349.211 943.291,345.465L947.422,316.134C947.692,314.172 947.347,312.204 946.45,310.593C946.313,310.348 946.366,310.04 946.576,309.854C946.786,309.668 947.099,309.654 947.325,309.819C949.197,311.188 950.442,313.216 950.832,315.53L955.752,344.861C956.187,347.47 955.456,350.12 953.749,352.136C952.043,354.149 949.552,355.305 946.913,355.305Z" style="fill:rgb(73,128,203);fill-rule:nonzero;"/>
        <path d="M883.009,309.249C879.202,309.249 875.983,311.974 875.354,315.729L870.438,345.066C870.061,347.321 870.692,349.616 872.17,351.363C873.646,353.108 875.807,354.109 878.094,354.109L946.914,354.109C949.201,354.109 951.36,353.107 952.838,351.362C954.315,349.616 954.946,347.321 954.568,345.066L949.653,315.729C949.024,311.974 945.805,309.249 941.998,309.249L883.009,309.249ZM946.914,355.307L878.094,355.307C875.454,355.307 872.962,354.151 871.256,352.136C869.55,350.122 868.822,347.473 869.258,344.867L874.174,315.529C874.9,311.196 878.615,308.052 883.009,308.052L941.998,308.052C946.393,308.052 950.108,311.196 950.834,315.529L955.749,344.867C956.186,347.472 955.458,350.12 953.752,352.135C952.047,354.15 949.554,355.307 946.914,355.307Z" style="fill:rgb(73,128,203);fill-rule:nonzero;"/>
        <path d="M951.653,357.879L873.357,357.879C867.479,357.879 863.002,352.6 863.972,346.793L864.486,343.692C865.875,347.2 869.274,349.738 873.357,349.738L951.653,349.738C955.736,349.738 959.136,347.2 960.513,343.692L961.027,346.793C961.997,352.6 957.532,357.879 951.653,357.879Z" style="fill:rgb(73,128,203);fill-rule:nonzero;"/>
        <path d="M984.499,352.99L978.28,352.99C977.767,352.99 977.35,352.573 977.35,352.059L977.35,349.715C977.35,349.2 977.767,348.783 978.28,348.783L984.499,348.783C985.014,348.783 985.431,349.2 985.431,349.715L985.431,352.059C985.431,352.573 985.014,352.99 984.499,352.99Z" style="fill:rgb(40,42,65);fill-rule:nonzero;"/>
        <rect x="899.761" y="324.824" width="28.857" height="2.095" style="fill:rgb(63,122,203);fill-rule:nonzero;"/>
        <path d="M901.094,328.783L900.097,328.783C899.857,328.783 899.663,328.59 899.663,328.351L899.663,327.353C899.663,327.113 899.857,326.919 900.097,326.919L901.094,326.919C901.333,326.919 901.527,327.113 901.527,327.353L901.527,328.351C901.527,328.59 901.333,328.783 901.094,328.783Z" style="fill:white;fill-rule:nonzero;"/>
        <path d="M901.094,333.6L900.097,333.6C899.857,333.6 899.663,333.405 899.663,333.166L899.663,329.388C899.663,329.148 899.857,328.954 900.097,328.954L901.094,328.954C901.333,328.954 901.527,329.148 901.527,329.388L901.527,333.166C901.527,333.405 901.333,333.6 901.094,333.6Z" style="fill:white;fill-rule:nonzero;"/>
        <path d="M822.508,251.484L801.854,251.484L801.854,260.978L805.188,260.978L805.188,256L819.174,256L819.174,260.978L822.508,260.978L822.508,251.484Z" style="fill:rgb(35,37,60);fill-rule:nonzero;"/>
        <path d="M832.278,350.499C832.622,350.499 832.947,350.584 833.263,350.704C833.434,350.302 833.558,349.857 833.558,349.364L833.591,347.278L837.669,347.278L837.669,350.855C837.669,351.693 837.492,352.455 837.184,353.109L837.184,353.125C837.117,353.246 837.051,353.353 836.985,353.46L835.967,355.211C835.976,355.354 835.998,355.491 835.998,355.637C835.998,358.476 834.333,360.775 832.278,360.775C830.225,360.775 828.559,358.476 828.559,355.637C828.559,352.8 830.225,350.499 832.278,350.499Z" style="fill:rgb(40,42,65);fill-rule:nonzero;"/>
        <path d="M799.128,350.499C799.472,350.499 799.797,350.584 800.112,350.704C800.283,350.302 800.408,349.857 800.408,349.364L800.44,347.278L804.519,347.278L804.519,350.855C804.519,351.693 804.342,352.455 804.033,353.109L804.033,353.125C803.968,353.246 803.901,353.353 803.835,353.46L802.816,355.211C802.825,355.354 802.848,355.491 802.848,355.637C802.848,358.476 801.183,360.775 799.128,360.775C797.074,360.775 795.409,358.476 795.409,355.637C795.409,352.8 797.074,350.499 799.128,350.499Z" style="fill:rgb(40,42,65);fill-rule:nonzero;"/>
        <path d="M778.357,269.354L778.357,341.273C778.357,345.796 780.72,349.465 783.621,349.465L814.263,349.465C816.811,349.465 818.948,346.633 819.419,342.873C819.487,342.355 819.526,341.822 819.526,341.273L819.526,269.354C819.526,264.832 817.164,261.163 814.263,261.163L783.621,261.163C780.72,261.163 778.357,264.832 778.357,269.354Z" style="fill:rgb(106,147,203);fill-rule:nonzero;"/>
        <path d="M814.571,355.637C814.571,352.8 812.905,350.499 810.852,350.499C808.797,350.499 807.132,352.8 807.132,355.637C807.132,358.476 808.797,360.775 810.852,360.775C812.905,360.775 814.571,358.476 814.571,355.637Z" style="fill:rgb(40,42,65);fill-rule:nonzero;"/>
        <path d="M795.409,269.354L795.409,341.273C795.409,345.796 798.168,349.465 801.557,349.465L837.343,349.465C840.319,349.465 842.815,346.633 843.364,342.873C843.444,342.355 843.49,341.822 843.49,341.273L843.49,269.354C843.49,264.832 840.731,261.163 837.343,261.163L801.557,261.163C798.168,261.163 795.409,264.832 795.409,269.354Z" style="fill:rgb(106,147,203);fill-rule:nonzero;"/>
        <path d="M808.119,355.683C808.119,357.737 809.332,359.412 810.831,359.412C811.569,359.412 812.241,359.001 812.726,358.331L815.559,353.46C815.625,353.353 815.69,353.246 815.757,353.125L815.757,353.109C816.065,352.455 816.242,351.693 816.242,350.855L816.242,347.278L812.164,347.278L812.131,349.364C812.131,350.734 811.371,351.922 810.4,351.998C809.111,352.271 808.119,353.811 808.119,355.683Z" style="fill:rgb(40,42,65);fill-rule:nonzero;"/>
        <path d="M783.621,261.582C780.95,261.582 778.776,265.067 778.776,269.354L778.776,341.275C778.776,345.563 780.95,349.048 783.621,349.048L814.262,349.048C816.559,349.048 818.552,346.43 819.003,342.821C819.074,342.29 819.106,341.784 819.106,341.275L819.106,269.354C819.106,265.067 816.932,261.582 814.262,261.582L783.621,261.582ZM814.262,349.886L783.621,349.886C780.487,349.886 777.938,346.023 777.938,341.275L777.938,269.354C777.938,264.606 780.487,260.744 783.621,260.744L814.262,260.744C817.396,260.744 819.943,264.606 819.943,269.354L819.943,341.275C819.943,341.819 819.908,342.36 819.834,342.928C819.328,346.957 816.986,349.886 814.262,349.886Z" style="fill:rgb(128,178,246);fill-rule:nonzero;"/>
        <path d="M809.949,348.339L809.949,349.465L814.263,349.465C816.811,349.465 818.948,346.633 819.419,342.873L813.469,342.873C811.527,342.873 809.949,345.324 809.949,348.339Z" style="fill:rgb(40,42,65);fill-rule:nonzero;"/>
        <path d="M787.826,348.339L787.826,349.465L783.513,349.465C780.965,349.465 778.827,346.633 778.357,342.873L784.308,342.873C786.247,342.873 787.826,345.324 787.826,348.339Z" style="fill:rgb(40,42,65);fill-rule:nonzero;"/>
        <rect x="819.526" y="275.389" width="25.051" height="6.612" style="fill:rgb(40,42,65);fill-rule:nonzero;"/>
        <rect x="819.526" y="330.435" width="25.414" height="6.613" style="fill:rgb(40,42,65);fill-rule:nonzero;"/>
        <path d="M813.736,355.637C813.736,353.436 812.445,351.651 810.852,351.651C809.258,351.651 807.967,353.436 807.967,355.637C807.967,357.839 809.258,359.623 810.852,359.623C812.445,359.623 813.736,357.839 813.736,355.637Z" style="fill:rgb(253,253,253);fill-rule:nonzero;"/>
        <path d="M784.659,355.637C784.659,352.8 782.994,350.499 780.94,350.499C778.886,350.499 777.221,352.8 777.221,355.637C777.221,358.476 778.886,360.775 780.94,360.775C782.994,360.775 784.659,358.476 784.659,355.637Z" style="fill:rgb(40,42,65);fill-rule:nonzero;"/>
        <path d="M778.208,355.683C778.208,357.737 779.42,359.412 780.919,359.412C781.657,359.412 782.329,359.001 782.814,358.331L785.646,353.46C785.713,353.353 785.779,353.246 785.845,353.125L785.845,353.109C786.153,352.455 786.33,351.693 786.33,350.855L786.33,347.278L782.253,347.278L782.22,349.364C782.22,350.734 781.459,351.922 780.489,351.998C779.2,352.271 778.208,353.811 778.208,355.683Z" style="fill:rgb(40,42,65);fill-rule:nonzero;"/>
        <path d="M783.825,355.637C783.825,353.436 782.533,351.651 780.94,351.651C779.347,351.651 778.055,353.436 778.055,355.637C778.055,357.839 779.347,359.623 780.94,359.623C782.533,359.623 783.825,357.839 783.825,355.637Z" style="fill:rgb(253,253,253);fill-rule:nonzero;"/>
        <path d="M810.348,335.851L810.119,272.405L810.956,272.405L811.186,335.851L810.348,335.851Z" style="fill:rgb(128,178,246);fill-rule:nonzero;"/>
        <path d="M803.702,335.851L803.471,272.405L804.308,272.405L804.54,335.851L803.702,335.851Z" style="fill:rgb(128,178,246);fill-rule:nonzero;"/>
        <path d="M796.838,335.851L796.609,272.405L797.446,272.405L797.675,335.851L796.838,335.851Z" style="fill:rgb(128,178,246);fill-rule:nonzero;"/>
        <path d="M790.192,335.851L789.961,272.405L790.798,272.405L791.03,335.851L790.192,335.851Z" style="fill:rgb(128,178,246);fill-rule:nonzero;"/>
        <path d="M784.127,335.412L783.895,271.967L784.732,271.967L784.964,335.412L784.127,335.412Z" style="fill:rgb(128,178,246);fill-rule:nonzero;"/>
        <rect x="716.213" y="242.887" width="1.897" height="27.204" style="fill:rgb(175,187,199);fill-rule:nonzero;"/>
        <rect x="734.636" y="242.887" width="1.898" height="27.204" style="fill:rgb(175,187,199);fill-rule:nonzero;"/>
        <path d="M735.988,237.457L732.271,237.457L732.271,237.45C732.271,237.171 732.044,236.942 731.764,236.942L720.948,236.942C720.669,236.942 720.441,237.171 720.441,237.45L720.441,237.457L716.725,237.457C716.238,237.457 715.844,237.851 715.844,238.337L715.844,242.581C715.844,242.749 715.981,242.886 716.15,242.886L718.122,242.886C718.29,242.886 718.427,242.749 718.427,242.581L718.427,240.845C718.427,240.4 718.787,240.04 719.231,240.04L720.441,240.04L720.441,240.047C720.441,240.327 720.669,240.554 720.948,240.554L731.764,240.554C732.044,240.554 732.271,240.327 732.271,240.047L732.271,240.04L733.481,240.04C733.926,240.04 734.286,240.4 734.286,240.845L734.286,242.581C734.286,242.749 734.423,242.886 734.592,242.886L736.563,242.886C736.732,242.886 736.869,242.749 736.869,242.581L736.869,238.337C736.869,237.851 736.475,237.457 735.988,237.457Z" style="fill:rgb(35,37,60);fill-rule:nonzero;"/>
        <path d="M761.724,333.605L761.724,341.538C761.724,344.979 758.928,347.775 755.486,347.775L696.898,347.775C693.445,347.775 690.662,344.979 690.662,341.538L690.662,333.605C690.662,337.047 693.445,339.843 696.898,339.843L755.486,339.843C758.928,339.843 761.724,337.047 761.724,333.605Z" style="fill:rgb(180,76,85);fill-rule:nonzero;"/>
        <path d="M761.724,251.968L761.724,333.605C761.724,337.047 758.928,339.843 755.486,339.843L696.898,339.843C693.445,339.843 690.662,337.047 690.662,333.605L690.662,251.968C690.662,251.449 690.726,250.943 690.852,250.462C691.522,247.742 693.964,245.731 696.898,245.731L755.486,245.731C758.928,245.731 761.724,248.526 761.724,251.968Z" style="fill:rgb(216,91,102);fill-rule:nonzero;"/>
        <path d="M760.675,349.225C760.285,349.225 759.935,349.349 759.577,349.446C759.36,349.101 759.206,348.712 759.206,348.281L759.168,346.548L754.487,346.548L754.487,349.521C754.487,350.217 754.689,350.849 755.043,351.394L755.043,351.406C755.119,351.507 755.195,351.596 755.271,351.685L756.469,353.176C756.46,353.287 756.405,353.381 756.405,353.494C756.405,355.853 758.316,357.764 760.675,357.764C763.032,357.764 764.944,355.853 764.944,353.494C764.944,351.136 763.032,349.225 760.675,349.225Z" style="fill:rgb(40,42,65);fill-rule:nonzero;"/>
        <path d="M701.115,349.225C700.726,349.225 700.376,349.349 700.017,349.446C699.801,349.101 699.646,348.712 699.646,348.281L699.608,346.548L694.928,346.548L694.928,349.521C694.928,350.217 695.13,350.849 695.483,351.394L695.483,351.406C695.561,351.507 695.636,351.596 695.712,351.685L696.909,353.176C696.901,353.287 696.845,353.381 696.845,353.494C696.845,355.853 698.757,357.764 701.115,357.764C703.474,357.764 705.385,355.853 705.385,353.494C705.385,351.136 703.474,349.225 701.115,349.225Z" style="fill:rgb(40,42,65);fill-rule:nonzero;"/>
        <path d="M761.534,251.968L761.534,268.896C756.574,283.747 742.558,294.45 726.034,294.45C709.651,294.45 695.709,283.912 690.662,269.249L690.662,250.462C691.333,247.742 693.774,245.731 696.709,245.731L755.297,245.731C758.737,245.731 761.534,248.526 761.534,251.968Z" style="fill:rgb(180,76,85);fill-rule:nonzero;"/>
        <path d="M719.903,245.731L714.263,245.731L714.263,244.955C714.263,244.305 714.791,243.776 715.442,243.776L718.724,243.776C719.375,243.776 719.903,244.305 719.903,244.955L719.903,245.731Z" style="fill:rgb(35,37,60);fill-rule:nonzero;"/>
        <path d="M738.405,245.731L732.765,245.731L732.765,244.955C732.765,244.305 733.293,243.776 733.944,243.776L737.226,243.776C737.877,243.776 738.405,244.305 738.405,244.955L738.405,245.731Z" style="fill:rgb(35,37,60);fill-rule:nonzero;"/>
        <rect x="689.751" y="280.623" width="72.73" height="2.214" style="fill:rgb(175,187,199);fill-rule:nonzero;"/>
        <rect x="689.751" y="314.465" width="72.73" height="2.214" style="fill:rgb(175,187,199);fill-rule:nonzero;"/>
        <path d="M690.66,273.081C690.165,273.081 689.763,272.681 689.763,272.186L689.763,251.967C689.763,251.368 689.837,250.784 689.987,250.23C690.768,247.06 693.61,244.835 696.898,244.835L755.485,244.835C759.418,244.835 762.621,248.034 762.621,251.967L762.621,271.539C762.621,272.034 762.218,272.435 761.723,272.435C761.229,272.435 760.825,272.034 760.825,271.539L760.825,251.967C760.825,249.022 758.432,246.627 755.485,246.627L696.898,246.627C694.437,246.627 692.31,248.293 691.722,250.676C691.611,251.096 691.558,251.525 691.558,251.967L691.558,272.186C691.558,272.681 691.155,273.081 690.66,273.081Z" style="fill-rule:nonzero;"/>
        <path d="M666.766,336.85C666.766,337.267 666.898,337.642 667.003,338.025C666.633,338.257 666.218,338.422 665.757,338.422L663.9,338.463L663.9,343.472L667.083,343.472C667.828,343.472 668.505,343.256 669.087,342.877L669.102,342.877C669.209,342.796 669.304,342.714 669.398,342.633L670.995,341.351C671.113,341.36 671.215,341.42 671.336,341.42C673.86,341.42 675.905,339.374 675.905,336.85C675.905,334.326 673.86,332.28 671.336,332.28C668.812,332.28 666.766,334.326 666.766,336.85Z" style="fill:rgb(40,42,65);fill-rule:nonzero;"/>
        <path d="M654.958,358.675L564.83,358.675C559.964,358.675 556.02,354.729 556.02,349.863L556.02,332.089C556.02,327.223 559.964,323.277 564.83,323.277L654.958,323.277C659.824,323.277 663.769,327.223 663.769,332.089L663.769,349.863C663.769,354.729 659.824,358.675 654.958,358.675Z" style="fill:rgb(48,29,110);fill-rule:nonzero;"/>
        <rect x="554.761" y="338.338" width="109.795" height="1.451" style="fill:rgb(188,180,213);fill-rule:nonzero;"/>
        <rect x="554.761" y="340.713" width="109.795" height="1.45" style="fill:rgb(188,180,213);fill-rule:nonzero;"/>
        <path d="M563.727,358.675L553.666,358.675C552.902,358.675 552.284,358.056 552.284,357.292L552.284,357.278C552.284,356.515 552.902,355.896 553.666,355.896L563.727,355.896L563.727,358.675Z" style="fill:rgb(40,42,65);fill-rule:nonzero;"/>
        <rect x="575.288" y="336.323" width="4.483" height="8.037" style="fill:rgb(188,180,213);fill-rule:nonzero;"/>
        <rect x="636.084" y="336.323" width="4.483" height="8.037" style="fill:rgb(188,180,213);fill-rule:nonzero;"/>
        <path d="M630.3,271.105C627.499,268.889 624.441,267.929 621.001,267.929C614.694,267.929 609.484,270.594 605.387,277.756L609.675,279.961C612.143,274.593 617.103,271.434 621.001,271.434C624.53,271.434 628.565,273.914 631.095,278.892C631.479,279.644 631.053,280.941 631.404,281.79L635.918,280.926L635.918,277.836C634.149,274.891 632.293,272.683 630.3,271.105Z" style="fill:rgb(188,79,89);fill-rule:nonzero;"/>
        <path d="M648.636,323.277L593.862,323.277C590.525,323.277 587.948,320.349 588.38,317.035L588.556,315.675L591.693,291.754C592.077,288.793 594.606,286.567 597.6,286.567L644.897,286.567C647.883,286.567 650.412,288.793 650.804,291.754L654.109,317.035C654.542,320.349 651.965,323.277 648.636,323.277Z" style="fill:rgb(216,91,102);fill-rule:nonzero;"/>
        <rect x="605.389" y="287.672" width="5.62" height="35.605" style="fill:rgb(188,79,89);fill-rule:nonzero;"/>
        <path d="M611.009,283.883L605.389,283.883L605.389,277.761C607.308,274.476 609.174,272.419 611.009,271.076L611.009,283.883Z" style="fill:rgb(188,79,89);fill-rule:nonzero;"/>
        <path d="M604.889,284.306C604.771,284.306 604.676,284.397 604.676,284.51L604.676,287.184C604.676,287.227 604.694,287.273 604.723,287.306C604.77,287.364 604.823,287.388 604.889,287.388L611.084,287.388C611.198,287.388 611.288,287.298 611.288,287.184L611.288,284.51C611.288,284.447 611.257,284.385 611.205,284.348C611.175,284.324 611.145,284.306 611.084,284.306L604.889,284.306ZM611.084,287.955L604.889,287.955C604.649,287.955 604.432,287.852 604.289,287.671C604.179,287.55 604.108,287.367 604.108,287.184L604.108,284.51C604.108,284.085 604.459,283.739 604.889,283.739L611.084,283.739C611.261,283.739 611.418,283.792 611.549,283.896C611.738,284.035 611.855,284.267 611.855,284.51L611.855,287.184C611.855,287.608 611.51,287.955 611.084,287.955Z" style="fill:rgb(216,91,102);fill-rule:nonzero;"/>
        <rect x="630.299" y="287.672" width="5.62" height="35.605" style="fill:rgb(188,79,89);fill-rule:nonzero;"/>
        <path d="M635.918,277.764L635.918,283.879L630.3,283.879L630.3,271.073C632.133,272.418 633.997,274.475 635.918,277.764Z" style="fill:rgb(188,79,89);fill-rule:nonzero;"/>
        <path d="M630.224,284.306C630.163,284.306 630.133,284.324 630.113,284.34C630.051,284.385 630.02,284.447 630.02,284.51L630.02,287.184C630.02,287.301 630.107,287.388 630.224,287.388L636.419,287.388C636.483,287.388 636.538,287.363 636.572,287.32C636.613,287.273 636.631,287.227 636.631,287.184L636.631,284.51C636.631,284.397 636.536,284.306 636.419,284.306L630.224,284.306ZM636.419,287.955L630.224,287.955C629.798,287.955 629.452,287.608 629.452,287.184L629.452,284.51C629.452,284.266 629.57,284.033 629.769,283.89C629.889,283.792 630.046,283.739 630.224,283.739L636.419,283.739C636.849,283.739 637.198,284.085 637.198,284.51L637.198,287.184C637.198,287.367 637.128,287.55 637.006,287.686C636.875,287.852 636.656,287.955 636.419,287.955Z" style="fill:rgb(216,91,102);fill-rule:nonzero;"/>
        <rect x="611.009" y="297.38" width="19.291" height="1.4" style="fill:rgb(188,79,89);fill-rule:nonzero;"/>
        <path d="M594.75,320.677L594.75,323.277L593.862,323.277C590.525,323.277 587.948,320.349 588.38,317.035L588.556,315.675L589.749,315.675C592.509,315.675 594.75,317.915 594.75,320.677Z" style="fill:rgb(188,79,89);fill-rule:nonzero;"/>
        <path d="M647.738,320.677L647.738,323.277L648.627,323.277C651.965,323.277 654.542,320.349 654.109,317.035L653.933,315.675L652.74,315.675C649.979,315.675 647.738,317.915 647.738,320.677Z" style="fill:rgb(188,79,89);fill-rule:nonzero;"/>
        <path d="M484.979,349.816C484.979,349.705 484.979,349.605 484.991,349.494L479.833,349.494C479.795,349.816 479.771,350.14 479.771,350.476C479.771,353.173 481.101,355.547 483.139,356.988L483.139,353.384L486.756,353.384C485.675,352.563 484.979,351.271 484.979,349.816Z" style="fill:rgb(19,17,78);fill-rule:nonzero;"/>
        <path d="M481.044,356.241C481.044,353.803 483.021,351.826 485.458,351.826C487.897,351.826 489.874,353.803 489.874,356.241C489.874,358.68 487.897,360.656 485.458,360.656C483.021,360.656 481.044,358.68 481.044,356.241Z" style="fill:rgb(19,17,78);fill-rule:nonzero;"/>
        <path d="M482.973,356.241C482.973,354.868 484.086,353.756 485.458,353.756C486.832,353.756 487.945,354.868 487.945,356.241C487.945,357.614 486.832,358.728 485.458,358.728C484.086,358.728 482.973,357.614 482.973,356.241Z" style="fill:white;fill-rule:nonzero;"/>
        <path d="M529.913,353.384L533.53,353.384L533.53,356.988C535.568,355.547 536.898,353.173 536.898,350.476C536.898,350.14 536.874,349.816 536.836,349.494L531.678,349.494C531.69,349.605 531.69,349.705 531.69,349.816C531.69,351.271 530.994,352.563 529.913,353.384Z" style="fill:rgb(19,17,78);fill-rule:nonzero;"/>
        <path d="M535.625,356.241C535.625,353.803 533.649,351.826 531.21,351.826C528.772,351.826 526.795,353.803 526.795,356.241C526.795,358.68 528.772,360.656 531.21,360.656C533.649,360.656 535.625,358.68 535.625,356.241Z" style="fill:rgb(19,17,78);fill-rule:nonzero;"/>
        <path d="M533.696,356.241C533.696,354.868 532.583,353.756 531.21,353.756C529.837,353.756 528.724,354.868 528.724,356.241C528.724,357.614 529.837,358.728 531.21,358.728C532.583,358.728 533.696,357.614 533.696,356.241Z" style="fill:white;fill-rule:nonzero;"/>
        <path d="M546.025,260.068L546.025,336.523C546.025,338.65 545.577,340.661 544.767,342.47C542.495,347.592 537.358,351.166 531.383,351.166L485.732,351.166C479.757,351.166 474.621,347.592 472.349,342.47C471.539,340.661 471.09,338.65 471.09,336.523L471.09,260.068C471.09,251.995 477.645,245.44 485.732,245.44L531.383,245.44C539.471,245.44 546.025,251.995 546.025,260.068Z" style="fill:rgb(255,196,18);fill-rule:nonzero;"/>
        <path d="M475.81,339.09C475.26,339.09 474.814,338.645 474.814,338.095L474.814,256.102C474.814,255.552 475.26,255.106 475.81,255.106C476.359,255.106 476.804,255.552 476.804,256.102L476.804,338.095C476.804,338.645 476.359,339.09 475.81,339.09Z" style="fill:rgb(214,156,66);fill-rule:nonzero;"/>
        <path d="M480.813,339.09C480.264,339.09 479.818,338.645 479.818,338.095L479.818,256.102C479.818,255.552 480.264,255.106 480.813,255.106C481.363,255.106 481.808,255.552 481.808,256.102L481.808,338.095C481.808,338.645 481.363,339.09 480.813,339.09Z" style="fill:rgb(214,156,66);fill-rule:nonzero;"/>
        <path d="M485.817,339.09C485.268,339.09 484.822,338.645 484.822,338.095L484.822,256.102C484.822,255.552 485.268,255.106 485.817,255.106C486.366,255.106 486.812,255.552 486.812,256.102L486.812,338.095C486.812,338.645 486.366,339.09 485.817,339.09Z" style="fill:rgb(214,156,66);fill-rule:nonzero;"/>
        <path d="M490.821,339.09C490.271,339.09 489.826,338.645 489.826,338.095L489.826,256.102C489.826,255.552 490.271,255.106 490.821,255.106C491.37,255.106 491.816,255.552 491.816,256.102L491.816,338.095C491.816,338.645 491.37,339.09 490.821,339.09Z" style="fill:rgb(214,156,66);fill-rule:nonzero;"/>
        <path d="M495.825,339.09C495.275,339.09 494.83,338.645 494.83,338.095L494.83,256.102C494.83,255.552 495.275,255.106 495.825,255.106C496.374,255.106 496.819,255.552 496.819,256.102L496.819,338.095C496.819,338.645 496.374,339.09 495.825,339.09Z" style="fill:rgb(214,156,66);fill-rule:nonzero;"/>
        <path d="M500.829,339.09C500.279,339.09 499.834,338.645 499.834,338.095L499.834,256.102C499.834,255.552 500.279,255.106 500.829,255.106C501.378,255.106 501.823,255.552 501.823,256.102L501.823,338.095C501.823,338.645 501.378,339.09 500.829,339.09Z" style="fill:rgb(214,156,66);fill-rule:nonzero;"/>
        <path d="M505.833,339.09C505.283,339.09 504.838,338.645 504.838,338.095L504.838,256.102C504.838,255.552 505.283,255.106 505.833,255.106C506.382,255.106 506.827,255.552 506.827,256.102L506.827,338.095C506.827,338.645 506.382,339.09 505.833,339.09Z" style="fill:rgb(214,156,66);fill-rule:nonzero;"/>
        <path d="M510.836,339.09C510.287,339.09 509.842,338.645 509.842,338.095L509.842,256.102C509.842,255.552 510.287,255.106 510.836,255.106C511.386,255.106 511.831,255.552 511.831,256.102L511.831,338.095C511.831,338.645 511.386,339.09 510.836,339.09Z" style="fill:rgb(214,156,66);fill-rule:nonzero;"/>
        <path d="M515.84,339.09C515.291,339.09 514.846,338.645 514.846,338.095L514.846,256.102C514.846,255.552 515.291,255.106 515.84,255.106C516.39,255.106 516.835,255.552 516.835,256.102L516.835,338.095C516.835,338.645 516.39,339.09 515.84,339.09Z" style="fill:rgb(214,156,66);fill-rule:nonzero;"/>
        <path d="M520.844,339.09C520.294,339.09 519.849,338.645 519.849,338.095L519.849,256.102C519.849,255.552 520.294,255.106 520.844,255.106C521.393,255.106 521.839,255.552 521.839,256.102L521.839,338.095C521.839,338.645 521.393,339.09 520.844,339.09Z" style="fill:rgb(214,156,66);fill-rule:nonzero;"/>
        <path d="M525.848,339.09C525.299,339.09 524.854,338.645 524.854,338.095L524.854,256.102C524.854,255.552 525.299,255.106 525.848,255.106C526.397,255.106 526.843,255.552 526.843,256.102L526.843,338.095C526.843,338.645 526.397,339.09 525.848,339.09Z" style="fill:rgb(214,156,66);fill-rule:nonzero;"/>
        <path d="M530.852,339.09C530.303,339.09 529.857,338.645 529.857,338.095L529.857,256.102C529.857,255.552 530.303,255.106 530.852,255.106C531.401,255.106 531.847,255.552 531.847,256.102L531.847,338.095C531.847,338.645 531.401,339.09 530.852,339.09Z" style="fill:rgb(214,156,66);fill-rule:nonzero;"/>
        <path d="M536.018,339.09C535.468,339.09 535.023,338.645 535.023,338.095L535.023,256.102C535.023,255.552 535.468,255.106 536.018,255.106C536.567,255.106 537.012,255.552 537.012,256.102L537.012,338.095C537.012,338.645 536.567,339.09 536.018,339.09Z" style="fill:rgb(214,156,66);fill-rule:nonzero;"/>
        <path d="M541.021,339.09C540.472,339.09 540.027,338.645 540.027,338.095L540.027,256.102C540.027,255.552 540.472,255.106 541.021,255.106C541.571,255.106 542.016,255.552 542.016,256.102L542.016,338.095C542.016,338.645 541.571,339.09 541.021,339.09Z" style="fill:rgb(214,156,66);fill-rule:nonzero;"/>
        <path d="M544.839,342.47C542.567,347.592 537.431,351.166 531.455,351.166L527.621,351.166L527.621,347.954C527.621,344.93 530.08,342.47 533.104,342.47L544.839,342.47Z" style="fill:rgb(19,17,78);fill-rule:nonzero;"/>
        <path d="M472.276,342.47C474.548,347.592 479.685,351.166 485.66,351.166L489.495,351.166L489.495,347.954C489.495,344.93 487.035,342.47 484.011,342.47L472.276,342.47Z" style="fill:rgb(19,17,78);fill-rule:nonzero;"/>
        <path d="M521.813,238.963C517.695,237.737 513.346,237.04 508.853,236.922C508.853,236.922 508.594,236.902 508.463,236.904C508.333,236.902 508.074,236.922 508.074,236.922C503.581,237.04 499.231,237.737 495.115,238.963C494.017,239.29 493.433,240.483 493.88,241.537L495.335,244.966C495.486,245.322 495.835,245.554 496.223,245.554L499.051,245.554C499.583,245.554 500.015,245.121 500.015,244.589L500.015,243.62C500.015,242.749 500.631,241.985 501.489,241.831C503.761,241.424 506.088,241.18 508.463,241.127C510.839,241.18 513.166,241.424 515.438,241.831C516.296,241.985 516.912,242.749 516.912,243.62L516.912,244.589C516.912,245.121 517.344,245.554 517.875,245.554L520.705,245.554C521.091,245.554 521.44,245.322 521.591,244.966L523.047,241.537C523.495,240.483 522.909,239.29 521.813,238.963Z" style="fill:rgb(19,17,78);fill-rule:nonzero;"/>
        <path d="M520.63,240.446C516.999,239.491 511.811,238.868 508.491,238.854C504.264,238.837 500.142,239.505 496.25,240.604C496.322,239.996 496.756,239.549 497.393,239.347C500.808,238.333 504.729,237.664 508.463,237.653C511.893,237.644 516.13,238.333 519.544,239.347C520.094,239.52 520.485,239.939 520.63,240.446Z" style="fill:white;fill-rule:nonzero;"/>
        <path d="M430.782,301.618L389.903,301.618L389.907,293.912L425.78,293.912L430.782,301.618Z" style="fill:rgb(227,170,84);fill-rule:nonzero;"/>
        <rect x="377.217" y="309.921" width="60.929" height="46.811" style="fill:rgb(106,147,203);fill-rule:nonzero;"/>
        <path d="M389.903,346.351L389.903,293.909L382.197,305.791L382.197,346.457L389.903,346.351Z" style="fill:rgb(244,191,110);fill-rule:nonzero;"/>
        <path d="M433.486,305.787L433.486,346.455L425.78,346.346L425.78,293.912L430.782,301.618L433.486,305.787Z" style="fill:rgb(244,191,110);fill-rule:nonzero;"/>
        <path d="M438.141,341.434L438.141,356.735L377.219,356.735L377.219,341.424C385.539,348.158 396.146,352.18 407.685,352.18C419.224,352.18 429.812,348.158 438.141,341.434Z" style="fill:rgb(68,121,194);fill-rule:nonzero;"/>
        <path d="M432.905,354.16L382.939,354.16L382.939,336.58C382.939,328.329 389.628,321.641 397.878,321.641L417.966,321.641C426.216,321.641 432.905,328.329 432.905,336.58L432.905,354.16Z" style="fill:rgb(106,147,203);fill-rule:nonzero;"/>
        <path d="M383.641,353.458L432.203,353.458L432.203,336.58C432.203,328.729 425.816,322.343 417.966,322.343L397.878,322.343C390.028,322.343 383.641,328.729 383.641,336.58L383.641,353.458ZM433.606,354.863L382.238,354.863L382.238,336.58C382.238,327.956 389.254,320.938 397.878,320.938L417.966,320.938C426.59,320.938 433.606,327.956 433.606,336.58L433.606,354.863Z" style="fill:rgb(68,121,194);fill-rule:nonzero;"/>
        <rect x="389.635" y="313.257" width="36.146" height="1.404" style="fill:rgb(68,121,194);fill-rule:nonzero;"/>
        <path d="M378.101,358.13L365.394,358.13C362.572,358.13 360.284,355.843 360.284,353.021L360.284,323.328C360.284,315.151 366.913,308.522 375.089,308.522L378.101,308.522L378.101,358.13Z" style="fill:rgb(106,147,203);fill-rule:nonzero;"/>
        <path d="M455.137,323.328L455.137,353.021C455.137,355.844 452.849,358.132 450.026,358.132L437.319,358.132L437.319,308.521L440.33,308.521C445.193,308.521 449.511,310.868 452.205,314.483C452.512,314.89 452.79,315.306 453.047,315.741C454.374,317.96 455.137,320.555 455.137,323.328Z" style="fill:rgb(106,147,203);fill-rule:nonzero;"/>
        <rect x="377.399" y="308.523" width="1.404" height="49.607" style="fill:rgb(68,121,194);fill-rule:nonzero;"/>
        <rect x="436.618" y="308.523" width="1.404" height="49.607" style="fill:rgb(68,121,194);fill-rule:nonzero;"/>
        <path d="M362.373,315.741L377.517,338.313L378.101,337.927L378.685,337.531L378.101,336.659L363.215,314.483L362.373,315.741Z" style="fill:rgb(68,121,194);fill-rule:nonzero;"/>
        <path d="M453.047,315.741L437.903,338.313L437.319,337.927L436.735,337.531L437.319,336.659L452.205,314.483C452.512,314.89 452.79,315.306 453.047,315.741Z" style="fill:rgb(68,121,194);fill-rule:nonzero;"/>
        <path d="M407.255,316.229L406.49,316.229C406.307,316.229 406.158,316.081 406.158,315.897L406.158,315.133C406.158,314.949 406.307,314.801 406.49,314.801L407.255,314.801C407.438,314.801 407.587,314.949 407.587,315.133L407.587,315.897C407.587,316.081 407.438,316.229 407.255,316.229Z" style="fill:white;fill-rule:nonzero;"/>
        <path d="M407.255,319.922L406.49,319.922C406.307,319.922 406.158,319.773 406.158,319.59L406.158,316.693C406.158,316.51 406.307,316.361 406.49,316.361L407.255,316.361C407.438,316.361 407.587,316.51 407.587,316.693L407.587,319.59C407.587,319.773 407.438,319.922 407.255,319.922Z" style="fill:white;fill-rule:nonzero;"/>
        <path d="M410.866,316.229L410.101,316.229C409.917,316.229 409.769,316.081 409.769,315.897L409.769,315.133C409.769,314.949 409.917,314.801 410.101,314.801L410.866,314.801C411.049,314.801 411.198,314.949 411.198,315.133L411.198,315.897C411.198,316.081 411.049,316.229 410.866,316.229Z" style="fill:white;fill-rule:nonzero;"/>
        <path d="M410.866,319.922L410.101,319.922C409.917,319.922 409.769,319.773 409.769,319.59L409.769,316.693C409.769,316.51 409.917,316.361 410.101,316.361L410.866,316.361C411.049,316.361 411.198,316.51 411.198,316.693L411.198,319.59C411.198,319.773 411.049,319.922 410.866,319.922Z" style="fill:white;fill-rule:nonzero;"/>
        <path d="M444.1,331.388L443.335,331.388C443.151,331.388 443.002,331.239 443.002,331.056L443.002,330.291C443.002,330.107 443.151,329.959 443.335,329.959L444.1,329.959C444.283,329.959 444.432,330.107 444.432,330.291L444.432,331.056C444.432,331.239 444.283,331.388 444.1,331.388Z" style="fill:white;fill-rule:nonzero;"/>
        <path d="M444.1,335.08L443.335,335.08C443.151,335.08 443.002,334.931 443.002,334.747L443.002,331.851C443.002,331.668 443.151,331.519 443.335,331.519L444.1,331.519C444.283,331.519 444.432,331.668 444.432,331.851L444.432,334.747C444.432,334.931 444.283,335.08 444.1,335.08Z" style="fill:white;fill-rule:nonzero;"/>
        <path d="M372.186,331.388L371.421,331.388C371.237,331.388 371.089,331.239 371.089,331.056L371.089,330.291C371.089,330.107 371.237,329.959 371.421,329.959L372.186,329.959C372.369,329.959 372.518,330.107 372.518,330.291L372.518,331.056C372.518,331.239 372.369,331.388 372.186,331.388Z" style="fill:white;fill-rule:nonzero;"/>
        <path d="M372.186,335.08L371.421,335.08C371.237,335.08 371.089,334.931 371.089,334.747L371.089,331.851C371.089,331.668 371.237,331.519 371.421,331.519L372.186,331.519C372.369,331.519 372.518,331.668 372.518,331.851L372.518,334.747C372.518,334.931 372.369,335.08 372.186,335.08Z" style="fill:white;fill-rule:nonzero;"/>
        <path d="M343.307,329.945L343.307,317.158C343.307,313.462 340.314,310.469 336.631,310.469L302.928,310.469L302.928,315.131L335.555,315.131C336.879,315.131 337.969,316.207 337.969,317.545L337.969,329.559C337.969,330.897 336.879,331.973 335.555,331.973L302.928,331.973L302.928,336.635L336.631,336.635C340.314,336.635 343.307,333.642 343.307,329.945Z" style="fill:rgb(176,188,200);fill-rule:nonzero;"/>
        <path d="M324.29,356.681L253.68,356.681C249.639,356.681 246.094,354.584 244.066,351.412C242.921,349.632 242.273,347.535 242.273,345.273L242.273,301.879C242.273,295.589 247.377,290.472 253.68,290.472L324.29,290.472C330.594,290.472 335.711,295.589 335.711,301.879L335.711,345.273C335.711,345.701 335.684,346.129 335.643,346.543C335.008,352.253 330.167,356.681 324.29,356.681Z" style="fill:rgb(216,91,102);fill-rule:nonzero;"/>
        <path d="M244.19,351.426C244.149,351.426 244.108,351.412 244.066,351.412C242.921,349.632 242.273,347.535 242.273,345.273L242.273,340.087C243.418,340.722 244.19,341.936 244.19,343.343L244.19,351.426Z" style="fill:rgb(40,42,65);fill-rule:nonzero;"/>
        <path d="M244.19,295.668C244.149,295.668 244.108,295.682 244.066,295.682C242.921,297.461 242.273,299.558 242.273,301.819L242.273,307.006C243.418,306.372 244.19,305.158 244.19,303.751L244.19,295.668Z" style="fill:rgb(40,42,65);fill-rule:nonzero;"/>
        <path d="M239.02,343.445L239.02,348.315C239.02,349.446 239.936,350.363 241.067,350.363L243.675,350.363L243.675,341.397L241.067,341.397C239.936,341.397 239.02,342.314 239.02,343.445Z" style="fill:rgb(40,42,65);fill-rule:nonzero;"/>
        <path d="M239.303,348.455C239.41,348.455 239.504,348.455 239.611,348.467L239.611,343.55C239.303,343.515 238.995,343.49 238.675,343.49C236.104,343.49 233.84,344.759 232.466,346.702L235.902,346.702L235.902,350.15C236.684,349.119 237.917,348.455 239.303,348.455Z" style="fill:rgb(40,42,65);fill-rule:nonzero;"/>
        <path d="M233.178,344.704C235.503,344.704 237.387,346.589 237.387,348.913C237.387,351.237 235.503,353.122 233.178,353.122C230.854,353.122 228.969,351.237 228.969,348.913C228.969,346.589 230.854,344.704 233.178,344.704Z" style="fill:rgb(40,42,65);fill-rule:nonzero;"/>
        <path d="M233.178,346.543C234.487,346.543 235.548,347.604 235.548,348.913C235.548,350.222 234.487,351.283 233.178,351.283C231.87,351.283 230.809,350.222 230.809,348.913C230.809,347.604 231.87,346.543 233.178,346.543Z" style="fill:white;fill-rule:nonzero;"/>
        <path d="M239.02,303.4L239.02,298.529C239.02,297.398 239.936,296.481 241.067,296.481L243.675,296.481L243.675,305.447L241.067,305.447C239.936,305.447 239.02,304.531 239.02,303.4Z" style="fill:rgb(40,42,65);fill-rule:nonzero;"/>
        <path d="M235.902,296.695L235.902,300.144L232.466,300.144C233.84,302.087 236.104,303.354 238.675,303.354C238.995,303.354 239.303,303.331 239.611,303.295L239.611,298.378C239.504,298.39 239.41,298.39 239.303,298.39C237.917,298.39 236.684,297.726 235.902,296.695Z" style="fill:rgb(40,42,65);fill-rule:nonzero;"/>
        <path d="M233.178,302.141C235.503,302.141 237.387,300.257 237.387,297.932C237.387,295.607 235.503,293.723 233.178,293.723C230.854,293.723 228.969,295.607 228.969,297.932C228.969,300.257 230.854,302.141 233.178,302.141Z" style="fill:rgb(40,42,65);fill-rule:nonzero;"/>
        <path d="M233.178,300.302C234.487,300.302 235.548,299.241 235.548,297.932C235.548,296.623 234.487,295.563 233.178,295.563C231.87,295.563 230.809,296.623 230.809,297.932C230.809,299.241 231.87,300.302 233.178,300.302Z" style="fill:white;fill-rule:nonzero;"/>
        <path d="M324.29,356.681L323.118,356.681L323.118,351.149C323.118,348.611 325.187,346.543 327.725,346.543L335.643,346.543C335.008,352.253 330.167,356.681 324.29,356.681Z" style="fill:rgb(35,37,60);fill-rule:nonzero;"/>
        <path d="M324.29,290.472L323.118,290.472L323.118,296.002C323.118,298.54 325.187,300.609 327.725,300.609L335.643,300.609C335.008,294.899 330.167,290.472 324.29,290.472Z" style="fill:rgb(35,37,60);fill-rule:nonzero;"/>
        <path d="M242.273,314.96L242.273,313.063L313.204,313.063C313.728,313.063 314.152,313.487 314.152,314.012C314.152,314.535 313.728,314.96 313.204,314.96L242.273,314.96Z" style="fill:rgb(188,79,89);fill-rule:nonzero;"/>
        <path d="M242.273,319.729L242.273,317.833L313.204,317.833C313.728,317.833 314.152,318.258 314.152,318.781C314.152,319.306 313.728,319.729 313.204,319.729L242.273,319.729Z" style="fill:rgb(188,79,89);fill-rule:nonzero;"/>
        <path d="M242.273,324.5L242.273,322.604L313.204,322.604C313.728,322.604 314.152,323.028 314.152,323.552C314.152,324.075 313.728,324.5 313.204,324.5L242.273,324.5Z" style="fill:rgb(188,79,89);fill-rule:nonzero;"/>
        <path d="M242.273,329.271L242.273,327.374L313.204,327.374C313.728,327.374 314.152,327.799 314.152,328.322C314.152,328.846 313.728,329.271 313.204,329.271L242.273,329.271Z" style="fill:rgb(188,79,89);fill-rule:nonzero;"/>
        <path d="M242.273,334.041L242.273,332.145L313.204,332.145C313.728,332.145 314.152,332.568 314.152,333.093C314.152,333.616 313.728,334.041 313.204,334.041L242.273,334.041Z" style="fill:rgb(188,79,89);fill-rule:nonzero;"/>
        <path d="M338.176,339.881L338.176,307.223C338.176,305.861 337.072,304.758 335.711,304.758L335.711,342.346C337.072,342.346 338.176,341.242 338.176,339.881Z" style="fill:rgb(35,37,60);fill-rule:nonzero;"/>
        <path d="M319.443,290.599C319.443,289.237 318.339,288.134 316.979,288.134L260.871,288.134C259.509,288.134 258.406,289.237 258.406,290.599L319.443,290.599Z" style="fill:rgb(35,37,60);fill-rule:nonzero;"/>
        <path d="M255.184,354.732L255.184,356.681L317.255,356.681L317.255,354.732C317.255,349.194 312.766,344.704 307.227,344.704L265.212,344.704C259.674,344.704 255.184,349.194 255.184,354.732Z" style="fill:rgb(188,79,89);fill-rule:nonzero;"/>
        <path d="M255.184,292.655L255.184,290.707L317.255,290.707L317.255,292.655C317.255,298.193 312.766,302.684 307.227,302.684L265.212,302.684C259.674,302.684 255.184,298.193 255.184,292.655Z" style="fill:rgb(188,79,89);fill-rule:nonzero;"/>
        <path d="M197.195,297.17L197.195,352.708C197.195,354.729 195.572,356.351 193.552,356.351L93.166,356.351C91.145,356.351 89.507,354.729 89.507,352.708L89.507,297.17C89.507,295.149 91.145,293.511 93.166,293.511L193.552,293.511C195.572,293.511 197.195,295.149 197.195,297.17Z" style="fill:rgb(255,196,18);fill-rule:nonzero;"/>
        <rect x="90.477" y="303.856" width="105.596" height="1.591" style="fill:rgb(189,126,28);fill-rule:nonzero;"/>
        <rect x="90.477" y="346.016" width="105.596" height="1.59" style="fill:rgb(189,126,28);fill-rule:nonzero;"/>
        <path d="M104.971,293.511L96.856,300.67L89.507,307.16L89.507,297.17C89.507,295.149 91.145,293.511 93.166,293.511L104.971,293.511Z" style="fill:rgb(214,152,56);fill-rule:nonzero;"/>
        <path d="M104.971,356.351L96.856,349.192L89.507,342.701L89.507,352.691C89.507,354.712 91.145,356.351 93.166,356.351L104.971,356.351Z" style="fill:rgb(214,152,56);fill-rule:nonzero;"/>
        <path d="M181.731,293.511L189.845,300.67L197.195,307.16L197.195,297.17C197.195,295.149 195.557,293.511 193.536,293.511L181.731,293.511Z" style="fill:rgb(214,152,56);fill-rule:nonzero;"/>
        <path d="M181.731,356.351L189.845,349.192L197.195,342.701L197.195,352.691C197.195,354.712 195.557,356.351 193.536,356.351L181.731,356.351Z" style="fill:rgb(214,152,56);fill-rule:nonzero;"/>
        <path d="M114.309,291.16L114.394,291.16C115.716,291.16 116.788,292.231 116.788,293.554L116.788,356.351L111.916,356.351L111.916,293.554C111.916,292.231 112.987,291.16 114.309,291.16Z" style="fill:rgb(189,126,28);fill-rule:nonzero;"/>
        <path d="M123.234,324.549L123.234,329.179L116.918,329.179C116.346,328.367 115.407,327.842 114.357,327.842C113.291,327.842 112.353,328.367 111.796,329.179L105.464,329.179L105.464,324.549L111.875,324.549C112.432,325.313 113.339,325.79 114.357,325.79C115.359,325.79 116.266,325.313 116.839,324.549L123.234,324.549Z" style="fill:rgb(214,152,56);fill-rule:nonzero;"/>
        <path d="M172.807,291.16L172.892,291.16C174.213,291.16 175.285,292.231 175.285,293.554L175.285,356.351L170.413,356.351L170.413,293.554C170.413,292.231 171.484,291.16 172.807,291.16Z" style="fill:rgb(189,126,28);fill-rule:nonzero;"/>
        <path d="M181.731,324.549L181.731,329.179L175.416,329.179C174.843,328.367 173.904,327.842 172.854,327.842C171.789,327.842 170.85,328.367 170.293,329.179L163.961,329.179L163.961,324.549L170.373,324.549C170.929,325.313 171.836,325.79 172.854,325.79C173.856,325.79 174.764,325.313 175.336,324.549L181.731,324.549Z" style="fill:rgb(214,152,56);fill-rule:nonzero;"/>
        <rect x="133.101" y="286.888" width="1.59" height="6.622" style="fill:rgb(214,152,56);fill-rule:nonzero;"/>
        <rect x="150.666" y="286.888" width="1.591" height="6.622" style="fill:rgb(214,152,56);fill-rule:nonzero;"/>
        <path d="M152.456,286.888L133.366,286.888C132.414,286.888 131.642,286.115 131.642,285.164L131.642,284.832C131.642,283.88 132.414,283.108 133.366,283.108L152.456,283.108C153.408,283.108 154.18,283.88 154.18,284.832L154.18,285.164C154.18,286.115 153.408,286.888 152.456,286.888Z" style="fill:rgb(244,191,110);fill-rule:nonzero;"/>
        <path d="M142.116,299.481C142.116,298.53 142.887,297.758 143.839,297.758C144.791,297.758 145.563,298.53 145.563,299.481C145.563,300.434 144.791,301.205 143.839,301.205C142.887,301.205 142.116,300.434 142.116,299.481Z" style="fill:rgb(242,198,65);fill-rule:nonzero;"/>
        <path d="M92.731,298.612C92.731,297.66 93.502,296.889 94.455,296.889C95.406,296.889 96.178,297.66 96.178,298.612C96.178,299.563 95.406,300.336 94.455,300.336C93.502,300.336 92.731,299.563 92.731,298.612Z" style="fill:rgb(244,191,110);fill-rule:nonzero;"/>
        <path d="M190.373,298.612C190.373,297.66 191.145,296.889 192.096,296.889C193.048,296.889 193.82,297.66 193.82,298.612C193.82,299.563 193.048,300.336 192.096,300.336C191.145,300.336 190.373,299.563 190.373,298.612Z" style="fill:rgb(244,191,110);fill-rule:nonzero;"/>
        <path d="M92.807,351.249C92.807,350.298 93.578,349.526 94.53,349.526C95.482,349.526 96.253,350.298 96.253,351.249C96.253,352.201 95.482,352.973 94.53,352.973C93.578,352.973 92.807,352.201 92.807,351.249Z" style="fill:rgb(244,191,110);fill-rule:nonzero;"/>
        <path d="M190.448,351.249C190.448,350.298 191.22,349.526 192.172,349.526C193.124,349.526 193.895,350.298 193.895,351.249C193.895,352.201 193.124,352.973 192.172,352.973C191.22,352.973 190.448,352.201 190.448,351.249Z" style="fill:rgb(244,191,110);fill-rule:nonzero;"/>
        <path d="M142.116,350.921C142.116,349.969 142.887,349.197 143.839,349.197C144.791,349.197 145.563,349.969 145.563,350.921C145.563,351.873 144.791,352.645 143.839,352.645C142.887,352.645 142.116,351.873 142.116,350.921Z" style="fill:rgb(242,198,65);fill-rule:nonzero;"/>
    </g>
</svg>
