<?xml version="1.0" encoding="UTF-8" standalone="no"?><!DOCTYPE svg PUBLIC "-//W3C//DTD SVG 1.1//EN" "http://www.w3.org/Graphics/SVG/1.1/DTD/svg11.dtd"><svg width="100%" height="100%" viewBox="0 0 1083 331" version="1.1" xmlns="http://www.w3.org/2000/svg" xmlns:xlink="http://www.w3.org/1999/xlink" xml:space="preserve" xmlns:serif="http://www.serif.com/" style="fill-rule:evenodd;clip-rule:evenodd;stroke-linejoin:round;stroke-miterlimit:2;"><g><path d="M832.132,81.288l-2.545,-0l-0,-12.097l-10.259,-12.522l1.965,-1.614l10.839,13.227l-0,13.006Z" style="fill:#f5f5f5;fill-rule:nonzero;"/><path d="M830.257,63.195l-4.609,4.355l-22.949,2.228l31.071,-29.371l-3.513,22.788Z" style="fill:#f5f5f5;fill-rule:nonzero;"/><rect x="801.577" y="112.307" width="58.566" height="182.701" style="fill:#f5f5f5;"/><path d="M889.236,72.724l-7.057,15.248l-3.556,7.651l-4.419,9.644l-3.556,7.651l-4.471,9.644l-70.634,-0l-4.473,-9.644l-3.555,-7.651l-4.418,-9.644l-3.556,-7.651l-7.059,-15.248l116.754,-0Z" style="fill:#f5f5f5;fill-rule:nonzero;"/><path d="M817.626,55.761l-3.965,-3.609l1.215,-1.335l3.965,3.608l-1.215,1.336Z" style="fill:#f5f5f5;fill-rule:nonzero;"/><path d="M811.961,51.143c0,-1.185 0.961,-2.146 2.145,-2.146c1.186,0 2.146,0.961 2.146,2.146c0,1.185 -0.96,2.146 -2.146,2.146c-1.184,0 -2.145,-0.961 -2.145,-2.146Z" style="fill:#f5f5f5;fill-rule:nonzero;"/><path d="M349.551,204.734c0,-39.947 31.931,-72.33 71.319,-72.33c39.389,0 71.32,32.383 71.32,72.33c0,39.946 -31.931,72.329 -71.32,72.329c-39.388,0 -71.319,-32.383 -71.319,-72.329Z" style="fill:#f5f5f5;fill-rule:nonzero;"/><path d="M395.16,171.211l-0.774,11.566c-0.109,1.628 1.013,3.081 2.615,3.389l20.021,3.837c1.992,0.38 3.839,-1.146 3.839,-3.173l-0,-11.39c-0,-1.529 -1.073,-2.849 -2.571,-3.162l-19.248,-4.014c-1.92,-0.4 -3.751,0.99 -3.882,2.947Z" style="fill:#e5e5e5;fill-rule:nonzero;"/><path d="M392.129,170.313l-1.308,12.977c-0.121,1.206 -1.104,2.143 -2.314,2.209l-12.603,0.687c-1.147,0.063 -2.184,-0.676 -2.5,-1.78l-0.9,-3.152c-0.235,-0.823 -0.026,-1.708 0.552,-2.338l9.181,-10.016c0.415,-0.453 0.985,-0.734 1.598,-0.789l5.631,-0.495c1.537,-0.136 2.818,1.162 2.663,2.697Z" style="fill:#e5e5e5;fill-rule:nonzero;"/><path d="M448.866,171.211l0.774,11.566c0.109,1.628 -1.014,3.081 -2.616,3.389l-20.021,3.837c-1.992,0.38 -3.838,-1.146 -3.838,-3.173l0,-11.39c0,-1.529 1.073,-2.849 2.571,-3.162l19.247,-4.014c1.921,-0.4 3.752,0.99 3.883,2.947Z" style="fill:#e5e5e5;fill-rule:nonzero;"/><path d="M451.896,170.313l1.309,12.977c0.121,1.206 1.103,2.143 2.314,2.209l12.603,0.687c1.147,0.063 2.184,-0.676 2.5,-1.78l0.9,-3.152c0.235,-0.823 0.026,-1.708 -0.552,-2.338l-9.181,-10.016c-0.415,-0.453 -0.986,-0.734 -1.598,-0.789l-5.631,-0.495c-1.538,-0.136 -2.818,1.162 -2.664,2.697Z" style="fill:#e5e5e5;fill-rule:nonzero;"/><path d="M294.966,196.001l58.221,10.466l0,-8.517l-58.061,-3.309c-0.858,-0.049 -1.007,1.206 -0.16,1.36Z" style="fill:#f5f5f5;fill-rule:nonzero;"/><path d="M150.771,200.553l214.727,16.465c0.981,0.075 1.816,0.745 2.102,1.688l9.579,31.614c0.524,1.729 -0.987,3.39 -2.757,3.031l-246.449,-49.799c-1.601,-0.323 -2.411,-2.124 -1.591,-3.537c0.461,-0.794 1.335,-1.253 2.249,-1.181l22.14,1.719Z" style="fill:#f5f5f5;fill-rule:nonzero;"/><path d="M173.814,255.671c0,-23.422 18.987,-42.409 42.409,-42.409c23.421,0 42.408,18.987 42.408,42.409c0,23.421 -18.987,42.408 -42.408,42.408c-23.422,0 -42.409,-18.987 -42.409,-42.408Z" style="fill:#f5f5f5;fill-rule:nonzero;"/><path d="M188.507,255.671c0,-15.308 12.409,-27.717 27.716,-27.717c15.307,0 27.715,12.409 27.715,27.717c-0,15.306 -12.408,27.715 -27.715,27.715c-15.307,0 -27.716,-12.409 -27.716,-27.715Z" style="fill:#e5e5e5;fill-rule:nonzero;"/><path d="M540.662,196.001l-58.222,10.466l-0,-8.517l58.061,-3.309c0.859,-0.049 1.007,1.206 0.161,1.36Z" style="fill:#f5f5f5;fill-rule:nonzero;"/><path d="M684.857,200.553l-214.727,16.465c-0.982,0.075 -1.817,0.745 -2.102,1.688l-9.579,31.614c-0.524,1.729 0.987,3.39 2.757,3.031l246.448,-49.799c1.602,-0.323 2.411,-2.124 1.591,-3.537c-0.46,-0.794 -1.334,-1.253 -2.248,-1.181l-22.14,1.719Z" style="fill:#f5f5f5;fill-rule:nonzero;"/><path d="M661.813,255.671c0,-23.422 -18.987,-42.409 -42.408,-42.409c-23.422,0 -42.408,18.987 -42.408,42.409c0,23.421 18.986,42.408 42.408,42.408c23.421,0 42.408,-18.987 42.408,-42.408Z" style="fill:#f5f5f5;fill-rule:nonzero;"/><path d="M647.121,255.671c0,-15.308 -12.409,-27.717 -27.716,-27.717c-15.307,0 -27.716,12.409 -27.716,27.717c0,15.306 12.409,27.715 27.716,27.715c15.307,0 27.716,-12.409 27.716,-27.715Z" style="fill:#e5e5e5;fill-rule:nonzero;"/><g><path d="M392.052,38.096l7.087,2.503l81.89,1.615c0,-0 24.98,-20.91 30.366,-24.035c5.386,-3.125 12.756,-7.956 14.174,-6.816c0.324,0.261 0.831,0.541 1.421,0.818c2.709,1.274 3.77,4.565 2.367,7.209c-1.845,3.477 -4.572,7.838 -7.757,10.512c-5.953,4.995 -18.307,16.028 -18.307,16.028l23.41,17.044l8.221,5.082l-5.103,2.559l-33.45,-7.641l-10.488,-0c-0,-0 -5.954,4.274 -11.34,3.406c0.283,-0.017 -10.299,11.133 -24.379,14.408c0.567,0.883 5.387,5.301 5.387,5.301l-1.984,2.622l-15.309,-3.618l-6.519,0.996l0.283,-3.589l-24.663,-1.904c-0,-0 0.851,-1.899 5.954,-3.105c5.102,-1.206 19.729,-1.462 19.729,-1.462l-4.327,-13.068l4.351,-3.426l9.887,6.946c1.598,1.122 3.718,1.158 5.352,0.091l9.049,-5.91l3.015,-4.221l-66.333,-13.073l-3.968,-4.145l1.984,-1.127Z" style="fill:#f5f5f5;fill-rule:nonzero;"/></g><g><rect x="2.174" y="291.295" width="1080.09" height="38.485" style="fill:#dde9ff;"/></g><g><rect x="23.621" y="32.319" width="201.702" height="22.773" style="fill:#e5e5e5;"/></g><g><rect x="23.621" y="32.319" width="22.774" height="22.773" style="fill:#d85b66;"/></g><g><rect x="202.55" y="32.319" width="22.773" height="22.773" style="fill:#d85b66;"/></g><g><path d="M52.39,43.707c0,-3.45 2.797,-6.246 6.246,-6.246c3.45,-0 6.246,2.796 6.246,6.246c0,3.449 -2.796,6.245 -6.246,6.245c-3.449,-0 -6.246,-2.796 -6.246,-6.246Z" style="fill:#ffc412;fill-rule:nonzero;"/></g><g><path d="M68.204,43.707c0,-3.45 2.796,-6.246 6.246,-6.246c3.449,-0 6.246,2.796 6.246,6.246c0,3.449 -2.797,6.245 -6.246,6.245c-3.45,-0 -6.246,-2.796 -6.246,-6.246Z" style="fill:#ffc412;fill-rule:nonzero;"/></g><g><path d="M182.519,43.707c0,-3.45 2.796,-6.246 6.246,-6.246c3.45,-0 6.246,2.796 6.246,6.246c0,3.449 -2.796,6.245 -6.246,6.245c-3.45,-0 -6.246,-2.796 -6.246,-6.246Z" style="fill:#ffc412;fill-rule:nonzero;"/></g><rect x="0" y="296.826" width="1082.26" height="25.54" style="fill:#f5f5f5;"/><rect x="0" y="322.366" width="1082.26" height="8.353" style="fill:#b4bfd4;"/><rect x="0.398" y="293.29" width="1081.86" height="9.577" style="fill:#b4bfd4;"/><path d="M633.713,302.518l19.754,-0l33.422,-8.88l-19.554,-0l-33.622,8.88Z" style="fill:#8691a6;fill-rule:nonzero;"/><path d="M669.181,302.518l19.753,-0l33.421,-8.88l-19.553,-0l-33.621,8.88Z" style="fill:#8691a6;fill-rule:nonzero;"/><path d="M704.348,302.518l19.754,-0l33.421,-8.88l-19.554,-0l-33.621,8.88Z" style="fill:#8691a6;fill-rule:nonzero;"/><path d="M739.814,302.518l19.754,-0l33.422,-8.88l-19.554,-0l-33.622,8.88Z" style="fill:#8691a6;fill-rule:nonzero;"/><path d="M491.909,302.518l19.754,-0l33.421,-8.88l-19.554,-0l-33.621,8.88Z" style="fill:#8691a6;fill-rule:nonzero;"/><path d="M527.376,302.518l19.754,-0l33.422,-8.88l-19.555,-0l-33.621,8.88Z" style="fill:#8691a6;fill-rule:nonzero;"/><path d="M562.543,302.518l19.754,-0l33.422,-8.88l-19.554,-0l-33.622,8.88Z" style="fill:#8691a6;fill-rule:nonzero;"/><path d="M598.011,302.518l19.754,-0l33.421,-8.88l-19.554,-0l-33.621,8.88Z" style="fill:#8691a6;fill-rule:nonzero;"/><path d="M349.244,302.518l19.753,-0l33.422,-8.88l-19.554,-0l-33.621,8.88Z" style="fill:#8691a6;fill-rule:nonzero;"/><path d="M384.71,302.518l19.754,-0l33.422,-8.88l-19.554,-0l-33.622,8.88Z" style="fill:#8691a6;fill-rule:nonzero;"/><path d="M419.878,302.518l19.754,-0l33.421,-8.88l-19.554,-0l-33.621,8.88Z" style="fill:#8691a6;fill-rule:nonzero;"/><path d="M455.345,302.518l19.754,-0l33.421,-8.88l-19.554,-0l-33.621,8.88Z" style="fill:#8691a6;fill-rule:nonzero;"/><path d="M207.177,302.518l19.753,-0l33.422,-8.88l-19.554,-0l-33.621,8.88Z" style="fill:#8691a6;fill-rule:nonzero;"/><path d="M242.644,302.518l19.753,-0l33.422,-8.88l-19.554,-0l-33.621,8.88Z" style="fill:#8691a6;fill-rule:nonzero;"/><path d="M277.811,302.518l19.754,-0l33.421,-8.88l-19.554,-0l-33.621,8.88Z" style="fill:#8691a6;fill-rule:nonzero;"/><path d="M313.278,302.518l19.754,-0l33.421,-8.88l-19.554,-0l-33.621,8.88Z" style="fill:#8691a6;fill-rule:nonzero;"/><path d="M64.511,302.518l19.754,-0l33.422,-8.88l-19.555,-0l-33.621,8.88Z" style="fill:#8691a6;fill-rule:nonzero;"/><path d="M99.978,302.518l19.753,-0l33.422,-8.88l-19.554,-0l-33.621,8.88Z" style="fill:#8691a6;fill-rule:nonzero;"/><path d="M135.146,302.518l19.753,-0l33.422,-8.88l-19.554,-0l-33.621,8.88Z" style="fill:#8691a6;fill-rule:nonzero;"/><path d="M170.612,302.518l19.754,-0l33.422,-8.88l-19.555,-0l-33.621,8.88Z" style="fill:#8691a6;fill-rule:nonzero;"/><path d="M28.564,302.518l19.753,-0l33.423,-8.88l-19.555,-0l-33.621,8.88Z" style="fill:#8691a6;fill-rule:nonzero;"/><path d="M776.029,302.518l19.754,-0l33.422,-8.88l-19.555,-0l-33.621,8.88Z" style="fill:#8691a6;fill-rule:nonzero;"/><path d="M811.496,302.518l19.754,-0l33.422,-8.88l-19.554,-0l-33.622,8.88Z" style="fill:#8691a6;fill-rule:nonzero;"/><path d="M846.664,302.518l19.754,-0l33.422,-8.88l-19.555,-0l-33.621,8.88Z" style="fill:#8691a6;fill-rule:nonzero;"/><path d="M882.131,302.518l19.754,-0l33.422,-8.88l-19.555,-0l-33.621,8.88Z" style="fill:#8691a6;fill-rule:nonzero;"/><path d="M919.095,302.518l19.753,-0l33.422,-8.88l-19.554,-0l-33.621,8.88Z" style="fill:#8691a6;fill-rule:nonzero;"/><path d="M954.562,302.518l19.752,-0l33.426,-8.88l-19.56,-0l-33.618,8.88Z" style="fill:#8691a6;fill-rule:nonzero;"/><path d="M989.73,302.518l19.75,-0l33.42,-8.88l-19.55,-0l-33.62,8.88Z" style="fill:#8691a6;fill-rule:nonzero;"/><path d="M1025.2,302.518l19.75,-0l33.42,-8.88l-19.55,-0l-33.62,8.88Z" style="fill:#8691a6;fill-rule:nonzero;"/><path d="M1053.06,295.395l-67.87,0c-4.76,0 -8.625,-3.86 -8.625,-8.621l0,-23.49c0,-4.762 3.865,-8.621 8.625,-8.621l67.87,0c4.76,0 8.62,3.859 8.62,8.621l0,23.49c0,4.761 -3.86,8.621 -8.62,8.621Z" style="fill:#d85b66;fill-rule:nonzero;"/><rect x="975.359" y="272.301" width="87.531" height="1.485" style="fill:#282a41;"/><rect x="975.359" y="275.379" width="87.531" height="1.483" style="fill:#282a41;"/><path d="M1062.02,268.627l-1.79,0l0,-3.58l1.79,-0c0.99,-0 1.79,0.801 1.79,1.79c0,0.988 -0.8,1.79 -1.79,1.79Z" style="fill:#282a41;fill-rule:nonzero;"/><path d="M1062.02,284.856l-1.79,0l0,-3.58l1.79,0c0.99,0 1.79,0.802 1.79,1.791c0,0.988 -0.8,1.789 -1.79,1.789Z" style="fill:#282a41;fill-rule:nonzero;"/><rect x="996.28" y="270.763" width="4.58" height="8.221" style="fill:#282a41;"/><rect x="1036.5" y="270.763" width="4.58" height="8.221" style="fill:#282a41;"/><path d="M1037.32,254.583l-63.933,-0c-4.129,-0 -7.244,-3.751 -6.485,-7.81l5.447,-29.14c1.018,-5.445 5.771,-9.392 11.311,-9.392l43.38,0c5.54,0 10.3,3.947 11.32,9.392l5.44,29.14c0.76,4.059 -2.35,7.81 -6.48,7.81Z" style="fill:#ffc412;fill-rule:nonzero;"/><path d="M1037.32,254.581l-63.933,0c-4.13,0 -7.243,-3.748 -6.489,-7.806l0.502,-2.706c1.234,1.4 3.03,2.286 5.077,2.286l65.753,0c2.04,0 3.84,-0.886 5.07,-2.286l0.51,2.706c0.75,4.058 -2.36,7.806 -6.49,7.806Z" style="fill:#d69c42;fill-rule:nonzero;"/><path d="M990.33,257.615l0.06,0c1,0 1.8,-0.806 1.8,-1.801l0,-42.121l-3.66,-0l0,42.121c0,0.995 0.8,1.801 1.8,1.801Z" style="fill:#6a93cb;fill-rule:nonzero;"/><path d="M988.85,226.782c-0.17,-0 -0.31,0.139 -0.31,0.31l-0,3.992c-0,0.172 0.14,0.311 0.31,0.311l3.02,-0c0.17,-0 0.31,-0.139 0.31,-0.311l0,-3.992c0,-0.171 -0.14,-0.31 -0.31,-0.31l-3.02,-0Zm3.02,5.462l-3.02,-0c-0.64,-0 -1.16,-0.521 -1.16,-1.16l0,-3.992c0,-0.639 0.52,-1.16 1.16,-1.16l3.02,0c0.64,0 1.16,0.521 1.16,1.16l0,3.992c0,0.639 -0.52,1.16 -1.16,1.16Z" style="fill:#fff;fill-rule:nonzero;"/><rect x="988.53" y="230.903" width="3.66" height="3.966" style="fill:#6a93cb;"/><rect x="987.93" y="232.25" width="4.9" height="1.383" style="fill:#3f7acb;"/><path d="M1020.06,257.615l0.06,0c1,0 1.8,-0.806 1.8,-1.801l0,-42.121l-3.67,-0l0,42.121c0,0.995 0.81,1.801 1.81,1.801Z" style="fill:#6a93cb;fill-rule:nonzero;"/><path d="M1018.58,226.782c-0.17,-0 -0.31,0.139 -0.31,0.31l-0,3.992c-0,0.172 0.14,0.311 0.31,0.311l3.02,-0c0.17,-0 0.31,-0.139 0.31,-0.311l0,-3.992c0,-0.171 -0.14,-0.31 -0.31,-0.31l-3.02,-0Zm3.02,5.462l-3.02,-0c-0.64,-0 -1.16,-0.521 -1.16,-1.16l0,-3.992c0,-0.639 0.52,-1.16 1.16,-1.16l3.02,0c0.64,0 1.16,0.521 1.16,1.16l0,3.992c0,0.639 -0.52,1.16 -1.16,1.16Z" style="fill:#fff;fill-rule:nonzero;"/><rect x="1017.66" y="232.25" width="4.9" height="1.383" style="fill:#3f7acb;"/><path d="M1005.35,190.722c-7.28,0 -13.51,7.411 -16.12,17.922l2.64,0c0.17,0 0.31,0.048 0.43,0.144c2.28,-8.896 7.27,-15.072 13.05,-15.072c5.76,0 10.74,6.128 13.03,14.964c0.06,-0.024 0.14,-0.036 0.21,-0.036l2.89,0c-2.61,-10.511 -8.85,-17.922 -16.13,-17.922Z" style="fill:#6a93cb;fill-rule:nonzero;"/><path d="M1018.59,209.068c-0.22,0.055 -0.3,0.17 -0.3,0.307l-0,3.998c-0,0.172 0.13,0.306 0.3,0.306l3.02,-0c0.18,-0 0.32,-0.136 0.32,-0.306l0,-3.998c0,-0.17 -0.14,-0.307 -0.32,-0.307l-3.02,-0Zm3.02,5.46l-3.02,0c-0.63,0 -1.15,-0.518 -1.15,-1.155l0,-3.998c0,-0.522 0.33,-0.965 0.82,-1.103c0.07,-0.028 0.2,-0.053 0.33,-0.053l3.02,-0c0.64,-0 1.17,0.518 1.17,1.156l-0,3.998c-0,0.637 -0.53,1.155 -1.17,1.155Z" style="fill:#fff;fill-rule:nonzero;"/><path d="M988.85,209.068c-0.17,-0 -0.31,0.137 -0.31,0.307l-0,3.998c-0,0.065 0.02,0.135 0.07,0.184c0.07,0.085 0.15,0.122 0.24,0.122l3.02,-0c0.17,-0 0.31,-0.134 0.31,-0.306l-0,-3.998c-0,-0.095 -0.05,-0.188 -0.13,-0.246c-0.04,-0.035 -0.09,-0.061 -0.18,-0.061l-3.02,0Zm3.02,5.46l-3.02,0c-0.35,0 -0.68,-0.155 -0.89,-0.426c-0.17,-0.183 -0.27,-0.457 -0.27,-0.729l-0,-3.998c-0,-0.638 0.52,-1.156 1.16,-1.156l3.02,0c0.27,0 0.5,0.08 0.7,0.238c0.28,0.207 0.46,0.553 0.46,0.918l-0,3.998c-0,0.637 -0.52,1.155 -1.16,1.155Z" style="fill:#fff;fill-rule:nonzero;"/><rect x="1029.01" y="215.863" width="2.09" height="26.602" style="fill:#d69c42;"/><path d="M844.238,277.034l-2.959,-0.584c-1.405,-0.277 -2.32,-1.643 -2.042,-3.048l0.322,-1.625c0.277,-1.405 1.641,-2.32 3.046,-2.042l2.959,0.584l-1.326,6.715Z" style="fill:#282a41;fill-rule:nonzero;"/><rect x="905.759" y="288.918" width="50.04" height="2.544" style="fill:#b0bcc8;"/><path d="M849.357,291.596c0,-3.343 -2.711,-6.054 -6.054,-6.054c-3.344,-0 -6.055,2.711 -6.055,6.054c0,3.344 2.711,6.054 6.055,6.054c3.343,0 6.054,-2.71 6.054,-6.054Z" style="fill:#282a41;fill-rule:nonzero;"/><path d="M846.712,291.596c0,-1.882 -1.526,-3.409 -3.409,-3.409c-1.883,0 -3.409,1.527 -3.409,3.409c0,1.883 1.526,3.41 3.409,3.41c1.883,-0 3.409,-1.527 3.409,-3.41Z" style="fill:#fff;fill-rule:nonzero;"/><path d="M883.304,245.456l0,-17.476l-0.904,1.349l-6.653,9.921l0,6.284l7.557,-0.078Z" style="fill:#f4bf6e;fill-rule:nonzero;"/><path d="M895.707,245.456l0,-17.476l0.904,1.349l6.653,9.921l0,6.284l-7.557,-0.078Z" style="fill:#f4bf6e;fill-rule:nonzero;"/><path d="M883.304,232.771l0,-4.782c0,-0 2.309,-4.394 5.668,-4.605c4.232,-0.265 6.899,4.776 6.766,4.643l-0.032,4.744c0,0 -3.102,-2.351 -6.458,-2.278c-3.579,0.078 -5.944,2.278 -5.944,2.278Z" style="fill:#e3b266;fill-rule:nonzero;"/><path d="M928.651,297.283l-78.295,0c-5.879,0 -10.351,-5.283 -9.379,-11.083l5.591,-33.377c0.769,-4.582 4.735,-7.94 9.381,-7.94l67.11,0c4.646,0 8.612,3.358 9.38,7.94l5.592,33.377c0.972,5.8 -3.5,11.083 -9.38,11.083Z" style="fill:#6a93cb;fill-rule:nonzero;"/><path d="M923.914,294.113l-68.82,0c-5.169,0 -9.1,-4.645 -8.245,-9.742l4.915,-29.338c0.675,-4.028 4.162,-6.979 8.246,-6.979l58.988,0c4.084,0 7.57,2.951 8.245,6.979l4.916,29.338c0.855,5.097 -3.076,9.742 -8.245,9.742Z" style="fill:#6a93cb;fill-rule:nonzero;"/><path d="M923.913,294.11l-68.815,0c-5.172,0 -9.099,-4.644 -8.248,-9.745l4.92,-29.331c0.275,-1.652 1.03,-3.137 2.107,-4.298c-0.574,1.46 -0.79,3.148 -0.551,4.885l4.131,29.331c0.563,4.034 3.495,6.979 6.919,6.979l49.588,0c3.424,0 6.357,-2.945 6.92,-6.979l4.131,-29.331c0.298,-2.167 -0.109,-4.238 -1.042,-5.914c1.688,1.232 2.897,3.112 3.268,5.327l4.92,29.331c0.851,5.101 -3.076,9.745 -8.248,9.745Z" style="fill:#96adcb;fill-rule:nonzero;"/><path d="M852.633,254.01c-0.118,0.366 -0.209,0.74 -0.273,1.123l-4.921,29.332c-0.376,2.258 0.257,4.555 1.737,6.302c1.476,1.743 3.637,2.744 5.922,2.744l68.815,-0c2.285,-0 4.445,-1.001 5.922,-2.744c1.479,-1.747 2.112,-4.044 1.736,-6.303l-4.92,-29.331c-0.18,-1.073 -0.573,-2.075 -1.146,-2.957c0.229,1.138 0.266,2.334 0.102,3.527l-4.13,29.332c-0.606,4.344 -3.765,7.495 -7.513,7.495l-49.588,-0c-3.747,-0 -6.906,-3.151 -7.512,-7.495l-4.131,-29.331c-0.078,-0.567 -0.11,-1.132 -0.1,-1.694Zm71.28,40.699l-68.815,-0c-2.639,-0 -5.13,-1.156 -6.836,-3.169c-1.707,-2.016 -2.438,-4.666 -2.003,-7.273l4.921,-29.333c0.288,-1.731 1.069,-3.325 2.258,-4.605c0.197,-0.212 0.515,-0.252 0.758,-0.099c0.243,0.153 0.344,0.458 0.238,0.726c-0.556,1.411 -0.734,2.995 -0.515,4.583l4.131,29.33c0.522,3.746 3.182,6.464 6.326,6.464l49.588,-0c3.143,-0 5.805,-2.718 6.327,-6.464l4.131,-29.331c0.27,-1.962 -0.075,-3.93 -0.972,-5.541c-0.137,-0.245 -0.084,-0.553 0.126,-0.739c0.21,-0.186 0.523,-0.2 0.749,-0.035c1.872,1.369 3.117,3.397 3.507,5.711l4.92,29.331c0.435,2.609 -0.296,5.259 -2.003,7.275c-1.706,2.013 -4.197,3.169 -6.836,3.169Z" style="fill:#4980cb;fill-rule:nonzero;"/><path d="M860.009,248.653c-3.807,0 -7.026,2.725 -7.655,6.48l-4.916,29.337c-0.377,2.255 0.254,4.55 1.732,6.297c1.476,1.745 3.637,2.746 5.924,2.746l68.82,0c2.287,0 4.446,-1.002 5.924,-2.747c1.477,-1.746 2.108,-4.041 1.73,-6.296l-4.915,-29.337c-0.629,-3.755 -3.848,-6.48 -7.655,-6.48l-58.989,0Zm63.905,46.058l-68.82,0c-2.64,0 -5.132,-1.156 -6.838,-3.171c-1.706,-2.014 -2.434,-4.663 -1.998,-7.269l4.916,-29.338c0.726,-4.333 4.441,-7.477 8.835,-7.477l58.989,0c4.395,0 8.11,3.144 8.836,7.477l4.915,29.338c0.437,2.605 -0.291,5.253 -1.997,7.268c-1.705,2.015 -4.198,3.172 -6.838,3.172Z" style="fill:#4980cb;fill-rule:nonzero;"/><path d="M928.653,297.283l-78.296,0c-5.878,0 -10.355,-5.279 -9.385,-11.086l0.514,-3.101c1.389,3.508 4.788,6.046 8.871,6.046l78.296,0c4.083,0 7.483,-2.538 8.86,-6.046l0.514,3.101c0.97,5.807 -3.495,11.086 -9.374,11.086Z" style="fill:#4980cb;fill-rule:nonzero;"/><path d="M961.499,292.394l-6.219,0c-0.513,0 -0.93,-0.417 -0.93,-0.931l0,-2.344c0,-0.515 0.417,-0.932 0.93,-0.932l6.219,0c0.515,0 0.932,0.417 0.932,0.932l0,2.344c0,0.514 -0.417,0.931 -0.932,0.931Z" style="fill:#282a41;fill-rule:nonzero;"/><rect x="876.761" y="264.228" width="28.857" height="2.095" style="fill:#3f7acb;"/><path d="M878.094,268.187l-0.997,0c-0.24,0 -0.434,-0.193 -0.434,-0.432l-0,-0.998c-0,-0.24 0.194,-0.434 0.434,-0.434l0.997,0c0.239,0 0.433,0.194 0.433,0.434l0,0.998c0,0.239 -0.194,0.432 -0.433,0.432Z" style="fill:#fff;fill-rule:nonzero;"/><path d="M878.094,273.004l-0.997,0c-0.24,0 -0.434,-0.195 -0.434,-0.434l-0,-3.778c-0,-0.24 0.194,-0.434 0.434,-0.434l0.997,0c0.239,0 0.433,0.194 0.433,0.434l0,3.778c0,0.239 -0.194,0.434 -0.433,0.434Z" style="fill:#fff;fill-rule:nonzero;"/><path d="M799.508,190.888l-20.654,0l0,9.494l3.334,0l0,-4.978l13.986,0l0,4.978l3.334,0l0,-9.494Z" style="fill:#23253c;fill-rule:nonzero;"/><path d="M809.278,289.903c0.344,0 0.669,0.085 0.985,0.205c0.171,-0.402 0.295,-0.847 0.295,-1.34l0.033,-2.086l4.078,0l0,3.577c0,0.838 -0.177,1.6 -0.485,2.254l0,0.016c-0.067,0.121 -0.133,0.228 -0.199,0.335l-1.018,1.751c0.009,0.143 0.031,0.28 0.031,0.426c0,2.839 -1.665,5.138 -3.72,5.138c-2.053,0 -3.719,-2.299 -3.719,-5.138c0,-2.837 1.666,-5.138 3.719,-5.138Z" style="fill:#282a41;fill-rule:nonzero;"/><path d="M776.128,289.903c0.344,0 0.669,0.085 0.984,0.205c0.171,-0.402 0.296,-0.847 0.296,-1.34l0.032,-2.086l4.079,0l-0,3.577c-0,0.838 -0.177,1.6 -0.486,2.254l-0,0.016c-0.065,0.121 -0.132,0.228 -0.198,0.335l-1.019,1.751c0.009,0.143 0.032,0.28 0.032,0.426c-0,2.839 -1.665,5.138 -3.72,5.138c-2.054,0 -3.719,-2.299 -3.719,-5.138c-0,-2.837 1.665,-5.138 3.719,-5.138Z" style="fill:#282a41;fill-rule:nonzero;"/><path d="M755.357,208.758l0,71.919c0,4.523 2.363,8.192 5.264,8.192l30.642,-0c2.548,-0 4.685,-2.832 5.156,-6.592c0.068,-0.518 0.107,-1.051 0.107,-1.6l0,-71.919c0,-4.522 -2.362,-8.191 -5.263,-8.191l-30.642,-0c-2.901,-0 -5.264,3.669 -5.264,8.191Z" style="fill:#6a93cb;fill-rule:nonzero;"/><path d="M791.571,295.041c0,-2.837 -1.666,-5.138 -3.719,-5.138c-2.055,0 -3.72,2.301 -3.72,5.138c0,2.839 1.665,5.138 3.72,5.138c2.053,0 3.719,-2.299 3.719,-5.138Z" style="fill:#282a41;fill-rule:nonzero;"/><path d="M772.409,208.758l0,71.919c0,4.523 2.759,8.192 6.148,8.192l35.786,-0c2.976,-0 5.472,-2.832 6.021,-6.592c0.08,-0.518 0.126,-1.051 0.126,-1.6l0,-71.919c0,-4.522 -2.759,-8.191 -6.147,-8.191l-35.786,-0c-3.389,-0 -6.148,3.669 -6.148,8.191Z" style="fill:#6a93cb;fill-rule:nonzero;"/><path d="M785.119,295.087c0,2.054 1.213,3.729 2.712,3.729c0.738,0 1.41,-0.411 1.895,-1.081l2.833,-4.871c0.066,-0.107 0.131,-0.214 0.198,-0.335l0,-0.016c0.308,-0.654 0.485,-1.416 0.485,-2.254l0,-3.577l-4.078,0l-0.033,2.086c0,1.37 -0.76,2.558 -1.731,2.634c-1.289,0.273 -2.281,1.813 -2.281,3.685Z" style="fill:#282a41;fill-rule:nonzero;"/><path d="M760.621,200.986c-2.671,0 -4.845,3.485 -4.845,7.772l0,71.921c0,4.288 2.174,7.773 4.845,7.773l30.641,0c2.297,0 4.29,-2.618 4.741,-6.227c0.071,-0.531 0.103,-1.037 0.103,-1.546l0,-71.921c0,-4.287 -2.174,-7.772 -4.844,-7.772l-30.641,-0Zm30.641,88.304l-30.641,-0c-3.134,-0 -5.683,-3.863 -5.683,-8.611l0,-71.921c0,-4.748 2.549,-8.61 5.683,-8.61l30.641,-0c3.134,-0 5.681,3.862 5.681,8.61l0,71.921c0,0.544 -0.035,1.085 -0.109,1.653c-0.506,4.029 -2.848,6.958 -5.572,6.958Z" style="fill:#80b2f6;fill-rule:nonzero;"/><path d="M786.949,287.743l-0,1.126l4.314,0c2.548,0 4.685,-2.832 5.156,-6.592l-5.95,0c-1.942,0 -3.52,2.451 -3.52,5.466Z" style="fill:#282a41;fill-rule:nonzero;"/><path d="M764.826,287.743l0,1.126l-4.313,0c-2.548,0 -4.686,-2.832 -5.156,-6.592l5.951,0c1.939,0 3.518,2.451 3.518,5.466Z" style="fill:#282a41;fill-rule:nonzero;"/><rect x="796.526" y="214.793" width="25.051" height="6.612" style="fill:#282a41;"/><rect x="796.526" y="269.839" width="25.414" height="6.613" style="fill:#282a41;"/><path d="M790.736,295.041c0,-2.201 -1.291,-3.986 -2.884,-3.986c-1.594,0 -2.885,1.785 -2.885,3.986c0,2.202 1.291,3.986 2.885,3.986c1.593,0 2.884,-1.784 2.884,-3.986Z" style="fill:#fdfdfd;fill-rule:nonzero;"/><path d="M761.659,295.041c0,-2.837 -1.665,-5.138 -3.719,-5.138c-2.054,0 -3.719,2.301 -3.719,5.138c0,2.839 1.665,5.138 3.719,5.138c2.054,0 3.719,-2.299 3.719,-5.138Z" style="fill:#282a41;fill-rule:nonzero;"/><path d="M755.208,295.087c0,2.054 1.212,3.729 2.711,3.729c0.738,0 1.41,-0.411 1.895,-1.081l2.832,-4.871c0.067,-0.107 0.133,-0.214 0.199,-0.335l0,-0.016c0.308,-0.654 0.485,-1.416 0.485,-2.254l0,-3.577l-4.077,0l-0.033,2.086c0,1.37 -0.761,2.558 -1.731,2.634c-1.289,0.273 -2.281,1.813 -2.281,3.685Z" style="fill:#282a41;fill-rule:nonzero;"/><path d="M760.825,295.041c0,-2.201 -1.292,-3.986 -2.885,-3.986c-1.593,0 -2.885,1.785 -2.885,3.986c-0,2.202 1.292,3.986 2.885,3.986c1.593,0 2.885,-1.784 2.885,-3.986Z" style="fill:#fdfdfd;fill-rule:nonzero;"/><path d="M787.348,275.255l-0.229,-63.446l0.837,-0l0.23,63.446l-0.838,0Z" style="fill:#80b2f6;fill-rule:nonzero;"/><path d="M780.702,275.255l-0.231,-63.446l0.837,-0l0.232,63.446l-0.838,0Z" style="fill:#80b2f6;fill-rule:nonzero;"/><path d="M773.838,275.255l-0.229,-63.446l0.837,-0l0.229,63.446l-0.837,0Z" style="fill:#80b2f6;fill-rule:nonzero;"/><path d="M767.192,275.255l-0.231,-63.446l0.837,-0l0.232,63.446l-0.838,0Z" style="fill:#80b2f6;fill-rule:nonzero;"/><path d="M761.127,274.816l-0.232,-63.445l0.837,-0l0.232,63.445l-0.837,-0Z" style="fill:#80b2f6;fill-rule:nonzero;"/><rect x="693.213" y="182.291" width="1.897" height="27.204" style="fill:#afbbc7;"/><rect x="711.636" y="182.291" width="1.898" height="27.204" style="fill:#afbbc7;"/><path d="M712.988,176.861l-3.717,0l-0,-0.007c-0,-0.279 -0.227,-0.508 -0.507,-0.508l-10.816,0c-0.279,0 -0.507,0.229 -0.507,0.508l-0,0.007l-3.716,0c-0.487,0 -0.881,0.394 -0.881,0.88l-0,4.244c-0,0.168 0.137,0.305 0.306,0.305l1.972,0c0.168,0 0.305,-0.137 0.305,-0.305l-0,-1.736c-0,-0.445 0.36,-0.805 0.804,-0.805l1.21,0l-0,0.007c-0,0.28 0.228,0.507 0.507,0.507l10.816,0c0.28,0 0.507,-0.227 0.507,-0.507l-0,-0.007l1.21,0c0.445,0 0.805,0.36 0.805,0.805l-0,1.736c-0,0.168 0.137,0.305 0.306,0.305l1.971,0c0.169,0 0.306,-0.137 0.306,-0.305l-0,-4.244c-0,-0.486 -0.394,-0.88 -0.881,-0.88Z" style="fill:#23253c;fill-rule:nonzero;"/><path d="M738.724,273.009l0,7.933c0,3.441 -2.796,6.237 -6.238,6.237l-58.588,-0c-3.453,-0 -6.236,-2.796 -6.236,-6.237l0,-7.933c0,3.442 2.783,6.238 6.236,6.238l58.588,0c3.442,0 6.238,-2.796 6.238,-6.238Z" style="fill:#b44c55;fill-rule:nonzero;"/><path d="M738.724,191.372l0,81.637c0,3.442 -2.796,6.238 -6.238,6.238l-58.588,0c-3.453,0 -6.236,-2.796 -6.236,-6.238l0,-81.637c0,-0.519 0.064,-1.025 0.19,-1.506c0.67,-2.72 3.112,-4.731 6.046,-4.731l58.588,-0c3.442,-0 6.238,2.795 6.238,6.237Z" style="fill:#d85b66;fill-rule:nonzero;"/><path d="M737.675,288.629c-0.39,0 -0.74,0.124 -1.098,0.221c-0.217,-0.345 -0.371,-0.734 -0.371,-1.165l-0.038,-1.733l-4.681,0l-0,2.973c-0,0.696 0.202,1.328 0.556,1.873l-0,0.012c0.076,0.101 0.152,0.19 0.228,0.279l1.198,1.491c-0.009,0.111 -0.064,0.205 -0.064,0.318c-0,2.359 1.911,4.27 4.27,4.27c2.357,0 4.269,-1.911 4.269,-4.27c-0,-2.358 -1.912,-4.269 -4.269,-4.269Z" style="fill:#282a41;fill-rule:nonzero;"/><path d="M678.115,288.629c-0.389,0 -0.739,0.124 -1.098,0.221c-0.216,-0.345 -0.371,-0.734 -0.371,-1.165l-0.038,-1.733l-4.68,0l-0,2.973c-0,0.696 0.202,1.328 0.555,1.873l-0,0.012c0.078,0.101 0.153,0.19 0.229,0.279l1.197,1.491c-0.008,0.111 -0.064,0.205 -0.064,0.318c-0,2.359 1.912,4.27 4.27,4.27c2.359,0 4.27,-1.911 4.27,-4.27c-0,-2.358 -1.911,-4.269 -4.27,-4.269Z" style="fill:#282a41;fill-rule:nonzero;"/><path d="M738.534,191.372l0,16.928c-4.96,14.851 -18.976,25.554 -35.5,25.554c-16.383,-0 -30.325,-10.538 -35.372,-25.201l0,-18.787c0.671,-2.72 3.112,-4.731 6.047,-4.731l58.588,-0c3.44,-0 6.237,2.795 6.237,6.237Z" style="fill:#b44c55;fill-rule:nonzero;"/><path d="M696.903,185.135l-5.64,0l0,-0.776c0,-0.65 0.528,-1.179 1.179,-1.179l3.282,0c0.651,0 1.179,0.529 1.179,1.179l0,0.776Z" style="fill:#23253c;fill-rule:nonzero;"/><path d="M715.405,185.135l-5.64,0l0,-0.776c0,-0.65 0.528,-1.179 1.179,-1.179l3.282,0c0.651,0 1.179,0.529 1.179,1.179l0,0.776Z" style="fill:#23253c;fill-rule:nonzero;"/><rect x="666.751" y="220.027" width="72.73" height="2.214" style="fill:#afbbc7;"/><rect x="666.751" y="253.869" width="72.73" height="2.214" style="fill:#afbbc7;"/><path d="M667.66,212.485c-0.495,0 -0.897,-0.4 -0.897,-0.895l0,-20.219c0,-0.599 0.074,-1.183 0.224,-1.737c0.781,-3.17 3.623,-5.395 6.911,-5.395l58.587,0c3.933,0 7.136,3.199 7.136,7.132l0,19.572c0,0.495 -0.403,0.896 -0.898,0.896c-0.494,0 -0.898,-0.401 -0.898,-0.896l0,-19.572c0,-2.945 -2.393,-5.34 -5.34,-5.34l-58.587,0c-2.461,0 -4.588,1.666 -5.176,4.049c-0.111,0.42 -0.164,0.849 -0.164,1.291l0,20.219c0,0.495 -0.403,0.895 -0.898,0.895Z" style="fill-rule:nonzero;"/><path d="M643.766,276.254c0,0.417 0.132,0.792 0.237,1.175c-0.37,0.232 -0.785,0.397 -1.246,0.397l-1.857,0.041l0,5.009l3.183,-0c0.745,-0 1.422,-0.216 2.004,-0.595l0.015,0c0.107,-0.081 0.202,-0.163 0.296,-0.244l1.597,-1.282c0.118,0.009 0.22,0.069 0.341,0.069c2.524,0 4.569,-2.046 4.569,-4.57c0,-2.524 -2.045,-4.57 -4.569,-4.57c-2.524,-0 -4.57,2.046 -4.57,4.57Z" style="fill:#282a41;fill-rule:nonzero;"/><path d="M631.958,298.079l-90.128,0c-4.866,0 -8.81,-3.946 -8.81,-8.812l0,-17.774c0,-4.866 3.944,-8.812 8.81,-8.812l90.128,0c4.866,0 8.811,3.946 8.811,8.812l0,17.774c0,4.866 -3.945,8.812 -8.811,8.812Z" style="fill:#301d6e;fill-rule:nonzero;"/><rect x="531.761" y="277.742" width="109.795" height="1.451" style="fill:#bcb4d5;"/><rect x="531.761" y="280.117" width="109.795" height="1.45" style="fill:#bcb4d5;"/><path d="M540.727,298.079l-10.061,0c-0.764,0 -1.382,-0.619 -1.382,-1.383l0,-0.014c0,-0.763 0.618,-1.382 1.382,-1.382l10.061,0l0,2.779Z" style="fill:#282a41;fill-rule:nonzero;"/><rect x="552.288" y="275.727" width="4.483" height="8.037" style="fill:#bcb4d5;"/><rect x="613.084" y="275.727" width="4.483" height="8.037" style="fill:#bcb4d5;"/><path d="M607.3,210.509c-2.801,-2.216 -5.859,-3.176 -9.299,-3.176c-6.307,-0 -11.517,2.665 -15.614,9.827l4.288,2.205c2.468,-5.368 7.428,-8.527 11.326,-8.527c3.529,0 7.564,2.48 10.094,7.458c0.384,0.752 -0.042,2.049 0.309,2.898l4.514,-0.864l-0,-3.09c-1.769,-2.945 -3.625,-5.153 -5.618,-6.731Z" style="fill:#bc4f59;fill-rule:nonzero;"/><path d="M625.636,262.681l-54.774,0c-3.337,0 -5.914,-2.928 -5.482,-6.242l0.176,-1.36l3.137,-23.921c0.384,-2.961 2.913,-5.187 5.907,-5.187l47.297,0c2.986,0 5.515,2.226 5.907,5.187l3.305,25.281c0.433,3.314 -2.144,6.242 -5.473,6.242Z" style="fill:#d85b66;fill-rule:nonzero;"/><rect x="582.389" y="227.076" width="5.62" height="35.605" style="fill:#bc4f59;"/><path d="M588.009,223.287l-5.62,-0l0,-6.122c1.919,-3.285 3.785,-5.342 5.62,-6.685l0,12.807Z" style="fill:#bc4f59;fill-rule:nonzero;"/><path d="M581.889,223.71c-0.118,-0 -0.213,0.091 -0.213,0.204l0,2.674c0,0.043 0.018,0.089 0.047,0.122c0.047,0.058 0.1,0.082 0.166,0.082l6.195,-0c0.114,-0 0.204,-0.09 0.204,-0.204l-0,-2.674c-0,-0.063 -0.031,-0.125 -0.083,-0.162c-0.03,-0.024 -0.06,-0.042 -0.121,-0.042l-6.195,-0Zm6.195,3.649l-6.195,-0c-0.24,-0 -0.457,-0.103 -0.6,-0.284c-0.11,-0.121 -0.181,-0.304 -0.181,-0.487l-0,-2.674c-0,-0.425 0.351,-0.771 0.781,-0.771l6.195,-0c0.177,-0 0.334,0.053 0.465,0.157c0.189,0.139 0.306,0.371 0.306,0.614l-0,2.674c-0,0.424 -0.345,0.771 -0.771,0.771Z" style="fill:#d85b66;fill-rule:nonzero;"/><rect x="607.299" y="227.076" width="5.62" height="35.605" style="fill:#bc4f59;"/><path d="M612.918,217.168l0,6.115l-5.618,0l0,-12.806c1.833,1.345 3.697,3.402 5.618,6.691Z" style="fill:#bc4f59;fill-rule:nonzero;"/><path d="M607.224,223.71c-0.061,-0 -0.091,0.018 -0.111,0.034c-0.062,0.045 -0.093,0.107 -0.093,0.17l-0,2.674c-0,0.117 0.087,0.204 0.204,0.204l6.195,-0c0.064,-0 0.119,-0.025 0.153,-0.068c0.041,-0.047 0.059,-0.093 0.059,-0.136l-0,-2.674c-0,-0.113 -0.095,-0.204 -0.212,-0.204l-6.195,0Zm6.195,3.649l-6.195,0c-0.426,0 -0.772,-0.347 -0.772,-0.771l0,-2.674c0,-0.244 0.118,-0.477 0.317,-0.62c0.12,-0.098 0.277,-0.151 0.455,-0.151l6.195,0c0.43,0 0.779,0.346 0.779,0.771l-0,2.674c-0,0.183 -0.07,0.366 -0.192,0.502c-0.131,0.166 -0.35,0.269 -0.587,0.269Z" style="fill:#d85b66;fill-rule:nonzero;"/><rect x="588.009" y="236.784" width="19.291" height="1.4" style="fill:#bc4f59;"/><path d="M571.75,260.081l0,2.6l-0.888,-0c-3.337,-0 -5.914,-2.928 -5.482,-6.242l0.176,-1.36l1.193,0c2.76,0 5.001,2.24 5.001,5.002Z" style="fill:#bc4f59;fill-rule:nonzero;"/><path d="M624.738,260.081l0,2.6l0.889,-0c3.338,-0 5.915,-2.928 5.482,-6.242l-0.176,-1.36l-1.193,0c-2.761,0 -5.002,2.24 -5.002,5.002Z" style="fill:#bc4f59;fill-rule:nonzero;"/><path d="M461.979,289.22c0,-0.111 0,-0.211 0.012,-0.322l-5.158,0c-0.038,0.322 -0.062,0.646 -0.062,0.982c0,2.697 1.33,5.071 3.368,6.512l0,-3.604l3.617,-0c-1.081,-0.821 -1.777,-2.113 -1.777,-3.568Z" style="fill:#13114e;fill-rule:nonzero;"/><path d="M458.044,295.645c0,-2.438 1.977,-4.415 4.414,-4.415c2.439,0 4.416,1.977 4.416,4.415c0,2.439 -1.977,4.415 -4.416,4.415c-2.437,0 -4.414,-1.976 -4.414,-4.415Z" style="fill:#13114e;fill-rule:nonzero;"/><path d="M459.973,295.645c0,-1.373 1.113,-2.485 2.485,-2.485c1.374,0 2.487,1.112 2.487,2.485c-0,1.373 -1.113,2.487 -2.487,2.487c-1.372,0 -2.485,-1.114 -2.485,-2.487Z" style="fill:#fff;fill-rule:nonzero;"/><path d="M506.913,292.788l3.617,0l-0,3.604c2.038,-1.441 3.368,-3.815 3.368,-6.512c0,-0.336 -0.024,-0.66 -0.062,-0.982l-5.158,0c0.012,0.111 0.012,0.211 0.012,0.322c0,1.455 -0.696,2.747 -1.777,3.568Z" style="fill:#13114e;fill-rule:nonzero;"/><path d="M512.625,295.645c0,-2.438 -1.976,-4.415 -4.415,-4.415c-2.438,0 -4.415,1.977 -4.415,4.415c0,2.439 1.977,4.415 4.415,4.415c2.439,0 4.415,-1.976 4.415,-4.415Z" style="fill:#13114e;fill-rule:nonzero;"/><path d="M510.696,295.645c0,-1.373 -1.113,-2.485 -2.486,-2.485c-1.373,0 -2.486,1.112 -2.486,2.485c0,1.373 1.113,2.487 2.486,2.487c1.373,0 2.486,-1.114 2.486,-2.487Z" style="fill:#fff;fill-rule:nonzero;"/><path d="M523.025,199.472l0,76.455c0,2.127 -0.448,4.138 -1.258,5.947c-2.272,5.122 -7.409,8.696 -13.384,8.696l-45.651,-0c-5.975,-0 -11.111,-3.574 -13.383,-8.696c-0.81,-1.809 -1.259,-3.82 -1.259,-5.947l0,-76.455c0,-8.073 6.555,-14.628 14.642,-14.628l45.651,-0c8.088,-0 14.642,6.555 14.642,14.628Z" style="fill:#ffc412;fill-rule:nonzero;"/><path d="M452.81,278.494c-0.55,-0 -0.996,-0.445 -0.996,-0.995l0,-81.993c0,-0.55 0.446,-0.996 0.996,-0.996c0.549,-0 0.994,0.446 0.994,0.996l-0,81.993c-0,0.55 -0.445,0.995 -0.994,0.995Z" style="fill:#d69c42;fill-rule:nonzero;"/><path d="M457.813,278.494c-0.549,-0 -0.995,-0.445 -0.995,-0.995l0,-81.993c0,-0.55 0.446,-0.996 0.995,-0.996c0.55,-0 0.995,0.446 0.995,0.996l0,81.993c0,0.55 -0.445,0.995 -0.995,0.995Z" style="fill:#d69c42;fill-rule:nonzero;"/><path d="M462.817,278.494c-0.549,-0 -0.995,-0.445 -0.995,-0.995l0,-81.993c0,-0.55 0.446,-0.996 0.995,-0.996c0.549,-0 0.995,0.446 0.995,0.996l0,81.993c0,0.55 -0.446,0.995 -0.995,0.995Z" style="fill:#d69c42;fill-rule:nonzero;"/><path d="M467.821,278.494c-0.55,-0 -0.995,-0.445 -0.995,-0.995l0,-81.993c0,-0.55 0.445,-0.996 0.995,-0.996c0.549,-0 0.995,0.446 0.995,0.996l-0,81.993c-0,0.55 -0.446,0.995 -0.995,0.995Z" style="fill:#d69c42;fill-rule:nonzero;"/><path d="M472.825,278.494c-0.55,-0 -0.995,-0.445 -0.995,-0.995l0,-81.993c0,-0.55 0.445,-0.996 0.995,-0.996c0.549,-0 0.994,0.446 0.994,0.996l0,81.993c0,0.55 -0.445,0.995 -0.994,0.995Z" style="fill:#d69c42;fill-rule:nonzero;"/><path d="M477.829,278.494c-0.55,-0 -0.995,-0.445 -0.995,-0.995l0,-81.993c0,-0.55 0.445,-0.996 0.995,-0.996c0.549,-0 0.994,0.446 0.994,0.996l-0,81.993c-0,0.55 -0.445,0.995 -0.994,0.995Z" style="fill:#d69c42;fill-rule:nonzero;"/><path d="M482.833,278.494c-0.55,-0 -0.995,-0.445 -0.995,-0.995l0,-81.993c0,-0.55 0.445,-0.996 0.995,-0.996c0.549,-0 0.994,0.446 0.994,0.996l-0,81.993c-0,0.55 -0.445,0.995 -0.994,0.995Z" style="fill:#d69c42;fill-rule:nonzero;"/><path d="M487.836,278.494c-0.549,-0 -0.994,-0.445 -0.994,-0.995l0,-81.993c0,-0.55 0.445,-0.996 0.994,-0.996c0.55,-0 0.995,0.446 0.995,0.996l0,81.993c0,0.55 -0.445,0.995 -0.995,0.995Z" style="fill:#d69c42;fill-rule:nonzero;"/><path d="M492.84,278.494c-0.549,-0 -0.994,-0.445 -0.994,-0.995l0,-81.993c0,-0.55 0.445,-0.996 0.994,-0.996c0.55,-0 0.995,0.446 0.995,0.996l0,81.993c0,0.55 -0.445,0.995 -0.995,0.995Z" style="fill:#d69c42;fill-rule:nonzero;"/><path d="M497.844,278.494c-0.55,-0 -0.995,-0.445 -0.995,-0.995l0,-81.993c0,-0.55 0.445,-0.996 0.995,-0.996c0.549,-0 0.995,0.446 0.995,0.996l0,81.993c0,0.55 -0.446,0.995 -0.995,0.995Z" style="fill:#d69c42;fill-rule:nonzero;"/><path d="M502.848,278.494c-0.549,-0 -0.994,-0.445 -0.994,-0.995l0,-81.993c0,-0.55 0.445,-0.996 0.994,-0.996c0.549,-0 0.995,0.446 0.995,0.996l-0,81.993c-0,0.55 -0.446,0.995 -0.995,0.995Z" style="fill:#d69c42;fill-rule:nonzero;"/><path d="M507.852,278.494c-0.549,-0 -0.995,-0.445 -0.995,-0.995l-0,-81.993c-0,-0.55 0.446,-0.996 0.995,-0.996c0.549,-0 0.995,0.446 0.995,0.996l-0,81.993c-0,0.55 -0.446,0.995 -0.995,0.995Z" style="fill:#d69c42;fill-rule:nonzero;"/><path d="M513.018,278.494c-0.55,-0 -0.995,-0.445 -0.995,-0.995l0,-81.993c0,-0.55 0.445,-0.996 0.995,-0.996c0.549,-0 0.994,0.446 0.994,0.996l-0,81.993c-0,0.55 -0.445,0.995 -0.994,0.995Z" style="fill:#d69c42;fill-rule:nonzero;"/><path d="M518.021,278.494c-0.549,-0 -0.994,-0.445 -0.994,-0.995l0,-81.993c0,-0.55 0.445,-0.996 0.994,-0.996c0.55,-0 0.995,0.446 0.995,0.996l0,81.993c0,0.55 -0.445,0.995 -0.995,0.995Z" style="fill:#d69c42;fill-rule:nonzero;"/><path d="M521.839,281.874c-2.272,5.122 -7.408,8.696 -13.384,8.696l-3.834,-0l-0,-3.212c-0,-3.024 2.459,-5.484 5.483,-5.484l11.735,-0Z" style="fill:#13114e;fill-rule:nonzero;"/><path d="M449.276,281.874c2.272,5.122 7.409,8.696 13.384,8.696l3.835,-0l0,-3.212c0,-3.024 -2.46,-5.484 -5.484,-5.484l-11.735,-0Z" style="fill:#13114e;fill-rule:nonzero;"/><path d="M498.813,178.367c-4.118,-1.226 -8.467,-1.923 -12.96,-2.041c0,0 -0.259,-0.02 -0.39,-0.018c-0.13,-0.002 -0.389,0.018 -0.389,0.018c-4.493,0.118 -8.843,0.815 -12.959,2.041c-1.098,0.327 -1.682,1.52 -1.235,2.574l1.455,3.429c0.151,0.356 0.5,0.588 0.888,0.588l2.828,0c0.532,0 0.964,-0.433 0.964,-0.965l0,-0.969c0,-0.871 0.616,-1.635 1.474,-1.789c2.272,-0.407 4.599,-0.651 6.974,-0.704c2.376,0.053 4.703,0.297 6.975,0.704c0.858,0.154 1.474,0.918 1.474,1.789l0,0.969c0,0.532 0.432,0.965 0.963,0.965l2.83,0c0.386,0 0.735,-0.232 0.886,-0.588l1.456,-3.429c0.448,-1.054 -0.138,-2.247 -1.234,-2.574Z" style="fill:#13114e;fill-rule:nonzero;"/><path d="M497.63,179.85c-3.631,-0.955 -8.819,-1.578 -12.139,-1.592c-4.227,-0.017 -8.349,0.651 -12.241,1.75c0.072,-0.608 0.506,-1.055 1.143,-1.257c3.415,-1.014 7.336,-1.683 11.07,-1.694c3.43,-0.009 7.667,0.68 11.081,1.694c0.55,0.173 0.941,0.592 1.086,1.099Z" style="fill:#fff;fill-rule:nonzero;"/><path d="M407.782,241.022l-40.879,0l0.004,-7.706l35.873,-0l5.002,7.706Z" style="fill:#e3aa54;fill-rule:nonzero;"/><rect x="354.217" y="249.325" width="60.929" height="46.811" style="fill:#6a93cb;"/><path d="M366.903,285.755l0,-52.442l-7.706,11.882l0,40.666l7.706,-0.106Z" style="fill:#f4bf6e;fill-rule:nonzero;"/><path d="M410.486,245.191l0,40.668l-7.706,-0.109l0,-52.434l5.002,7.706l2.704,4.169Z" style="fill:#f4bf6e;fill-rule:nonzero;"/><path d="M415.141,280.838l0,15.301l-60.922,0l0,-15.311c8.32,6.734 18.927,10.756 30.466,10.756c11.539,-0 22.127,-4.022 30.456,-10.746Z" style="fill:#4479c2;fill-rule:nonzero;"/><path d="M409.905,293.564l-49.966,0l0,-17.58c0,-8.251 6.689,-14.939 14.939,-14.939l20.088,0c8.25,0 14.939,6.688 14.939,14.939l-0,17.58Z" style="fill:#6a93cb;fill-rule:nonzero;"/><path d="M360.641,292.862l48.562,0l-0,-16.878c-0,-7.851 -6.387,-14.237 -14.237,-14.237l-20.088,0c-7.85,0 -14.237,6.386 -14.237,14.237l0,16.878Zm49.965,1.405l-51.368,0l0,-18.283c0,-8.624 7.016,-15.642 15.64,-15.642l20.088,0c8.624,0 15.64,7.018 15.64,15.642l0,18.283Z" style="fill:#4479c2;fill-rule:nonzero;"/><rect x="366.635" y="252.661" width="36.146" height="1.404" style="fill:#4479c2;"/><path d="M355.101,297.534l-12.707,0c-2.822,0 -5.11,-2.287 -5.11,-5.109l0,-29.693c0,-8.177 6.629,-14.806 14.805,-14.806l3.012,-0l0,49.608Z" style="fill:#6a93cb;fill-rule:nonzero;"/><path d="M432.137,262.732l0,29.693c0,2.823 -2.288,5.111 -5.111,5.111l-12.707,0l0,-49.611l3.011,0c4.863,0 9.181,2.347 11.875,5.962c0.307,0.407 0.585,0.823 0.842,1.258c1.327,2.219 2.09,4.814 2.09,7.587Z" style="fill:#6a93cb;fill-rule:nonzero;"/><rect x="354.399" y="247.927" width="1.404" height="49.607" style="fill:#4479c2;"/><rect x="413.618" y="247.927" width="1.404" height="49.607" style="fill:#4479c2;"/><path d="M339.373,255.145l15.144,22.572l0.584,-0.386l0.584,-0.396l-0.584,-0.872l-14.886,-22.176l-0.842,1.258Z" style="fill:#4479c2;fill-rule:nonzero;"/><path d="M430.047,255.145l-15.144,22.572l-0.584,-0.386l-0.584,-0.396l0.584,-0.872l14.886,-22.176c0.307,0.407 0.585,0.823 0.842,1.258Z" style="fill:#4479c2;fill-rule:nonzero;"/><path d="M384.255,255.633l-0.765,-0c-0.183,-0 -0.332,-0.148 -0.332,-0.332l0,-0.764c0,-0.184 0.149,-0.332 0.332,-0.332l0.765,-0c0.183,-0 0.332,0.148 0.332,0.332l0,0.764c0,0.184 -0.149,0.332 -0.332,0.332Z" style="fill:#fff;fill-rule:nonzero;"/><path d="M384.255,259.326l-0.765,0c-0.183,0 -0.332,-0.149 -0.332,-0.332l0,-2.897c0,-0.183 0.149,-0.332 0.332,-0.332l0.765,-0c0.183,-0 0.332,0.149 0.332,0.332l0,2.897c0,0.183 -0.149,0.332 -0.332,0.332Z" style="fill:#fff;fill-rule:nonzero;"/><path d="M387.866,255.633l-0.765,-0c-0.184,-0 -0.332,-0.148 -0.332,-0.332l0,-0.764c0,-0.184 0.148,-0.332 0.332,-0.332l0.765,-0c0.183,-0 0.332,0.148 0.332,0.332l0,0.764c0,0.184 -0.149,0.332 -0.332,0.332Z" style="fill:#fff;fill-rule:nonzero;"/><path d="M387.866,259.326l-0.765,0c-0.184,0 -0.332,-0.149 -0.332,-0.332l0,-2.897c0,-0.183 0.148,-0.332 0.332,-0.332l0.765,-0c0.183,-0 0.332,0.149 0.332,0.332l0,2.897c0,0.183 -0.149,0.332 -0.332,0.332Z" style="fill:#fff;fill-rule:nonzero;"/><path d="M421.1,270.792l-0.765,-0c-0.184,-0 -0.333,-0.149 -0.333,-0.332l0,-0.765c0,-0.184 0.149,-0.332 0.333,-0.332l0.765,-0c0.183,-0 0.332,0.148 0.332,0.332l0,0.765c0,0.183 -0.149,0.332 -0.332,0.332Z" style="fill:#fff;fill-rule:nonzero;"/><path d="M421.1,274.484l-0.765,0c-0.184,0 -0.333,-0.149 -0.333,-0.333l0,-2.896c0,-0.183 0.149,-0.332 0.333,-0.332l0.765,0c0.183,0 0.332,0.149 0.332,0.332l0,2.896c0,0.184 -0.149,0.333 -0.332,0.333Z" style="fill:#fff;fill-rule:nonzero;"/><path d="M349.186,270.792l-0.765,-0c-0.184,-0 -0.332,-0.149 -0.332,-0.332l-0,-0.765c-0,-0.184 0.148,-0.332 0.332,-0.332l0.765,-0c0.183,-0 0.332,0.148 0.332,0.332l-0,0.765c-0,0.183 -0.149,0.332 -0.332,0.332Z" style="fill:#fff;fill-rule:nonzero;"/><path d="M349.186,274.484l-0.765,0c-0.184,0 -0.332,-0.149 -0.332,-0.333l-0,-2.896c-0,-0.183 0.148,-0.332 0.332,-0.332l0.765,0c0.183,0 0.332,0.149 0.332,0.332l-0,2.896c-0,0.184 -0.149,0.333 -0.332,0.333Z" style="fill:#fff;fill-rule:nonzero;"/><path d="M320.307,269.349l0,-12.787c0,-3.696 -2.993,-6.689 -6.676,-6.689l-33.703,-0l0,4.662l32.627,-0c1.324,-0 2.414,1.076 2.414,2.414l0,12.014c0,1.338 -1.09,2.414 -2.414,2.414l-32.627,0l0,4.662l33.703,0c3.683,0 6.676,-2.993 6.676,-6.69Z" style="fill:#b0bcc8;fill-rule:nonzero;"/><path d="M301.29,296.085l-70.61,0c-4.041,0 -7.586,-2.097 -9.614,-5.269c-1.145,-1.78 -1.793,-3.877 -1.793,-6.139l0,-43.394c0,-6.29 5.104,-11.407 11.407,-11.407l70.61,0c6.304,0 11.421,5.117 11.421,11.407l0,43.394c0,0.428 -0.027,0.856 -0.068,1.27c-0.635,5.71 -5.476,10.138 -11.353,10.138Z" style="fill:#d85b66;fill-rule:nonzero;"/><path d="M221.19,290.83c-0.041,0 -0.082,-0.014 -0.124,-0.014c-1.145,-1.78 -1.793,-3.877 -1.793,-6.139l0,-5.186c1.145,0.635 1.917,1.849 1.917,3.256l0,8.083Z" style="fill:#282a41;fill-rule:nonzero;"/><path d="M221.19,235.072c-0.041,0 -0.082,0.014 -0.124,0.014c-1.145,1.779 -1.793,3.876 -1.793,6.137l0,5.187c1.145,-0.634 1.917,-1.848 1.917,-3.255l0,-8.083Z" style="fill:#282a41;fill-rule:nonzero;"/><path d="M216.02,282.849l0,4.87c0,1.131 0.916,2.048 2.047,2.048l2.608,0l0,-8.966l-2.608,0c-1.131,0 -2.047,0.917 -2.047,2.048Z" style="fill:#282a41;fill-rule:nonzero;"/><path d="M216.303,287.859c0.107,0 0.201,0 0.308,0.012l0,-4.917c-0.308,-0.035 -0.616,-0.06 -0.936,-0.06c-2.571,0 -4.835,1.269 -6.209,3.212l3.436,0l0,3.448c0.782,-1.031 2.015,-1.695 3.401,-1.695Z" style="fill:#282a41;fill-rule:nonzero;"/><path d="M210.178,284.108c2.325,0 4.209,1.885 4.209,4.209c0,2.324 -1.884,4.209 -4.209,4.209c-2.324,0 -4.209,-1.885 -4.209,-4.209c0,-2.324 1.885,-4.209 4.209,-4.209Z" style="fill:#282a41;fill-rule:nonzero;"/><path d="M210.178,285.947c1.309,0 2.37,1.061 2.37,2.37c0,1.309 -1.061,2.37 -2.37,2.37c-1.308,0 -2.369,-1.061 -2.369,-2.37c0,-1.309 1.061,-2.37 2.369,-2.37Z" style="fill:#fff;fill-rule:nonzero;"/><path d="M216.02,242.804l0,-4.871c0,-1.131 0.916,-2.048 2.047,-2.048l2.608,0l0,8.966l-2.608,0c-1.131,0 -2.047,-0.916 -2.047,-2.047Z" style="fill:#282a41;fill-rule:nonzero;"/><path d="M212.902,236.099l-0,3.449l-3.436,-0c1.374,1.943 3.638,3.21 6.209,3.21c0.32,-0 0.628,-0.023 0.936,-0.059l-0,-4.917c-0.107,0.012 -0.201,0.012 -0.308,0.012c-1.386,-0 -2.619,-0.664 -3.401,-1.695Z" style="fill:#282a41;fill-rule:nonzero;"/><path d="M210.178,241.545c2.325,0 4.209,-1.884 4.209,-4.209c0,-2.325 -1.884,-4.209 -4.209,-4.209c-2.324,0 -4.209,1.884 -4.209,4.209c0,2.325 1.885,4.209 4.209,4.209Z" style="fill:#282a41;fill-rule:nonzero;"/><path d="M210.178,239.706c1.309,0 2.37,-1.061 2.37,-2.37c0,-1.309 -1.061,-2.369 -2.37,-2.369c-1.308,-0 -2.369,1.06 -2.369,2.369c0,1.309 1.061,2.37 2.369,2.37Z" style="fill:#fff;fill-rule:nonzero;"/><path d="M301.29,296.085l-1.172,0l0,-5.532c0,-2.538 2.069,-4.606 4.607,-4.606l7.918,0c-0.635,5.71 -5.476,10.138 -11.353,10.138Z" style="fill:#23253c;fill-rule:nonzero;"/><path d="M301.29,229.876l-1.172,-0l0,5.53c0,2.538 2.069,4.607 4.607,4.607l7.918,-0c-0.635,-5.71 -5.476,-10.137 -11.353,-10.137Z" style="fill:#23253c;fill-rule:nonzero;"/><path d="M219.273,254.364l0,-1.897l70.931,-0c0.524,-0 0.948,0.424 0.948,0.949c0,0.523 -0.424,0.948 -0.948,0.948l-70.931,-0Z" style="fill:#bc4f59;fill-rule:nonzero;"/><path d="M219.273,259.133l0,-1.896l70.931,0c0.524,0 0.948,0.425 0.948,0.948c0,0.525 -0.424,0.948 -0.948,0.948l-70.931,0Z" style="fill:#bc4f59;fill-rule:nonzero;"/><path d="M219.273,263.904l0,-1.896l70.931,0c0.524,0 0.948,0.424 0.948,0.948c0,0.523 -0.424,0.948 -0.948,0.948l-70.931,0Z" style="fill:#bc4f59;fill-rule:nonzero;"/><path d="M219.273,268.675l0,-1.897l70.931,0c0.524,0 0.948,0.425 0.948,0.948c0,0.524 -0.424,0.949 -0.948,0.949l-70.931,0Z" style="fill:#bc4f59;fill-rule:nonzero;"/><path d="M219.273,273.445l0,-1.896l70.931,0c0.524,0 0.948,0.423 0.948,0.948c0,0.523 -0.424,0.948 -0.948,0.948l-70.931,0Z" style="fill:#bc4f59;fill-rule:nonzero;"/><path d="M315.176,279.285l0,-32.658c0,-1.362 -1.104,-2.465 -2.465,-2.465l0,37.588c1.361,0 2.465,-1.104 2.465,-2.465Z" style="fill:#23253c;fill-rule:nonzero;"/><path d="M296.443,230.003c0,-1.362 -1.104,-2.465 -2.464,-2.465l-56.108,0c-1.362,0 -2.465,1.103 -2.465,2.465l61.037,-0Z" style="fill:#23253c;fill-rule:nonzero;"/><path d="M232.184,294.136l0,1.949l62.071,-0l0,-1.949c0,-5.538 -4.489,-10.028 -10.028,-10.028l-42.015,0c-5.538,0 -10.028,4.49 -10.028,10.028Z" style="fill:#bc4f59;fill-rule:nonzero;"/><path d="M232.184,232.059l0,-1.948l62.071,0l0,1.948c0,5.538 -4.489,10.029 -10.028,10.029l-42.015,0c-5.538,0 -10.028,-4.491 -10.028,-10.029Z" style="fill:#bc4f59;fill-rule:nonzero;"/><path d="M174.195,236.574l0,55.538c0,2.021 -1.623,3.643 -3.643,3.643l-100.386,0c-2.021,0 -3.659,-1.622 -3.659,-3.643l0,-55.538c0,-2.021 1.638,-3.659 3.659,-3.659l100.386,0c2.02,0 3.643,1.638 3.643,3.659Z" style="fill:#ffc412;fill-rule:nonzero;"/><rect x="67.477" y="243.26" width="105.596" height="1.591" style="fill:#bd7e1c;"/><rect x="67.477" y="285.42" width="105.596" height="1.59" style="fill:#bd7e1c;"/><path d="M81.971,232.915l-8.115,7.159l-7.349,6.49l0,-9.99c0,-2.021 1.638,-3.659 3.659,-3.659l11.805,0Z" style="fill:#d69838;fill-rule:nonzero;"/><path d="M81.971,295.755l-8.115,-7.159l-7.349,-6.491l0,9.99c0,2.021 1.638,3.66 3.659,3.66l11.805,-0Z" style="fill:#d69838;fill-rule:nonzero;"/><path d="M158.731,232.915l8.114,7.159l7.35,6.49l0,-9.99c0,-2.021 -1.638,-3.659 -3.659,-3.659l-11.805,0Z" style="fill:#d69838;fill-rule:nonzero;"/><path d="M158.731,295.755l8.114,-7.159l7.35,-6.491l0,9.99c0,2.021 -1.638,3.66 -3.659,3.66l-11.805,-0Z" style="fill:#d69838;fill-rule:nonzero;"/><path d="M91.309,230.564l0.085,0c1.322,0 2.394,1.071 2.394,2.394l0,62.797l-4.872,0l0,-62.797c0,-1.323 1.071,-2.394 2.393,-2.394Z" style="fill:#bd7e1c;fill-rule:nonzero;"/><path d="M100.234,263.953l-0,4.63l-6.316,-0c-0.572,-0.812 -1.511,-1.337 -2.561,-1.337c-1.066,-0 -2.004,0.525 -2.561,1.337l-6.332,-0l0,-4.63l6.411,-0c0.557,0.764 1.464,1.241 2.482,1.241c1.002,0 1.909,-0.477 2.482,-1.241l6.395,-0Z" style="fill:#d69838;fill-rule:nonzero;"/><path d="M149.807,230.564l0.085,0c1.321,0 2.393,1.071 2.393,2.394l-0,62.797l-4.872,0l0,-62.797c0,-1.323 1.071,-2.394 2.394,-2.394Z" style="fill:#bd7e1c;fill-rule:nonzero;"/><path d="M158.731,263.953l0,4.63l-6.315,-0c-0.573,-0.812 -1.512,-1.337 -2.562,-1.337c-1.065,-0 -2.004,0.525 -2.561,1.337l-6.332,-0l0,-4.63l6.412,-0c0.556,0.764 1.463,1.241 2.481,1.241c1.002,0 1.91,-0.477 2.482,-1.241l6.395,-0Z" style="fill:#d69838;fill-rule:nonzero;"/><rect x="110.101" y="226.292" width="1.59" height="6.622" style="fill:#d69838;"/><rect x="127.666" y="226.292" width="1.591" height="6.622" style="fill:#d69838;"/><path d="M129.456,226.292l-19.09,-0c-0.952,-0 -1.724,-0.773 -1.724,-1.724l0,-0.332c0,-0.952 0.772,-1.724 1.724,-1.724l19.09,-0c0.952,-0 1.724,0.772 1.724,1.724l0,0.332c0,0.951 -0.772,1.724 -1.724,1.724Z" style="fill:#f4bf6e;fill-rule:nonzero;"/><path d="M119.116,238.885c0,-0.951 0.771,-1.723 1.723,-1.723c0.952,0 1.724,0.772 1.724,1.723c-0,0.953 -0.772,1.724 -1.724,1.724c-0.952,0 -1.723,-0.771 -1.723,-1.724Z" style="fill:#f2c641;fill-rule:nonzero;"/><path d="M69.731,238.016c0,-0.952 0.771,-1.723 1.724,-1.723c0.951,0 1.723,0.771 1.723,1.723c0,0.951 -0.772,1.724 -1.723,1.724c-0.953,0 -1.724,-0.773 -1.724,-1.724Z" style="fill:#f4bf6e;fill-rule:nonzero;"/><path d="M167.373,238.016c0,-0.952 0.772,-1.723 1.723,-1.723c0.952,0 1.724,0.771 1.724,1.723c0,0.951 -0.772,1.724 -1.724,1.724c-0.951,0 -1.723,-0.773 -1.723,-1.724Z" style="fill:#f4bf6e;fill-rule:nonzero;"/><path d="M69.807,290.653c0,-0.951 0.771,-1.723 1.723,-1.723c0.952,0 1.723,0.772 1.723,1.723c0,0.952 -0.771,1.724 -1.723,1.724c-0.952,0 -1.723,-0.772 -1.723,-1.724Z" style="fill:#f4bf6e;fill-rule:nonzero;"/><path d="M167.448,290.653c0,-0.951 0.772,-1.723 1.724,-1.723c0.952,0 1.723,0.772 1.723,1.723c0,0.952 -0.771,1.724 -1.723,1.724c-0.952,0 -1.724,-0.772 -1.724,-1.724Z" style="fill:#f4bf6e;fill-rule:nonzero;"/><path d="M119.116,290.325c0,-0.952 0.771,-1.724 1.723,-1.724c0.952,0 1.724,0.772 1.724,1.724c-0,0.952 -0.772,1.724 -1.724,1.724c-0.952,0 -1.723,-0.772 -1.723,-1.724Z" style="fill:#f2c641;fill-rule:nonzero;"/></g></svg>
