<?xml version="1.0" encoding="UTF-8" standalone="no"?><!DOCTYPE svg PUBLIC "-//W3C//DTD SVG 1.1//EN" "http://www.w3.org/Graphics/SVG/1.1/DTD/svg11.dtd"><svg width="100%" height="100%" viewBox="0 0 4510 1332" version="1.1" xmlns="http://www.w3.org/2000/svg" xmlns:xlink="http://www.w3.org/1999/xlink" xml:space="preserve" xmlns:serif="http://www.serif.com/" style="fill-rule:evenodd;clip-rule:evenodd;stroke-linejoin:round;stroke-miterlimit:2;"><path d="M3467.22,292.066l-10.605,-0l0,-50.404l-42.745,-52.175l8.187,-6.725l45.163,55.112l-0,54.192Z" style="fill:#f5f5f5;fill-rule:nonzero;"/><path d="M3459.4,216.678l-19.204,18.146l-95.621,9.284l129.463,-122.38l-14.638,94.95Z" style="fill:#f5f5f5;fill-rule:nonzero;"/><rect x="3339.9" y="421.312" width="244.025" height="761.254" style="fill:#f5f5f5;fill-rule:nonzero;"/><path d="M3705.15,256.383l-29.404,63.533l-14.817,31.879l-18.412,40.183l-14.817,31.88l-18.629,40.183l-294.308,-0l-18.638,-40.183l-14.812,-31.88l-18.409,-40.183l-14.816,-31.879l-29.413,-63.533l486.475,-0Z" style="fill:#f5f5f5;fill-rule:nonzero;"/><path d="M3406.78,185.703l-16.521,-15.037l5.063,-5.563l16.521,15.034l-5.063,5.566Z" style="fill:#f5f5f5;fill-rule:nonzero;"/><path d="M3383.17,166.462c-0,-4.938 4.004,-8.942 8.937,-8.942c4.942,0 8.942,4.004 8.942,8.942c0,4.937 -4,8.941 -8.942,8.941c-4.933,0 -8.937,-4.004 -8.937,-8.941Z" style="fill:#f5f5f5;fill-rule:nonzero;"/><path d="M1456.46,806.424c0,-166.446 133.046,-301.375 297.163,-301.375c164.121,0 297.167,134.929 297.167,301.375c-0,166.442 -133.046,301.371 -297.167,301.371c-164.117,0 -297.163,-134.929 -297.163,-301.371Z" style="fill:#f5f5f5;fill-rule:nonzero;"/><path d="M1646.5,666.745l-3.225,48.192c-0.454,6.783 4.221,12.837 10.896,14.121l83.421,15.987c8.3,1.583 15.995,-4.775 15.995,-13.221l0,-47.458c0,-6.371 -4.47,-11.871 -10.712,-13.175l-80.2,-16.725c-8,-1.667 -15.629,4.125 -16.175,12.279Z" style="fill:#e5e5e5;fill-rule:nonzero;"/><path d="M1633.87,663.003l-5.45,54.071c-0.504,5.025 -4.6,8.929 -9.642,9.204l-52.512,2.863c-4.78,0.262 -9.1,-2.817 -10.417,-7.417l-3.75,-13.133c-0.979,-3.429 -0.108,-7.117 2.3,-9.742l38.254,-41.733c1.729,-1.888 4.104,-3.058 6.658,-3.288l23.463,-2.062c6.404,-0.567 11.742,4.842 11.096,11.237Z" style="fill:#e5e5e5;fill-rule:nonzero;"/><path d="M1870.28,666.745l3.225,48.192c0.454,6.783 -4.225,12.837 -10.9,14.121l-83.421,15.987c-8.3,1.583 -15.991,-4.775 -15.991,-13.221l-0,-47.458c-0,-6.371 4.47,-11.871 10.712,-13.175l80.196,-16.725c8.004,-1.667 15.633,4.125 16.179,12.279Z" style="fill:#e5e5e5;fill-rule:nonzero;"/><path d="M1882.9,663.003l5.454,54.071c0.504,5.025 4.596,8.929 9.642,9.204l52.512,2.863c4.78,0.262 9.1,-2.817 10.417,-7.417l3.75,-13.133c0.979,-3.429 0.108,-7.117 -2.3,-9.742l-38.254,-41.733c-1.729,-1.888 -4.108,-3.058 -6.658,-3.288l-23.463,-2.062c-6.408,-0.567 -11.742,4.842 -11.1,11.237Z" style="fill:#e5e5e5;fill-rule:nonzero;"/><path d="M1229.03,770.037l242.588,43.608l-0,-35.487l-241.921,-13.788c-3.575,-0.204 -4.196,5.025 -0.667,5.667Z" style="fill:#f5f5f5;fill-rule:nonzero;"/><path d="M628.212,789.003l894.696,68.605c4.088,0.312 7.567,3.104 8.759,7.033l39.912,131.725c2.184,7.204 -4.112,14.125 -11.487,12.629l-1026.87,-207.496c-6.671,-1.346 -10.046,-8.85 -6.629,-14.737c1.921,-3.309 5.562,-5.221 9.37,-4.921l92.25,7.162Z" style="fill:#f5f5f5;fill-rule:nonzero;"/><path d="M724.225,1018.66c-0,-97.592 79.112,-176.704 176.704,-176.704c97.588,-0 176.7,79.112 176.7,176.704c0,97.587 -79.112,176.7 -176.7,176.7c-97.592,-0 -176.704,-79.113 -176.704,-176.7Z" style="fill:#f5f5f5;fill-rule:nonzero;"/><path d="M785.446,1018.66c-0,-63.784 51.704,-115.488 115.483,-115.488c63.779,0 115.479,51.704 115.479,115.488c0,63.775 -51.7,115.479 -115.479,115.479c-63.779,-0 -115.483,-51.704 -115.483,-115.479Z" style="fill:#e5e5e5;fill-rule:nonzero;"/><path d="M2252.76,770.037l-242.591,43.608l-0,-35.487l241.92,-13.788c3.58,-0.204 4.196,5.025 0.671,5.667Z" style="fill:#f5f5f5;fill-rule:nonzero;"/><path d="M2853.57,789.003l-894.696,68.605c-4.092,0.312 -7.571,3.104 -8.758,7.033l-39.913,131.725c-2.183,7.204 4.113,14.125 11.488,12.629l1026.87,-207.496c6.675,-1.346 10.046,-8.85 6.629,-14.737c-1.916,-3.309 -5.558,-5.221 -9.366,-4.921l-92.25,7.162Z" style="fill:#f5f5f5;fill-rule:nonzero;"/><path d="M2757.55,1018.66c0,-97.592 -79.112,-176.704 -176.7,-176.704c-97.592,-0 -176.7,79.112 -176.7,176.704c0,97.587 79.108,176.7 176.7,176.7c97.588,-0 176.7,-79.113 176.7,-176.7Z" style="fill:#f5f5f5;fill-rule:nonzero;"/><path d="M2696.34,1018.66c0,-63.784 -51.704,-115.488 -115.483,-115.488c-63.779,0 -115.483,51.704 -115.483,115.488c-0,63.775 51.704,115.479 115.483,115.479c63.779,-0 115.483,-51.704 115.483,-115.479Z" style="fill:#e5e5e5;fill-rule:nonzero;"/><path d="M1633.55,112.098l29.53,10.43l341.208,6.729c-0,-0 104.083,-87.125 126.525,-100.146c22.442,-13.021 53.15,-33.15 59.058,-28.4c1.35,1.087 3.463,2.254 5.921,3.408c11.288,5.309 15.708,19.021 9.863,30.038c-7.688,14.487 -19.05,32.658 -32.321,43.8c-24.804,20.812 -76.279,66.783 -76.279,66.783l97.541,71.017l34.254,21.175l-21.262,10.662l-139.375,-31.837l-43.7,-0c-0,-0 -24.808,17.808 -47.25,14.191c1.179,-0.07 -42.913,46.388 -101.579,60.034c2.362,3.679 22.446,22.087 22.446,22.087l-8.267,10.925l-63.788,-15.075l-27.162,4.15l1.179,-14.954l-102.762,-7.933c-0,-0 3.545,-7.913 24.808,-12.938c21.258,-5.025 82.204,-6.091 82.204,-6.091l-18.029,-54.45l18.129,-14.275l41.196,28.941c6.658,4.675 15.492,4.825 22.3,0.379l37.704,-24.625l12.563,-17.587l-276.388,-54.471l-16.533,-17.271l8.266,-4.696Z" style="fill:#f5f5f5;fill-rule:nonzero;"/><rect x="9.058" y="1167.1" width="4500.36" height="160.354" style="fill:#dde9ff;fill-rule:nonzero;"/><rect x="0" y="1190.14" width="4509.42" height="106.417" style="fill:#f5f5f5;fill-rule:nonzero;"/><rect x="0" y="1296.56" width="4509.42" height="34.804" style="fill:#b4bfd4;fill-rule:nonzero;"/><rect x="1.658" y="1175.41" width="4507.76" height="39.904" style="fill:#b4bfd4;fill-rule:nonzero;"/><path d="M2640.47,1213.86l82.308,-0l139.258,-37l-81.474,-0l-140.092,37Z" style="fill:#8691a6;fill-rule:nonzero;"/><path d="M2788.25,1213.86l82.304,-0l139.254,-37l-81.47,-0l-140.088,37Z" style="fill:#8691a6;fill-rule:nonzero;"/><path d="M2934.78,1213.86l82.309,-0l139.254,-37l-81.475,-0l-140.088,37Z" style="fill:#8691a6;fill-rule:nonzero;"/><path d="M3082.56,1213.86l82.309,-0l139.258,-37l-81.475,-0l-140.092,37Z" style="fill:#8691a6;fill-rule:nonzero;"/><path d="M2049.62,1213.86l82.308,-0l139.254,-37l-81.475,-0l-140.087,37Z" style="fill:#8691a6;fill-rule:nonzero;"/><path d="M2197.4,1213.86l82.308,-0l139.259,-37l-81.479,-0l-140.088,37Z" style="fill:#8691a6;fill-rule:nonzero;"/><path d="M2343.93,1213.86l82.308,-0l139.259,-37l-81.475,-0l-140.092,37Z" style="fill:#8691a6;fill-rule:nonzero;"/><path d="M2491.71,1213.86l82.309,-0l139.254,-37l-81.475,-0l-140.088,37Z" style="fill:#8691a6;fill-rule:nonzero;"/><path d="M1455.18,1213.86l82.305,-0l139.258,-37l-81.475,-0l-140.088,37Z" style="fill:#8691a6;fill-rule:nonzero;"/><path d="M1602.96,1213.86l82.309,-0l139.258,-37l-81.475,-0l-140.092,37Z" style="fill:#8691a6;fill-rule:nonzero;"/><path d="M1749.49,1213.86l82.308,-0l139.254,-37l-81.475,-0l-140.087,37Z" style="fill:#8691a6;fill-rule:nonzero;"/><path d="M1897.27,1213.86l82.308,-0l139.254,-37l-81.475,-0l-140.087,37Z" style="fill:#8691a6;fill-rule:nonzero;"/><path d="M863.238,1213.86l82.304,-0l139.258,-37l-81.475,-0l-140.087,37Z" style="fill:#8691a6;fill-rule:nonzero;"/><path d="M1011.02,1213.86l82.304,-0l139.258,-37l-81.475,-0l-140.087,37Z" style="fill:#8691a6;fill-rule:nonzero;"/><path d="M1157.55,1213.86l82.308,-0l139.254,-37l-81.475,-0l-140.087,37Z" style="fill:#8691a6;fill-rule:nonzero;"/><path d="M1305.33,1213.86l82.308,-0l139.255,-37l-81.476,-0l-140.087,37Z" style="fill:#8691a6;fill-rule:nonzero;"/><path d="M268.796,1213.86l82.308,-0l139.258,-37l-81.479,-0l-140.087,37Z" style="fill:#8691a6;fill-rule:nonzero;"/><path d="M416.575,1213.86l82.304,-0l139.258,-37l-81.475,-0l-140.087,37Z" style="fill:#8691a6;fill-rule:nonzero;"/><path d="M563.108,1213.86l82.305,-0l139.258,-37l-81.475,-0l-140.088,37Z" style="fill:#8691a6;fill-rule:nonzero;"/><path d="M710.883,1213.86l82.309,-0l139.258,-37l-81.479,-0l-140.088,37Z" style="fill:#8691a6;fill-rule:nonzero;"/><path d="M119.017,1213.86l82.304,-0l139.262,-37l-81.479,-0l-140.087,37Z" style="fill:#8691a6;fill-rule:nonzero;"/><path d="M3233.45,1213.86l82.309,-0l139.258,-37l-81.479,-0l-140.088,37Z" style="fill:#8691a6;fill-rule:nonzero;"/><path d="M3381.23,1213.86l82.309,-0l139.258,-37l-81.475,-0l-140.092,37Z" style="fill:#8691a6;fill-rule:nonzero;"/><path d="M3527.77,1213.86l82.308,-0l139.258,-37l-81.479,-0l-140.087,37Z" style="fill:#8691a6;fill-rule:nonzero;"/><path d="M3675.55,1213.86l82.308,-0l139.259,-37l-81.48,-0l-140.087,37Z" style="fill:#8691a6;fill-rule:nonzero;"/><path d="M3829.56,1213.86l82.305,-0l139.258,-37l-81.475,-0l-140.088,37Z" style="fill:#8691a6;fill-rule:nonzero;"/><path d="M3977.34,1213.86l82.3,-0l139.275,-37l-81.5,-0l-140.075,37Z" style="fill:#8691a6;fill-rule:nonzero;"/><path d="M4123.88,1213.86l82.292,-0l139.25,-37l-81.459,-0l-140.083,37Z" style="fill:#8691a6;fill-rule:nonzero;"/><path d="M4271.66,1213.86l82.296,-0l139.25,-37l-81.458,-0l-140.088,37Z" style="fill:#8691a6;fill-rule:nonzero;"/><path d="M4387.75,1184.18l-282.792,0c-19.833,0 -35.937,-16.083 -35.937,-35.92l-0,-97.875c-0,-19.842 16.104,-35.921 35.937,-35.921l282.792,-0c19.833,-0 35.917,16.079 35.917,35.921l-0,97.875c-0,19.837 -16.084,35.92 -35.917,35.92Z" style="fill:#d85b66;fill-rule:nonzero;"/><rect x="4064" y="1087.95" width="364.713" height="6.188" style="fill:#282a41;fill-rule:nonzero;"/><rect x="4064" y="1100.78" width="364.713" height="6.179" style="fill:#282a41;fill-rule:nonzero;"/><path d="M4425.08,1072.64l-7.458,0l-0,-14.917l7.458,0c4.125,0 7.459,3.338 7.459,7.459c-0,4.116 -3.334,7.458 -7.459,7.458Z" style="fill:#282a41;fill-rule:nonzero;"/><path d="M4425.08,1140.27l-7.458,-0l-0,-14.917l7.458,0c4.125,0 7.459,3.342 7.459,7.463c-0,4.116 -3.334,7.454 -7.459,7.454Z" style="fill:#282a41;fill-rule:nonzero;"/><rect x="4151.17" y="1081.55" width="19.083" height="34.254" style="fill:#282a41;fill-rule:nonzero;"/><rect x="4318.75" y="1081.55" width="19.083" height="34.254" style="fill:#282a41;fill-rule:nonzero;"/><path d="M4322.17,1014.13l-266.387,0c-17.204,0 -30.183,-15.629 -27.021,-32.541l22.696,-121.417c4.242,-22.687 24.046,-39.133 47.129,-39.133l180.75,-0c23.083,-0 42.917,16.446 47.167,39.133l22.667,121.417c3.167,16.912 -9.792,32.541 -27.001,32.541Z" style="fill:#ffc412;fill-rule:nonzero;"/><path d="M4322.17,1014.12l-266.387,0c-17.208,0 -30.179,-15.617 -27.037,-32.525l2.091,-11.275c5.142,5.833 12.625,9.525 21.154,9.525l273.971,0c8.5,0 16,-3.692 21.126,-9.525l2.125,11.275c3.125,16.908 -9.834,32.525 -27.043,32.525Z" style="fill:#d69c42;fill-rule:nonzero;"/><path d="M4126.38,1026.76l0.25,-0c4.167,-0 7.5,-3.359 7.5,-7.504l0,-175.505l-15.25,0l0,175.505c0,4.145 3.333,7.504 7.5,7.504Z" style="fill:#6a93cb;fill-rule:nonzero;"/><path d="M4120.21,898.291c-0.708,-0 -1.291,0.579 -1.291,1.292l-0,16.633c-0,0.717 0.583,1.296 1.291,1.296l12.584,-0c0.708,-0 1.291,-0.579 1.291,-1.296l0,-16.633c0,-0.713 -0.583,-1.292 -1.291,-1.292l-12.584,-0Zm12.584,22.758l-12.584,0c-2.666,0 -4.833,-2.171 -4.833,-4.833l0,-16.633c0,-2.663 2.167,-4.834 4.833,-4.834l12.584,0c2.666,0 4.833,2.171 4.833,4.834l0,16.633c0,2.662 -2.167,4.833 -4.833,4.833Z" style="fill:#fff;fill-rule:nonzero;"/><rect x="4118.88" y="915.462" width="15.25" height="16.525" style="fill:#6a93cb;fill-rule:nonzero;"/><rect x="4116.38" y="921.074" width="20.417" height="5.763" style="fill:#3f7acb;fill-rule:nonzero;"/><path d="M4250.25,1026.76l0.25,-0c4.167,-0 7.5,-3.359 7.5,-7.504l0,-175.505l-15.292,0l0,175.505c0,4.145 3.376,7.504 7.542,7.504Z" style="fill:#6a93cb;fill-rule:nonzero;"/><path d="M4244.08,898.291c-0.704,-0 -1.287,0.579 -1.287,1.292l-0,16.633c-0,0.717 0.583,1.296 1.287,1.296l12.588,-0c0.708,-0 1.291,-0.579 1.291,-1.296l0,-16.633c0,-0.713 -0.583,-1.292 -1.291,-1.292l-12.588,-0Zm12.588,22.758l-12.588,0c-2.667,0 -4.829,-2.171 -4.829,-4.833l0,-16.633c0,-2.663 2.162,-4.834 4.829,-4.834l12.588,0c2.666,0 4.833,2.171 4.833,4.834l0,16.633c0,2.662 -2.167,4.833 -4.833,4.833Z" style="fill:#fff;fill-rule:nonzero;"/><rect x="4240.25" y="921.074" width="20.417" height="5.763" style="fill:#3f7acb;fill-rule:nonzero;"/><path d="M4188.96,748.041c-30.333,-0 -56.291,30.879 -67.166,74.675l11,-0c0.708,-0 1.291,0.2 1.791,0.6c9.5,-37.067 30.292,-62.8 54.375,-62.8c24,-0 44.746,25.533 54.292,62.35c0.246,-0.1 0.583,-0.15 0.871,-0.15l12.046,-0c-10.875,-43.796 -36.875,-74.675 -67.209,-74.675Z" style="fill:#6a93cb;fill-rule:nonzero;"/><path d="M4244.12,824.483c-0.913,0.229 -1.246,0.708 -1.246,1.279l0,16.658c0,0.717 0.542,1.275 1.246,1.275l12.587,0c0.75,0 1.334,-0.567 1.334,-1.275l-0,-16.658c-0,-0.709 -0.584,-1.279 -1.334,-1.279l-12.587,-0Zm12.587,22.75l-12.587,-0c-2.625,-0 -4.792,-2.159 -4.792,-4.813l0,-16.658c0,-2.175 1.379,-4.021 3.421,-4.596c0.287,-0.117 0.829,-0.221 1.371,-0.221l12.587,0c2.667,0 4.875,2.158 4.875,4.817l0,16.658c0,2.654 -2.208,4.813 -4.875,4.813Z" style="fill:#fff;fill-rule:nonzero;"/><path d="M4120.21,824.483c-0.708,-0 -1.291,0.57 -1.291,1.279l-0,16.658c-0,0.271 0.083,0.563 0.291,0.767c0.292,0.354 0.625,0.508 1,0.508l12.584,0c0.708,0 1.291,-0.558 1.291,-1.275l0,-16.658c0,-0.396 -0.208,-0.784 -0.541,-1.025c-0.167,-0.146 -0.375,-0.254 -0.75,-0.254l-12.584,-0Zm12.584,22.75l-12.584,-0c-1.458,-0 -2.833,-0.646 -3.708,-1.775c-0.708,-0.763 -1.125,-1.905 -1.125,-3.038l0,-16.658c0,-2.659 2.167,-4.817 4.833,-4.817l12.584,0c1.125,0 2.083,0.333 2.916,0.992c1.167,0.862 1.917,2.304 1.917,3.825l0,16.658c0,2.654 -2.167,4.813 -4.833,4.813Z" style="fill:#fff;fill-rule:nonzero;"/><rect x="4287.54" y="852.795" width="8.708" height="110.842" style="fill:#d69c42;fill-rule:nonzero;"/><path d="M3517.66,1107.67l-12.329,-2.433c-5.854,-1.154 -9.667,-6.846 -8.508,-12.7l1.342,-6.771c1.154,-5.854 6.837,-9.667 12.691,-8.508l12.329,2.433l-5.525,27.979Z" style="fill:#282a41;fill-rule:nonzero;"/><rect x="3774" y="1157.19" width="208.5" height="10.6" style="fill:#b0bcc8;fill-rule:nonzero;"/><path d="M3538.99,1168.35c0,-13.929 -11.295,-25.225 -25.225,-25.225c-13.933,0 -25.229,11.296 -25.229,25.225c0,13.934 11.296,25.225 25.229,25.225c13.93,0 25.225,-11.291 25.225,-25.225Z" style="fill:#282a41;fill-rule:nonzero;"/><path d="M3527.97,1168.35c-0,-7.841 -6.359,-14.204 -14.205,-14.204c-7.845,0 -14.204,6.363 -14.204,14.204c0,7.846 6.359,14.209 14.204,14.209c7.846,-0 14.205,-6.363 14.205,-14.209Z" style="fill:#fff;fill-rule:nonzero;"/><path d="M3680.43,976.099l0,-72.816l-3.766,5.62l-27.721,41.338l-0,26.183l31.487,-0.325Z" style="fill:#f4bf6e;fill-rule:nonzero;"/><path d="M3732.11,976.099l0,-72.816l3.767,5.62l27.721,41.338l-0,26.183l-31.488,-0.325Z" style="fill:#f4bf6e;fill-rule:nonzero;"/><path d="M3680.43,923.245l0,-19.925c0,0 9.621,-18.308 23.617,-19.187c17.633,-1.105 28.746,19.9 28.192,19.345l-0.134,19.767c0,0 -12.925,-9.796 -26.908,-9.492c-14.912,0.325 -24.767,9.492 -24.767,9.492Z" style="fill:#e3b266;fill-rule:nonzero;"/><path d="M3869.38,1192.05l-326.229,0c-24.496,0 -43.129,-22.012 -39.079,-46.179l23.296,-139.071c3.204,-19.092 19.729,-33.083 39.087,-33.083l279.625,-0c19.359,-0 35.884,13.991 39.084,33.083l23.3,139.071c4.049,24.167 -14.584,46.179 -39.084,46.179Z" style="fill:#6a93cb;fill-rule:nonzero;"/><path d="M3849.64,1178.84l-286.75,-0c-21.538,-0 -37.917,-19.354 -34.355,-40.592l20.48,-122.242c2.812,-16.783 17.341,-29.079 34.358,-29.079l245.783,0c17.017,0 31.542,12.296 34.354,29.079l20.484,122.242c3.562,21.238 -12.817,40.592 -34.354,40.592Z" style="fill:#6a93cb;fill-rule:nonzero;"/><path d="M3849.64,1178.82l-286.73,0c-21.55,0 -37.912,-19.35 -34.366,-40.604l20.5,-122.212c1.145,-6.884 4.291,-13.071 8.779,-17.909c-2.392,6.084 -3.292,13.117 -2.296,20.354l17.212,122.213c2.346,16.808 14.563,29.079 28.83,29.079l206.616,0c14.267,0 26.488,-12.271 28.834,-29.079l17.212,-122.213c1.242,-9.029 -0.454,-17.658 -4.341,-24.641c7.033,5.133 12.07,12.966 13.616,22.196l20.5,122.212c3.546,21.254 -12.816,40.604 -34.366,40.604Z" style="fill:#96adcb;fill-rule:nonzero;"/><path d="M3552.64,1011.74c-0.491,1.525 -0.87,3.083 -1.137,4.679l-20.504,122.217c-1.567,9.408 1.071,18.979 7.237,26.258c6.15,7.263 15.154,11.433 24.675,11.433l286.73,0c9.52,0 18.52,-4.17 24.675,-11.433c6.162,-7.279 8.8,-16.85 7.233,-26.262l-20.5,-122.213c-0.75,-4.471 -2.388,-8.646 -4.775,-12.321c0.954,4.742 1.108,9.725 0.425,14.696l-17.209,122.217c-2.525,18.1 -15.687,31.229 -31.304,31.229l-206.616,-0c-15.613,-0 -28.775,-13.129 -31.3,-31.229l-17.213,-122.213c-0.325,-2.362 -0.458,-4.716 -0.417,-7.058Zm297.001,169.579l-286.73,0c-10.996,0 -21.375,-4.817 -28.483,-13.204c-7.113,-8.4 -10.158,-19.442 -8.346,-30.304l20.504,-122.221c1.2,-7.213 4.455,-13.854 9.409,-19.188c0.821,-0.883 2.146,-1.05 3.158,-0.412c1.013,0.637 1.433,1.908 0.992,3.025c-2.317,5.879 -3.059,12.479 -2.146,19.096l17.212,122.208c2.175,15.608 13.259,26.933 26.359,26.933l206.616,0c13.096,0 24.188,-11.325 26.363,-26.933l17.212,-122.212c1.125,-8.175 -0.312,-16.375 -4.05,-23.088c-0.571,-1.021 -0.35,-2.304 0.525,-3.079c0.875,-0.775 2.179,-0.833 3.121,-0.146c7.8,5.704 12.988,14.154 14.613,23.796l20.5,122.212c1.812,10.871 -1.234,21.913 -8.346,30.313c-7.108,8.387 -17.488,13.204 -28.483,13.204Z" style="fill:#4980cb;fill-rule:nonzero;"/><path d="M3583.37,989.42c-15.863,0 -29.275,11.354 -31.896,27l-20.483,122.238c-1.571,9.395 1.058,18.958 7.216,26.237c6.15,7.271 15.155,11.442 24.684,11.442l286.75,-0c9.529,-0 18.525,-4.175 24.683,-11.446c6.154,-7.275 8.783,-16.838 7.208,-26.233l-20.479,-122.238c-2.621,-15.646 -16.033,-27 -31.896,-27l-245.787,0Zm266.271,191.908l-286.75,0c-11,0 -21.384,-4.816 -28.492,-13.212c-7.108,-8.392 -10.142,-19.429 -8.325,-30.288l20.483,-122.241c3.025,-18.054 18.504,-31.154 36.813,-31.154l245.787,-0c18.313,-0 33.792,13.1 36.817,31.154l20.479,122.241c1.821,10.855 -1.212,21.888 -8.321,30.284c-7.104,8.396 -17.491,13.216 -28.491,13.216Z" style="fill:#4980cb;fill-rule:nonzero;"/><path d="M3869.39,1192.05l-326.234,0c-24.491,0 -43.146,-21.996 -39.104,-46.192l2.142,-12.92c5.787,14.616 19.95,25.191 36.962,25.191l326.234,0c17.012,0 31.179,-10.575 36.916,-25.191l2.142,12.92c4.042,24.196 -14.563,46.192 -39.058,46.192Z" style="fill:#4980cb;fill-rule:nonzero;"/><path d="M4006.25,1171.67l-25.913,0c-2.137,0 -3.875,-1.737 -3.875,-3.879l0,-9.767c0,-2.145 1.738,-3.883 3.875,-3.883l25.913,0c2.146,0 3.883,1.738 3.883,3.883l0,9.767c0,2.142 -1.737,3.879 -3.883,3.879Z" style="fill:#282a41;fill-rule:nonzero;"/><rect x="3653.17" y="1054.32" width="120.237" height="8.729" style="fill:#3f7acb;fill-rule:nonzero;"/><path d="M3658.72,1070.81l-4.154,-0c-1,-0 -1.808,-0.804 -1.808,-1.8l-0,-4.159c-0,-1 0.808,-1.808 1.808,-1.808l4.154,0c0.996,0 1.804,0.808 1.804,1.808l0,4.159c0,0.996 -0.808,1.8 -1.804,1.8Z" style="fill:#fff;fill-rule:nonzero;"/><path d="M3658.72,1090.88l-4.154,-0c-1,-0 -1.808,-0.813 -1.808,-1.809l-0,-15.741c-0,-1 0.808,-1.809 1.808,-1.809l4.154,0c0.996,0 1.804,0.809 1.804,1.809l0,15.741c0,0.996 -0.808,1.809 -1.804,1.809Z" style="fill:#fff;fill-rule:nonzero;"/><path d="M3331.28,748.733l-86.058,-0l0,39.558l13.892,-0l-0,-20.742l58.275,0l-0,20.742l13.891,-0l0,-39.558Z" style="fill:#23253c;fill-rule:nonzero;"/><path d="M3371.99,1161.3c1.433,0 2.787,0.354 4.104,0.854c0.712,-1.675 1.229,-3.529 1.229,-5.583l0.138,-8.692l16.991,0l0,14.904c0,3.492 -0.737,6.667 -2.021,9.392l0,0.067c-0.279,0.504 -0.554,0.95 -0.829,1.396l-4.242,7.295c0.038,0.596 0.13,1.167 0.13,1.775c-0,11.83 -6.938,21.409 -15.5,21.409c-8.555,-0 -15.496,-9.579 -15.496,-21.409c-0,-11.82 6.941,-21.408 15.496,-21.408Z" style="fill:#282a41;fill-rule:nonzero;"/><path d="M3233.87,1161.3c1.433,0 2.787,0.354 4.1,0.854c0.712,-1.675 1.233,-3.529 1.233,-5.583l0.133,-8.692l16.996,0l0,14.904c0,3.492 -0.737,6.667 -2.025,9.392l0,0.067c-0.271,0.504 -0.55,0.95 -0.825,1.396l-4.246,7.295c0.038,0.596 0.134,1.167 0.134,1.775c-0,11.83 -6.938,21.409 -15.5,21.409c-8.559,-0 -15.496,-9.579 -15.496,-21.409c-0,-11.82 6.937,-21.408 15.496,-21.408Z" style="fill:#282a41;fill-rule:nonzero;"/><path d="M3147.32,823.191l-0,299.662c-0,18.846 9.846,34.134 21.933,34.134l127.675,-0c10.617,-0 19.521,-11.8 21.484,-27.467c0.283,-2.158 0.445,-4.379 0.445,-6.667l0,-299.662c0,-18.842 -9.841,-34.129 -21.929,-34.129l-127.675,-0c-12.087,-0 -21.933,15.287 -21.933,34.129Z" style="fill:#6a93cb;fill-rule:nonzero;"/><path d="M3298.21,1182.7c0,-11.82 -6.941,-21.408 -15.495,-21.408c-8.563,0 -15.5,9.588 -15.5,21.408c-0,11.83 6.937,21.409 15.5,21.409c8.554,-0 15.495,-9.579 15.495,-21.409Z" style="fill:#282a41;fill-rule:nonzero;"/><path d="M3218.37,823.191l-0,299.662c-0,18.846 11.496,34.134 25.617,34.134l149.108,-0c12.4,-0 22.8,-11.8 25.087,-27.467c0.334,-2.158 0.525,-4.379 0.525,-6.667l0,-299.662c0,-18.842 -11.495,-34.129 -25.612,-34.129l-149.108,-0c-14.121,-0 -25.617,15.287 -25.617,34.129Z" style="fill:#6a93cb;fill-rule:nonzero;"/><path d="M3271.33,1182.89c0,8.558 5.054,15.538 11.3,15.538c3.075,-0 5.875,-1.713 7.896,-4.505l11.804,-20.295c0.275,-0.446 0.546,-0.892 0.825,-1.396l0,-0.067c1.284,-2.725 2.021,-5.9 2.021,-9.392l0,-14.904l-16.992,0l-0.137,8.692c-0,5.708 -3.167,10.658 -7.213,10.975c-5.37,1.137 -9.504,7.554 -9.504,15.354Z" style="fill:#282a41;fill-rule:nonzero;"/><path d="M3169.25,790.808c-11.129,-0 -20.187,14.52 -20.187,32.383l-0,299.671c-0,17.866 9.058,32.387 20.187,32.387l127.671,0c9.571,0 17.875,-10.908 19.754,-25.946c0.296,-2.212 0.429,-4.32 0.429,-6.441l0,-299.671c0,-17.863 -9.058,-32.383 -20.183,-32.383l-127.671,-0Zm127.671,367.933l-127.671,-0c-13.058,-0 -23.679,-16.096 -23.679,-35.879l-0,-299.671c-0,-19.783 10.621,-35.875 23.679,-35.875l127.671,-0c13.058,-0 23.671,16.092 23.671,35.875l-0,299.671c-0,2.266 -0.146,4.521 -0.454,6.887c-2.109,16.788 -11.867,28.992 -23.217,28.992Z" style="fill:#80b2f6;fill-rule:nonzero;"/><path d="M3278.95,1152.3l0,4.692l17.975,-0c10.617,-0 19.521,-11.8 21.484,-27.467l-24.792,0c-8.092,0 -14.667,10.213 -14.667,22.775Z" style="fill:#282a41;fill-rule:nonzero;"/><path d="M3186.78,1152.3l-0,4.692l-17.971,-0c-10.616,-0 -19.525,-11.8 -21.483,-27.467l24.796,0c8.079,0 14.658,10.213 14.658,22.775Z" style="fill:#282a41;fill-rule:nonzero;"/><rect x="3318.86" y="848.337" width="104.379" height="27.55" style="fill:#282a41;fill-rule:nonzero;"/><rect x="3318.86" y="1077.69" width="105.892" height="27.554" style="fill:#282a41;fill-rule:nonzero;"/><path d="M3294.73,1182.7c0,-9.17 -5.379,-16.608 -12.016,-16.608c-6.642,0 -12.021,7.438 -12.021,16.608c-0,9.175 5.379,16.609 12.021,16.609c6.637,-0 12.016,-7.434 12.016,-16.609Z" style="fill:#fdfdfd;fill-rule:nonzero;"/><path d="M3173.58,1182.7c0,-11.82 -6.937,-21.408 -15.496,-21.408c-8.558,0 -15.495,9.588 -15.495,21.408c-0,11.83 6.937,21.409 15.495,21.409c8.559,-0 15.496,-9.579 15.496,-21.409Z" style="fill:#282a41;fill-rule:nonzero;"/><path d="M3146.7,1182.89c0,8.558 5.05,15.538 11.296,15.538c3.075,-0 5.875,-1.713 7.896,-4.505l11.8,-20.295c0.279,-0.446 0.554,-0.892 0.829,-1.396l-0,-0.067c1.283,-2.725 2.021,-5.9 2.021,-9.392l-0,-14.904l-16.988,0l-0.137,8.692c-0,5.708 -3.171,10.658 -7.213,10.975c-5.371,1.137 -9.504,7.554 -9.504,15.354Z" style="fill:#282a41;fill-rule:nonzero;"/><path d="M3170.1,1182.7c0,-9.17 -5.383,-16.608 -12.021,-16.608c-6.637,0 -12.021,7.438 -12.021,16.608c0,9.175 5.384,16.609 12.021,16.609c6.638,-0 12.021,-7.434 12.021,-16.609Z" style="fill:#fdfdfd;fill-rule:nonzero;"/><path d="M3280.62,1100.26l-0.954,-264.359l3.487,0l0.958,264.359l-3.491,-0Z" style="fill:#80b2f6;fill-rule:nonzero;"/><path d="M3252.93,1100.26l-0.962,-264.359l3.487,0l0.967,264.359l-3.492,-0Z" style="fill:#80b2f6;fill-rule:nonzero;"/><path d="M3224.33,1100.26l-0.954,-264.359l3.487,0l0.954,264.359l-3.487,-0Z" style="fill:#80b2f6;fill-rule:nonzero;"/><path d="M3196.63,1100.26l-0.962,-264.359l3.487,0l0.967,264.359l-3.492,-0Z" style="fill:#80b2f6;fill-rule:nonzero;"/><path d="M3171.36,1098.43l-0.967,-264.355l3.487,0l0.967,264.355l-3.487,-0Z" style="fill:#80b2f6;fill-rule:nonzero;"/><rect x="2888.39" y="712.912" width="7.904" height="113.35" style="fill:#afbbc7;fill-rule:nonzero;"/><rect x="2965.15" y="712.912" width="7.908" height="113.35" style="fill:#afbbc7;fill-rule:nonzero;"/><path d="M2970.78,690.287l-15.487,-0l-0,-0.029c-0,-1.163 -0.946,-2.117 -2.113,-2.117l-45.066,-0c-1.163,-0 -2.113,0.954 -2.113,2.117l0,0.029l-15.483,-0c-2.029,-0 -3.671,1.641 -3.671,3.666l-0,17.684c-0,0.7 0.571,1.271 1.275,1.271l8.217,-0c0.7,-0 1.271,-0.571 1.271,-1.271l-0,-7.234c-0,-1.854 1.499,-3.354 3.35,-3.354l5.041,0l0,0.029c0,1.167 0.95,2.113 2.113,2.113l45.066,-0c1.167,-0 2.113,-0.946 2.113,-2.113l-0,-0.029l5.042,0c1.854,0 3.354,1.5 3.354,3.354l-0,7.234c-0,0.7 0.57,1.271 1.275,1.271l8.212,-0c0.704,-0 1.275,-0.571 1.275,-1.271l0,-17.684c0,-2.025 -1.642,-3.666 -3.671,-3.666Z" style="fill:#23253c;fill-rule:nonzero;"/><path d="M3078.02,1090.9l-0,33.055c-0,14.337 -11.65,25.987 -25.992,25.987l-244.117,0c-14.387,0 -25.983,-11.65 -25.983,-25.987l-0,-33.055c-0,14.342 11.596,25.992 25.983,25.992l244.117,0c14.342,0 25.992,-11.65 25.992,-25.992Z" style="fill:#b44c55;fill-rule:nonzero;"/><path d="M3078.02,750.749l-0,340.154c-0,14.342 -11.65,25.992 -25.992,25.992l-244.117,0c-14.387,0 -25.983,-11.65 -25.983,-25.992l-0,-340.154c-0,-2.162 0.267,-4.271 0.792,-6.275c2.791,-11.333 12.966,-19.712 25.191,-19.712l244.117,-0c14.342,-0 25.992,11.646 25.992,25.987Z" style="fill:#d85b66;fill-rule:nonzero;"/><path d="M3073.65,1155.99c-1.625,-0 -3.084,0.516 -4.575,0.921c-0.904,-1.438 -1.546,-3.059 -1.546,-4.855l-0.158,-7.22l-19.505,-0l0,12.387c0,2.9 0.842,5.533 2.317,7.804l0,0.05c0.317,0.421 0.634,0.792 0.95,1.163l4.992,6.212c-0.038,0.463 -0.267,0.854 -0.267,1.325c0,9.829 7.963,17.792 17.792,17.792c9.821,-0 17.787,-7.963 17.787,-17.792c0,-9.825 -7.966,-17.787 -17.787,-17.787Z" style="fill:#282a41;fill-rule:nonzero;"/><path d="M2825.48,1155.99c-1.621,-0 -3.079,0.516 -4.575,0.921c-0.9,-1.438 -1.546,-3.059 -1.546,-4.855l-0.158,-7.22l-19.5,-0l-0,12.387c-0,2.9 0.842,5.533 2.312,7.804l0,0.05c0.325,0.421 0.638,0.792 0.955,1.163l4.987,6.212c-0.033,0.463 -0.267,0.854 -0.267,1.325c0,9.829 7.967,17.792 17.792,17.792c9.829,-0 17.792,-7.963 17.792,-17.792c-0,-9.825 -7.963,-17.787 -17.792,-17.787Z" style="fill:#282a41;fill-rule:nonzero;"/><path d="M3077.22,750.749l-0,70.534c-20.667,61.879 -79.067,106.475 -147.917,106.475c-68.262,-0 -126.354,-43.909 -147.383,-105.005l-0,-78.279c2.796,-11.333 12.967,-19.712 25.196,-19.712l244.116,-0c14.334,-0 25.988,11.646 25.988,25.987Z" style="fill:#b44c55;fill-rule:nonzero;"/><path d="M2903.76,724.762l-23.5,-0l-0,-3.234c-0,-2.708 2.2,-4.912 4.912,-4.912l13.675,-0c2.713,-0 4.913,2.204 4.913,4.912l-0,3.234Z" style="fill:#23253c;fill-rule:nonzero;"/><path d="M2980.85,724.762l-23.5,-0l0,-3.234c0,-2.708 2.2,-4.912 4.913,-4.912l13.675,-0c2.712,-0 4.912,2.204 4.912,4.912l0,3.234Z" style="fill:#23253c;fill-rule:nonzero;"/><rect x="2778.13" y="870.145" width="303.042" height="9.225" style="fill:#afbbc7;fill-rule:nonzero;"/><rect x="2778.13" y="1011.15" width="303.042" height="9.225" style="fill:#afbbc7;fill-rule:nonzero;"/><path d="M2781.92,838.72c-2.063,0 -3.738,-1.667 -3.738,-3.729l0,-84.246c0,-2.496 0.308,-4.929 0.933,-7.237c3.255,-13.209 15.096,-22.48 28.796,-22.48l244.113,0c16.387,0 29.733,13.33 29.733,29.717l0,81.55c0,2.063 -1.679,3.733 -3.741,3.733c-2.059,0 -3.742,-1.67 -3.742,-3.733l-0,-81.55c-0,-12.271 -9.971,-22.25 -22.25,-22.25l-244.113,0c-10.254,0 -19.116,6.942 -21.566,16.871c-0.463,1.75 -0.684,3.537 -0.684,5.379l0,84.246c0,2.062 -1.679,3.729 -3.741,3.729Z" style="fill-rule:nonzero;"/><path d="M2682.36,1104.42c0,1.738 0.55,3.3 0.988,4.896c-1.542,0.967 -3.271,1.654 -5.192,1.654l-7.737,0.171l-0,20.871l13.262,-0c3.104,-0 5.925,-0.9 8.35,-2.479l0.063,-0c0.445,-0.338 0.841,-0.679 1.233,-1.017l6.654,-5.342c0.492,0.038 0.917,0.288 1.421,0.288c10.517,-0 19.038,-8.525 19.038,-19.042c-0,-10.516 -8.521,-19.041 -19.038,-19.041c-10.517,-0 -19.042,8.525 -19.042,19.041Z" style="fill:#282a41;fill-rule:nonzero;"/><path d="M2633.16,1195.36l-375.533,-0c-20.275,-0 -36.708,-16.442 -36.708,-36.717l-0,-74.058c-0,-20.275 16.433,-36.717 36.708,-36.717l375.533,0c20.275,0 36.713,16.442 36.713,36.717l-0,74.058c-0,20.275 -16.438,36.717 -36.713,36.717Z" style="fill:#301d6e;fill-rule:nonzero;"/><rect x="2215.67" y="1110.62" width="457.479" height="6.046" style="fill:#bcb4d5;fill-rule:nonzero;"/><rect x="2215.67" y="1120.52" width="457.479" height="6.042" style="fill:#bcb4d5;fill-rule:nonzero;"/><path d="M2253.03,1195.36l-41.921,-0c-3.183,-0 -5.758,-2.579 -5.758,-5.763l-0,-0.058c-0,-3.179 2.575,-5.758 5.758,-5.758l41.921,-0l0,11.579Z" style="fill:#282a41;fill-rule:nonzero;"/><rect x="2301.2" y="1102.23" width="18.679" height="33.488" style="fill:#bcb4d5;fill-rule:nonzero;"/><rect x="2554.52" y="1102.23" width="18.679" height="33.488" style="fill:#bcb4d5;fill-rule:nonzero;"/><path d="M2530.42,830.487c-11.671,-9.234 -24.413,-13.234 -38.746,-13.234c-26.279,0 -47.988,11.105 -65.058,40.946l17.866,9.188c10.284,-22.367 30.95,-35.529 47.192,-35.529c14.704,-0 31.517,10.333 42.058,31.075c1.6,3.133 -0.175,8.537 1.288,12.075l18.808,-3.6l0,-12.875c-7.371,-12.271 -15.104,-21.471 -23.408,-28.046Z" style="fill:#bc4f59;fill-rule:nonzero;"/><path d="M2606.82,1047.87l-228.225,0c-13.904,0 -24.642,-12.2 -22.842,-26.008l0.733,-5.667l13.071,-99.671c1.6,-12.337 12.138,-21.612 24.613,-21.612l197.07,-0c12.442,-0 22.98,9.275 24.613,21.612l13.771,105.338c1.804,13.808 -8.933,26.008 -22.804,26.008Z" style="fill:#d85b66;fill-rule:nonzero;"/><rect x="2426.62" y="899.516" width="23.417" height="148.354" style="fill:#bc4f59;fill-rule:nonzero;"/><path d="M2450.04,883.728l-23.416,0l-0,-25.508c7.996,-13.687 15.771,-22.258 23.416,-27.854l0,53.362Z" style="fill:#bc4f59;fill-rule:nonzero;"/><path d="M2424.54,885.491c-0.491,-0 -0.887,0.379 -0.887,0.85l0,11.142c0,0.179 0.075,0.37 0.196,0.508c0.196,0.242 0.416,0.342 0.691,0.342l25.813,-0c0.475,-0 0.85,-0.375 0.85,-0.85l0,-11.142c0,-0.263 -0.129,-0.521 -0.346,-0.675c-0.125,-0.1 -0.25,-0.175 -0.504,-0.175l-25.813,-0Zm25.813,15.204l-25.813,0c-1,0 -1.904,-0.429 -2.499,-1.183c-0.459,-0.504 -0.755,-1.267 -0.755,-2.029l0,-11.142c0,-1.771 1.463,-3.213 3.254,-3.213l25.813,0c0.737,0 1.392,0.221 1.938,0.655c0.787,0.579 1.274,1.545 1.274,2.558l0,11.142c0,1.766 -1.437,3.212 -3.212,3.212Z" style="fill:#d85b66;fill-rule:nonzero;"/><rect x="2530.41" y="899.516" width="23.417" height="148.354" style="fill:#bc4f59;fill-rule:nonzero;"/><path d="M2553.83,858.233l0,25.479l-23.408,-0l-0,-53.359c7.637,5.605 15.404,14.175 23.408,27.88Z" style="fill:#bc4f59;fill-rule:nonzero;"/><path d="M2530.1,885.491c-0.254,-0 -0.379,0.075 -0.463,0.142c-0.258,0.187 -0.387,0.445 -0.387,0.708l0,11.142c0,0.487 0.362,0.85 0.85,0.85l25.813,-0c0.266,-0 0.495,-0.105 0.637,-0.284c0.171,-0.196 0.246,-0.387 0.246,-0.566l-0,-11.142c-0,-0.471 -0.396,-0.85 -0.883,-0.85l-25.813,-0Zm25.813,15.204l-25.813,0c-1.775,0 -3.217,-1.446 -3.217,-3.212l0,-11.142c0,-1.017 0.492,-1.988 1.321,-2.583c0.5,-0.409 1.154,-0.63 1.896,-0.63l25.813,0c1.791,0 3.245,1.442 3.245,3.213l0,11.142c0,0.762 -0.291,1.525 -0.8,2.091c-0.545,0.692 -1.458,1.121 -2.445,1.121Z" style="fill:#d85b66;fill-rule:nonzero;"/><rect x="2450.04" y="939.966" width="80.379" height="5.833" style="fill:#bc4f59;fill-rule:nonzero;"/><path d="M2382.29,1037.04l-0,10.833l-3.7,0c-13.904,0 -24.642,-12.2 -22.842,-26.008l0.733,-5.667l4.971,0c11.5,0 20.838,9.333 20.838,20.842Z" style="fill:#bc4f59;fill-rule:nonzero;"/><path d="M2603.08,1037.04l-0,10.833l3.704,0c13.909,0 24.646,-12.2 22.842,-26.008l-0.734,-5.667l-4.97,0c-11.504,0 -20.842,9.333 -20.842,20.842Z" style="fill:#bc4f59;fill-rule:nonzero;"/><path d="M1924.91,1158.45c-0,-0.462 -0,-0.879 0.049,-1.341l-21.491,-0c-0.158,1.341 -0.259,2.691 -0.259,4.091c0,11.238 5.542,21.129 14.034,27.134l-0,-15.017l15.071,-0c-4.505,-3.421 -7.404,-8.804 -7.404,-14.867Z" style="fill:#13114e;fill-rule:nonzero;"/><path d="M1908.52,1185.22c-0,-10.158 8.237,-18.396 18.391,-18.396c10.163,0 18.4,8.238 18.4,18.396c0,10.163 -8.237,18.396 -18.4,18.396c-10.154,-0 -18.391,-8.233 -18.391,-18.396Z" style="fill:#13114e;fill-rule:nonzero;"/><path d="M1916.55,1185.22c0,-5.721 4.638,-10.354 10.354,-10.354c5.725,-0 10.363,4.633 10.363,10.354c-0,5.721 -4.638,10.363 -10.363,10.363c-5.716,-0 -10.354,-4.642 -10.354,-10.363Z" style="fill:#fff;fill-rule:nonzero;"/><path d="M2112.14,1173.32l15.07,-0l0,15.017c8.492,-6.005 14.034,-15.896 14.034,-27.134c-0,-1.4 -0.1,-2.75 -0.259,-4.091l-21.491,-0c0.05,0.462 0.05,0.879 0.05,1.341c-0,6.063 -2.9,11.446 -7.404,14.867Z" style="fill:#13114e;fill-rule:nonzero;"/><path d="M2135.94,1185.22c-0.001,-10.158 -8.234,-18.396 -18.396,-18.396c-10.159,0 -18.396,8.238 -18.396,18.396c-0,10.163 8.237,18.396 18.396,18.396c10.162,-0 18.396,-8.233 18.396,-18.396Z" style="fill:#13114e;fill-rule:nonzero;"/><path d="M2127.9,1185.22c-0,-5.721 -4.637,-10.354 -10.358,-10.354c-5.721,-0 -10.359,4.633 -10.359,10.354c0,5.721 4.638,10.363 10.359,10.363c5.721,-0 10.358,-4.642 10.358,-10.363Z" style="fill:#fff;fill-rule:nonzero;"/><path d="M2179.27,784.499l-0,318.563c-0,8.862 -1.867,17.241 -5.242,24.779c-9.467,21.342 -30.871,36.233 -55.767,36.233l-190.212,0c-24.896,0 -46.296,-14.891 -55.763,-36.233c-3.374,-7.538 -5.245,-15.917 -5.245,-24.779l-0,-318.563c-0,-33.637 27.312,-60.95 61.008,-60.95l190.212,0c33.701,0 61.009,27.313 61.009,60.95Z" style="fill:#ffc412;fill-rule:nonzero;"/><path d="M1886.71,1113.76c-2.291,-0 -4.15,-1.855 -4.15,-4.146l0,-341.638c0,-2.291 1.859,-4.15 4.15,-4.15c2.288,0 4.142,1.859 4.142,4.15l-0,341.638c-0,2.291 -1.854,4.146 -4.142,4.146Z" style="fill:#d69c42;fill-rule:nonzero;"/><path d="M1907.55,1113.76c-2.287,-0 -4.146,-1.855 -4.146,-4.146l0,-341.638c0,-2.291 1.859,-4.15 4.146,-4.15c2.292,0 4.146,1.859 4.146,4.15l0,341.638c0,2.291 -1.854,4.146 -4.146,4.146Z" style="fill:#d69c42;fill-rule:nonzero;"/><path d="M1928.4,1113.76c-2.287,-0 -4.146,-1.855 -4.146,-4.146l0,-341.638c0,-2.291 1.859,-4.15 4.146,-4.15c2.288,0 4.146,1.859 4.146,4.15l0,341.638c0,2.291 -1.858,4.146 -4.146,4.146Z" style="fill:#d69c42;fill-rule:nonzero;"/><path d="M1949.25,1113.76c-2.292,-0 -4.146,-1.855 -4.146,-4.146l0,-341.638c0,-2.291 1.854,-4.15 4.146,-4.15c2.288,0 4.146,1.859 4.146,4.15l0,341.638c0,2.291 -1.858,4.146 -4.146,4.146Z" style="fill:#d69c42;fill-rule:nonzero;"/><path d="M1970.1,1113.76c-2.292,-0 -4.146,-1.855 -4.146,-4.146l0,-341.638c0,-2.291 1.854,-4.15 4.146,-4.15c2.288,0 4.142,1.859 4.142,4.15l-0,341.638c-0,2.291 -1.854,4.146 -4.142,4.146Z" style="fill:#d69c42;fill-rule:nonzero;"/><path d="M1990.95,1113.76c-2.292,-0 -4.146,-1.855 -4.146,-4.146l0,-341.638c0,-2.291 1.854,-4.15 4.146,-4.15c2.288,0 4.142,1.859 4.142,4.15l-0,341.638c-0,2.291 -1.854,4.146 -4.142,4.146Z" style="fill:#d69c42;fill-rule:nonzero;"/><path d="M2011.8,1113.76c-2.292,-0 -4.146,-1.855 -4.146,-4.146l0,-341.638c0,-2.291 1.854,-4.15 4.146,-4.15c2.288,0 4.142,1.859 4.142,4.15l-0,341.638c-0,2.291 -1.854,4.146 -4.142,4.146Z" style="fill:#d69c42;fill-rule:nonzero;"/><path d="M2032.65,1113.76c-2.288,-0 -4.142,-1.855 -4.142,-4.146l0,-341.638c0,-2.291 1.854,-4.15 4.142,-4.15c2.292,0 4.146,1.859 4.146,4.15l-0,341.638c-0,2.291 -1.854,4.146 -4.146,4.146Z" style="fill:#d69c42;fill-rule:nonzero;"/><path d="M2053.5,1113.76c-2.287,-0 -4.142,-1.855 -4.142,-4.146l0,-341.638c0,-2.291 1.855,-4.15 4.142,-4.15c2.292,0 4.146,1.859 4.146,4.15l-0,341.638c-0,2.291 -1.854,4.146 -4.146,4.146Z" style="fill:#d69c42;fill-rule:nonzero;"/><path d="M2074.35,1113.76c-2.292,-0 -4.146,-1.855 -4.146,-4.146l0,-341.638c0,-2.291 1.854,-4.15 4.146,-4.15c2.288,0 4.146,1.859 4.146,4.15l-0,341.638c-0,2.291 -1.858,4.146 -4.146,4.146Z" style="fill:#d69c42;fill-rule:nonzero;"/><path d="M2095.2,1113.76c-2.287,-0 -4.142,-1.855 -4.142,-4.146l0,-341.638c0,-2.291 1.855,-4.15 4.142,-4.15c2.287,0 4.146,1.859 4.146,4.15l-0,341.638c-0,2.291 -1.859,4.146 -4.146,4.146Z" style="fill:#d69c42;fill-rule:nonzero;"/><path d="M2116.05,1113.76c-2.288,-0 -4.146,-1.855 -4.146,-4.146l0,-341.638c0,-2.291 1.858,-4.15 4.146,-4.15c2.288,0 4.146,1.859 4.146,4.15l-0,341.638c-0,2.291 -1.858,4.146 -4.146,4.146Z" style="fill:#d69c42;fill-rule:nonzero;"/><path d="M2137.57,1113.76c-2.292,-0 -4.146,-1.855 -4.146,-4.146l0,-341.638c0,-2.291 1.854,-4.15 4.146,-4.15c2.288,0 4.142,1.859 4.142,4.15l-0,341.638c-0,2.291 -1.854,4.146 -4.142,4.146Z" style="fill:#d69c42;fill-rule:nonzero;"/><path d="M2158.42,1113.76c-2.288,-0 -4.142,-1.855 -4.142,-4.146l0,-341.638c0,-2.291 1.854,-4.15 4.142,-4.15c2.291,0 4.146,1.859 4.146,4.15l-0,341.638c-0,2.291 -1.855,4.146 -4.146,4.146Z" style="fill:#d69c42;fill-rule:nonzero;"/><path d="M2174.33,1127.84c-9.466,21.342 -30.866,36.233 -55.766,36.233l-15.976,0l0,-13.383c0,-12.6 10.246,-22.85 22.846,-22.85l48.896,-0Z" style="fill:#13114e;fill-rule:nonzero;"/><path d="M1871.98,1127.84c9.467,21.342 30.871,36.233 55.767,36.233l15.979,0l0,-13.383c0,-12.6 -10.25,-22.85 -22.85,-22.85l-48.896,-0Z" style="fill:#13114e;fill-rule:nonzero;"/><path d="M2078.39,696.562c-17.158,-5.109 -35.279,-8.013 -54,-8.504c0,-0 -1.079,-0.084 -1.624,-0.075c-0.542,-0.009 -1.621,0.075 -1.621,0.075c-18.721,0.491 -36.846,3.395 -53.996,8.504c-4.575,1.362 -7.008,6.333 -5.146,10.725l6.062,14.287c0.63,1.484 2.084,2.45 3.7,2.45l11.784,0c2.217,0 4.017,-1.804 4.017,-4.021l-0,-4.037c-0,-3.629 2.566,-6.813 6.141,-7.454c9.467,-1.696 19.163,-2.713 29.059,-2.934c9.899,0.221 19.595,1.238 29.062,2.934c3.575,0.641 6.142,3.825 6.142,7.454l-0,4.037c-0,2.217 1.8,4.021 4.012,4.021l11.792,0c1.608,0 3.062,-0.966 3.692,-2.45l6.066,-14.287c1.867,-4.392 -0.575,-9.363 -5.142,-10.725Z" style="fill:#13114e;fill-rule:nonzero;"/><path d="M2073.46,702.741c-15.129,-3.979 -36.745,-6.575 -50.579,-6.633c-17.612,-0.071 -34.787,2.712 -51.004,7.291c0.3,-2.533 2.108,-4.396 4.763,-5.237c14.229,-4.225 30.566,-7.013 46.125,-7.059c14.291,-0.037 31.945,2.834 46.17,7.059c2.292,0.721 3.921,2.466 4.525,4.579Z" style="fill:#fff;fill-rule:nonzero;"/><path d="M1699.09,957.624l-170.329,0l0.016,-32.108l149.471,-0l20.842,32.108Z" style="fill:#e3aa54;fill-rule:nonzero;"/><rect x="1475.9" y="992.22" width="253.871" height="195.046" style="fill:#6a93cb;fill-rule:nonzero;"/><path d="M1528.76,1144.01l-0,-218.509l-32.109,49.509l0,169.441l32.109,-0.441Z" style="fill:#f4bf6e;fill-rule:nonzero;"/><path d="M1710.36,974.995l0,169.45l-32.108,-0.454l-0,-218.475l20.842,32.108l11.266,17.371Z" style="fill:#f4bf6e;fill-rule:nonzero;"/><path d="M1729.75,1123.52l0,63.754l-253.842,0l0,-63.795c34.667,28.058 78.863,44.816 126.942,44.816c48.079,0 92.196,-16.758 126.9,-44.775Z" style="fill:#4479c2;fill-rule:nonzero;"/><path d="M1707.94,1176.55l-208.191,0l-0,-73.25c-0,-34.379 27.871,-62.246 62.246,-62.246l83.7,0c34.375,0 62.245,27.867 62.245,62.246l0,73.25Z" style="fill:#6a93cb;fill-rule:nonzero;"/><path d="M1502.67,1173.62l202.342,0l-0,-70.325c-0,-32.712 -26.613,-59.321 -59.321,-59.321l-83.7,0c-32.709,0 -59.321,26.609 -59.321,59.321l-0,70.325Zm208.187,5.854l-214.033,0l0,-76.179c0,-35.933 29.233,-65.175 65.167,-65.175l83.7,0c35.933,0 65.166,29.242 65.166,65.175l0,76.179Z" style="fill:#4479c2;fill-rule:nonzero;"/><rect x="1527.65" y="1006.12" width="150.608" height="5.85" style="fill:#4479c2;fill-rule:nonzero;"/><path d="M1479.59,1193.09l-52.946,-0c-11.759,-0 -21.292,-9.529 -21.292,-21.288l-0,-123.72c-0,-34.071 27.621,-61.692 61.687,-61.692l12.551,-0l-0,206.7Z" style="fill:#6a93cb;fill-rule:nonzero;"/><path d="M1800.57,1048.08l-0,123.72c-0,11.763 -9.534,21.296 -21.296,21.296l-52.946,0l0,-206.712l12.546,-0c20.262,-0 38.254,9.779 49.479,24.841c1.279,1.696 2.438,3.43 3.508,5.242c5.53,9.246 8.709,20.058 8.709,31.613Z" style="fill:#6a93cb;fill-rule:nonzero;"/><rect x="1476.66" y="986.395" width="5.85" height="206.696" style="fill:#4479c2;fill-rule:nonzero;"/><rect x="1723.41" y="986.395" width="5.85" height="206.696" style="fill:#4479c2;fill-rule:nonzero;"/><path d="M1414.05,1016.47l63.1,94.05l2.434,-1.608l2.433,-1.65l-2.433,-3.634l-62.026,-92.4l-3.508,5.242Z" style="fill:#4479c2;fill-rule:nonzero;"/><path d="M1791.86,1016.47l-63.099,94.05l-2.434,-1.608l-2.433,-1.65l2.433,-3.634l62.025,-92.4c1.279,1.696 2.438,3.43 3.508,5.242Z" style="fill:#4479c2;fill-rule:nonzero;"/><path d="M1601.06,1018.5l-3.188,0c-0.762,0 -1.383,-0.616 -1.383,-1.383l-0,-3.183c-0,-0.767 0.621,-1.384 1.383,-1.384l3.188,0c0.762,0 1.383,0.617 1.383,1.384l-0,3.183c-0,0.767 -0.621,1.383 -1.383,1.383Z" style="fill:#fff;fill-rule:nonzero;"/><path d="M1601.06,1033.89l-3.188,-0c-0.762,-0 -1.383,-0.621 -1.383,-1.383l-0,-12.071c-0,-0.763 0.621,-1.384 1.383,-1.384l3.188,0c0.762,0 1.383,0.621 1.383,1.384l-0,12.071c-0,0.762 -0.621,1.383 -1.383,1.383Z" style="fill:#fff;fill-rule:nonzero;"/><path d="M1616.11,1018.5l-3.187,0c-0.767,0 -1.383,-0.616 -1.383,-1.383l-0,-3.183c-0,-0.767 0.616,-1.384 1.383,-1.384l3.187,0c0.763,0 1.384,0.617 1.384,1.384l-0,3.183c-0,0.767 -0.621,1.383 -1.384,1.383Z" style="fill:#fff;fill-rule:nonzero;"/><path d="M1616.11,1033.89l-3.187,-0c-0.767,-0 -1.383,-0.621 -1.383,-1.383l-0,-12.071c-0,-0.763 0.616,-1.384 1.383,-1.384l3.187,0c0.763,0 1.384,0.621 1.384,1.384l-0,12.071c-0,0.762 -0.621,1.383 -1.384,1.383Z" style="fill:#fff;fill-rule:nonzero;"/><path d="M1754.58,1081.67l-3.187,-0c-0.767,-0 -1.388,-0.621 -1.388,-1.383l0,-3.188c0,-0.767 0.621,-1.383 1.388,-1.383l3.187,-0c0.763,-0 1.384,0.616 1.384,1.383l-0,3.188c-0,0.762 -0.621,1.383 -1.384,1.383Z" style="fill:#fff;fill-rule:nonzero;"/><path d="M1754.58,1097.05l-3.187,0c-0.767,0 -1.388,-0.621 -1.388,-1.387l0,-12.067c0,-0.762 0.621,-1.383 1.388,-1.383l3.187,-0c0.763,-0 1.384,0.621 1.384,1.383l-0,12.067c-0,0.766 -0.621,1.387 -1.384,1.387Z" style="fill:#fff;fill-rule:nonzero;"/><path d="M1454.94,1081.67l-3.188,-0c-0.767,-0 -1.383,-0.621 -1.383,-1.383l-0,-3.188c-0,-0.767 0.616,-1.383 1.383,-1.383l3.188,-0c0.762,-0 1.383,0.616 1.383,1.383l0,3.188c0,0.762 -0.621,1.383 -1.383,1.383Z" style="fill:#fff;fill-rule:nonzero;"/><path d="M1454.94,1097.05l-3.188,0c-0.767,0 -1.383,-0.621 -1.383,-1.387l-0,-12.067c-0,-0.762 0.616,-1.383 1.383,-1.383l3.188,-0c0.762,-0 1.383,0.621 1.383,1.383l0,12.067c0,0.766 -0.621,1.387 -1.383,1.387Z" style="fill:#fff;fill-rule:nonzero;"/><path d="M1334.61,1075.65l-0,-53.279c-0,-15.4 -12.471,-27.871 -27.817,-27.871l-140.429,0l-0,19.425l135.945,0c5.517,0 10.059,4.484 10.059,10.059l-0,50.058c-0,5.575 -4.542,10.058 -10.059,10.058l-135.945,0l-0,19.425l140.429,0c15.346,0 27.817,-12.47 27.817,-27.875Z" style="fill:#b0bcc8;fill-rule:nonzero;"/><path d="M1255.38,1187.05l-294.208,0c-16.838,0 -31.609,-8.737 -40.059,-21.954c-4.77,-7.416 -7.471,-16.154 -7.471,-25.579l0,-180.808c0,-26.209 21.267,-47.529 47.53,-47.529l294.208,-0c26.267,-0 47.587,21.32 47.587,47.529l0,180.808c0,1.783 -0.112,3.567 -0.283,5.292c-2.646,23.791 -22.817,42.241 -47.304,42.241Z" style="fill:#d85b66;fill-rule:nonzero;"/><path d="M921.625,1165.16c-0.171,-0 -0.342,-0.059 -0.517,-0.059c-4.77,-7.416 -7.471,-16.154 -7.471,-25.579l0,-21.608c4.771,2.646 7.988,7.704 7.988,13.566l0,33.68Z" style="fill:#282a41;fill-rule:nonzero;"/><path d="M921.625,932.833c-0.171,-0 -0.342,0.058 -0.517,0.058c-4.77,7.412 -7.471,16.15 -7.471,25.571l0,21.612c4.771,-2.641 7.988,-7.7 7.988,-13.562l0,-33.679Z" style="fill:#282a41;fill-rule:nonzero;"/><path d="M900.083,1131.9l0,20.292c0,4.713 3.817,8.533 8.53,8.533l10.866,0l0,-37.358l-10.866,0c-4.713,0 -8.53,3.821 -8.53,8.533Z" style="fill:#282a41;fill-rule:nonzero;"/><path d="M901.262,1152.78c0.446,0 0.838,0 1.284,0.05l-0,-20.487c-1.284,-0.146 -2.567,-0.25 -3.9,-0.25c-10.713,-0 -20.146,5.287 -25.871,13.383l14.317,0l-0,14.367c3.258,-4.296 8.396,-7.063 14.17,-7.063Z" style="fill:#282a41;fill-rule:nonzero;"/><path d="M875.742,1137.15c9.687,0 17.537,7.854 17.537,17.538c0,9.683 -7.85,17.537 -17.537,17.537c-9.684,0 -17.538,-7.854 -17.538,-17.537c0,-9.684 7.854,-17.538 17.538,-17.538Z" style="fill:#282a41;fill-rule:nonzero;"/><path d="M875.742,1144.81c5.454,-0 9.875,4.421 9.875,9.875c-0,5.454 -4.421,9.875 -9.875,9.875c-5.45,-0 -9.871,-4.421 -9.871,-9.875c-0,-5.454 4.421,-9.875 9.871,-9.875Z" style="fill:#fff;fill-rule:nonzero;"/><path d="M900.083,965.049l0,-20.296c0,-4.712 3.817,-8.533 8.53,-8.533l10.866,0l0,37.358l-10.866,0c-4.713,0 -8.53,-3.816 -8.53,-8.529Z" style="fill:#282a41;fill-rule:nonzero;"/><path d="M887.092,937.112l-0,14.371l-14.317,-0c5.725,8.095 15.158,13.375 25.871,13.375c1.333,-0 2.616,-0.096 3.9,-0.246l-0,-20.488c-0.446,0.05 -0.838,0.05 -1.284,0.05c-5.774,0 -10.912,-2.766 -14.17,-7.062Z" style="fill:#282a41;fill-rule:nonzero;"/><path d="M875.742,959.803c9.687,0 17.537,-7.85 17.537,-17.537c0,-9.688 -7.85,-17.538 -17.537,-17.538c-9.684,0 -17.538,7.85 -17.538,17.538c0,9.687 7.854,17.537 17.538,17.537Z" style="fill:#282a41;fill-rule:nonzero;"/><path d="M875.742,952.141c5.454,-0 9.875,-4.421 9.875,-9.875c-0,-5.454 -4.421,-9.871 -9.875,-9.871c-5.45,0 -9.871,4.417 -9.871,9.871c-0,5.454 4.421,9.875 9.871,9.875Z" style="fill:#fff;fill-rule:nonzero;"/><path d="M1255.38,1187.05l-4.883,0l-0,-23.05c-0,-10.575 8.621,-19.191 19.196,-19.191l32.991,-0c-2.646,23.791 -22.817,42.241 -47.304,42.241Z" style="fill:#23253c;fill-rule:nonzero;"/><path d="M1255.38,911.183l-4.883,-0l-0,23.041c-0,10.575 8.621,19.196 19.196,19.196l32.991,0c-2.646,-23.792 -22.817,-42.237 -47.304,-42.237Z" style="fill:#23253c;fill-rule:nonzero;"/><path d="M913.637,1013.22l0,-7.904l295.546,-0c2.184,-0 3.95,1.766 3.95,3.954c0,2.179 -1.766,3.95 -3.95,3.95l-295.546,-0Z" style="fill:#bc4f59;fill-rule:nonzero;"/><path d="M913.637,1033.09l0,-7.9l295.546,-0c2.184,-0 3.95,1.771 3.95,3.95c0,2.187 -1.766,3.95 -3.95,3.95l-295.546,-0Z" style="fill:#bc4f59;fill-rule:nonzero;"/><path d="M913.637,1052.97l0,-7.9l295.546,-0c2.184,-0 3.95,1.767 3.95,3.95c0,2.179 -1.766,3.95 -3.95,3.95l-295.546,-0Z" style="fill:#bc4f59;fill-rule:nonzero;"/><path d="M913.637,1072.85l0,-7.904l295.546,-0c2.184,-0 3.95,1.771 3.95,3.95c0,2.183 -1.766,3.954 -3.95,3.954l-295.546,0Z" style="fill:#bc4f59;fill-rule:nonzero;"/><path d="M913.637,1092.72l0,-7.9l295.546,0c2.184,0 3.95,1.763 3.95,3.95c0,2.179 -1.766,3.95 -3.95,3.95l-295.546,0Z" style="fill:#bc4f59;fill-rule:nonzero;"/><path d="M1313.23,1117.05l0,-136.075c0,-5.675 -4.6,-10.27 -10.271,-10.27l0,156.616c5.671,0 10.271,-4.6 10.271,-10.271Z" style="fill:#23253c;fill-rule:nonzero;"/><path d="M1235.18,911.712c0,-5.675 -4.6,-10.271 -10.266,-10.271l-233.784,-0c-5.675,-0 -10.271,4.596 -10.271,10.271l254.321,-0Z" style="fill:#23253c;fill-rule:nonzero;"/><path d="M967.433,1178.93l0,8.12l258.63,0l-0,-8.12c-0,-23.075 -18.705,-41.784 -41.784,-41.784l-175.062,0c-23.075,0 -41.784,18.709 -41.784,41.784Z" style="fill:#bc4f59;fill-rule:nonzero;"/><path d="M967.433,920.278l0,-8.116l258.63,-0l-0,8.116c-0,23.075 -18.705,41.788 -41.784,41.788l-175.062,-0c-23.075,-0 -41.784,-18.713 -41.784,-41.788Z" style="fill:#bc4f59;fill-rule:nonzero;"/><path d="M725.813,939.091l-0,231.408c-0,8.421 -6.763,15.179 -15.18,15.179l-418.275,0c-8.421,0 -15.245,-6.758 -15.245,-15.179l-0,-231.408c-0,-8.421 6.824,-15.246 15.245,-15.246l418.275,0c8.417,0 15.18,6.825 15.18,15.246Z" style="fill:#ffc412;fill-rule:nonzero;"/><rect x="281.154" y="966.949" width="439.983" height="6.629" style="fill:#bd7e1c;fill-rule:nonzero;"/><rect x="281.154" y="1142.62" width="439.983" height="6.625" style="fill:#bd7e1c;fill-rule:nonzero;"/><path d="M341.546,923.845l-33.813,29.829l-30.62,27.042l-0,-41.625c-0,-8.421 6.824,-15.246 15.245,-15.246l49.188,0Z" style="fill:#d69838;fill-rule:nonzero;"/><path d="M341.546,1185.68l-33.813,-29.829l-30.62,-27.046l-0,41.625c-0,8.421 6.824,15.25 15.245,15.25l49.188,0Z" style="fill:#d69838;fill-rule:nonzero;"/><path d="M661.379,923.845l33.809,29.829l30.625,27.042l-0,-41.625c-0,-8.421 -6.825,-15.246 -15.246,-15.246l-49.188,0Z" style="fill:#d69838;fill-rule:nonzero;"/><path d="M661.379,1185.68l33.809,-29.829l30.625,-27.046l-0,41.625c-0,8.421 -6.825,15.25 -15.246,15.25l-49.188,0Z" style="fill:#d69838;fill-rule:nonzero;"/><path d="M380.454,914.049l0.354,0c5.509,0 9.975,4.463 9.975,9.975l0,261.654l-20.3,0l0,-261.654c0,-5.512 4.463,-9.975 9.971,-9.975Z" style="fill:#bd7e1c;fill-rule:nonzero;"/><path d="M417.642,1053.17l-0,19.292l-26.317,-0c-2.383,-3.384 -6.296,-5.571 -10.671,-5.571c-4.441,-0 -8.35,2.187 -10.671,5.571l-26.383,-0l-0,-19.292l26.712,0c2.321,3.183 6.1,5.171 10.342,5.171c4.175,-0 7.954,-1.988 10.342,-5.171l26.646,0Z" style="fill:#d69838;fill-rule:nonzero;"/><path d="M624.196,914.049l0.354,0c5.504,0 9.971,4.463 9.971,9.975l-0,261.654l-20.3,0l-0,-261.654c-0,-5.512 4.462,-9.975 9.975,-9.975Z" style="fill:#bd7e1c;fill-rule:nonzero;"/><path d="M661.379,1053.17l0,19.292l-26.312,-0c-2.388,-3.384 -6.3,-5.571 -10.675,-5.571c-4.438,-0 -8.35,2.187 -10.671,5.571l-26.384,-0l0,-19.292l26.717,0c2.317,3.183 6.096,5.171 10.338,5.171c4.175,-0 7.958,-1.988 10.341,-5.171l26.646,0Z" style="fill:#d69838;fill-rule:nonzero;"/><rect x="458.754" y="896.249" width="6.625" height="27.592" style="fill:#d69838;fill-rule:nonzero;"/><rect x="531.942" y="896.249" width="6.629" height="27.592" style="fill:#d69838;fill-rule:nonzero;"/><path d="M539.4,896.249l-79.542,0c-3.966,0 -7.183,-3.221 -7.183,-7.183l-0,-1.383c-0,-3.967 3.217,-7.184 7.183,-7.184l79.542,0c3.967,0 7.183,3.217 7.183,7.184l0,1.383c0,3.962 -3.216,7.183 -7.183,7.183Z" style="fill:#f4bf6e;fill-rule:nonzero;"/><path d="M496.317,948.72c-0,-3.962 3.212,-7.179 7.179,-7.179c3.967,-0 7.183,3.217 7.183,7.179c0,3.971 -3.216,7.183 -7.183,7.183c-3.967,0 -7.179,-3.212 -7.179,-7.183Z" style="fill:#f2c641;fill-rule:nonzero;"/><path d="M290.546,945.099c-0,-3.966 3.212,-7.179 7.183,-7.179c3.963,0 7.179,3.213 7.179,7.179c0,3.963 -3.216,7.184 -7.179,7.184c-3.971,-0 -7.183,-3.221 -7.183,-7.184Z" style="fill:#f4bf6e;fill-rule:nonzero;"/><path d="M697.388,945.099c-0,-3.966 3.216,-7.179 7.179,-7.179c3.966,0 7.183,3.213 7.183,7.179c0,3.963 -3.217,7.184 -7.183,7.184c-3.963,-0 -7.179,-3.221 -7.179,-7.184Z" style="fill:#f4bf6e;fill-rule:nonzero;"/><path d="M290.862,1164.42c0,-3.962 3.213,-7.179 7.18,-7.179c3.966,-0 7.179,3.217 7.179,7.179c-0,3.967 -3.213,7.183 -7.179,7.183c-3.967,0 -7.18,-3.216 -7.18,-7.183Z" style="fill:#f4bf6e;fill-rule:nonzero;"/><path d="M697.7,1164.42c-0,-3.962 3.217,-7.179 7.183,-7.179c3.967,-0 7.18,3.217 7.18,7.179c-0,3.967 -3.213,7.183 -7.18,7.183c-3.966,0 -7.183,-3.216 -7.183,-7.183Z" style="fill:#f4bf6e;fill-rule:nonzero;"/><path d="M496.317,1163.05c-0,-3.966 3.212,-7.183 7.179,-7.183c3.967,0 7.183,3.217 7.183,7.183c0,3.967 -3.216,7.184 -7.183,7.184c-3.967,-0 -7.179,-3.217 -7.179,-7.184Z" style="fill:#f2c641;fill-rule:nonzero;"/></svg>
