<svg width="1282" height="556" viewBox="0 0 1282 556" fill="none" xmlns="http://www.w3.org/2000/svg">
<path d="M691 459.02H13V459.359H691V459.02Z" fill="#EBEBEB"/>
<path d="M623.064 480.838H578.154V481.177H623.064V480.838Z" fill="#EBEBEB"/>
<path d="M462.134 484.526H450.351V484.865H462.134V484.526Z" fill="#EBEBEB"/>
<path d="M576.798 468.254H512.157V468.593H576.798V468.254Z" fill="#EBEBEB"/>
<path d="M116.246 470.532H84.1357V470.871H116.246V470.532Z" fill="#EBEBEB"/>
<path d="M163.367 470.532H128.314V470.871H163.367V470.532Z" fill="#EBEBEB"/>
<path d="M278.925 476.254H191.273V476.593H278.925V476.254Z" fill="#EBEBEB"/>
<path d="M334.372 398.542H72.5419C70.4908 398.538 68.5249 397.721 67.0758 396.269C65.6266 394.818 64.8127 392.85 64.8127 390.799V22.7401C64.8306 20.7007 65.6524 18.7507 67.0996 17.3137C68.5468 15.8767 70.5025 15.0686 72.5419 15.0652H334.372C336.426 15.0652 338.395 15.8809 339.847 17.333C341.299 18.785 342.115 20.7544 342.115 22.8079V390.799C342.115 392.853 341.299 394.822 339.847 396.274C338.395 397.726 336.426 398.542 334.372 398.542V398.542ZM72.5419 15.3364C70.5807 15.3399 68.701 16.1216 67.3155 17.5097C65.9299 18.8977 65.1517 20.7789 65.1517 22.7401V390.799C65.1517 392.76 65.9299 394.642 67.3155 396.03C68.701 397.418 70.5807 398.199 72.5419 398.203H334.372C336.335 398.199 338.216 397.418 339.603 396.03C340.991 394.643 341.772 392.762 341.776 390.799V22.7401C341.772 20.7776 340.991 18.8965 339.603 17.5088C338.216 16.1211 336.335 15.3399 334.372 15.3364H72.5419Z" fill="#EBEBEB"/>
<path d="M627.688 398.542H365.845C363.792 398.538 361.825 397.721 360.374 396.27C358.922 394.819 358.106 392.852 358.102 390.799V22.7401C358.123 20.6995 358.948 18.7495 360.398 17.3129C361.847 15.8762 363.804 15.0686 365.845 15.0652H627.688C629.725 15.0722 631.678 15.8818 633.122 17.3185C634.566 18.7551 635.386 20.7031 635.404 22.7401V390.799C635.404 392.848 634.592 394.813 633.146 396.265C631.7 397.716 629.737 398.535 627.688 398.542V398.542ZM365.845 15.3364C363.882 15.3399 362.001 16.1211 360.613 17.5088C359.226 18.8965 358.445 20.7776 358.441 22.7401V390.799C358.445 392.762 359.226 394.643 360.613 396.03C362.001 397.418 363.882 398.199 365.845 398.203H627.688C629.651 398.199 631.532 397.418 632.92 396.03C634.307 394.643 635.089 392.762 635.092 390.799V22.7401C635.089 20.7776 634.307 18.8965 632.92 17.5088C631.532 16.1211 629.651 15.3399 627.688 15.3364H365.845Z" fill="#EBEBEB"/>
<path d="M231.777 401.376L464.684 0H583.171L350.264 401.376H231.777Z" fill="#FAFAFA"/>
<path d="M66.8739 401.376L185.795 196.43H246.3L127.379 401.376H66.8739Z" fill="#FAFAFA"/>
<path d="M471.314 278.441L566.492 114.419H614.915L519.737 278.441H471.314Z" fill="#FAFAFA"/>
<path d="M397.687 370.023V0H374.868V370.023H0V459H650V370.023H397.687Z" fill="#F0F0F0"/>
<path d="M646.957 157.811H467.626C464.41 157.764 461.326 156.526 458.969 154.337C456.613 152.148 455.151 149.164 454.866 145.96L448.276 59.2708C448.133 57.7539 448.311 56.2239 448.799 54.7805C449.286 53.337 450.073 52.0125 451.106 50.8931C452.14 49.7738 453.398 48.8847 454.798 48.2839C456.198 47.683 457.709 47.3838 459.232 47.4058H638.523C641.74 47.4568 644.824 48.6976 647.181 50.8886C649.537 53.0797 650.998 56.0658 651.283 59.2708L657.914 145.96C658.055 147.476 657.875 149.004 657.386 150.446C656.898 151.888 656.111 153.211 655.078 154.328C654.044 155.446 652.787 156.334 651.388 156.934C649.989 157.534 648.479 157.833 646.957 157.811Z" fill="#E6E6E6"/>
<path d="M643.106 157.811H463.775C460.56 157.761 457.477 156.522 455.121 154.333C452.765 152.145 451.303 149.162 451.015 145.96L444.398 59.2708C444.255 57.7539 444.433 56.2239 444.921 54.7805C445.408 53.337 446.195 52.0125 447.228 50.8931C448.262 49.7738 449.52 48.8847 450.92 48.2839C452.32 47.683 453.831 47.3838 455.354 47.4058H634.672C637.89 47.4565 640.976 48.6968 643.335 50.8876C645.693 53.0784 647.158 56.0646 647.445 59.2708L654.063 145.96C654.204 147.476 654.024 149.004 653.535 150.446C653.047 151.888 652.26 153.211 651.227 154.328C650.193 155.446 648.936 156.334 647.537 156.934C646.138 157.534 644.628 157.833 643.106 157.811Z" fill="#F0F0F0"/>
<path d="M488.631 61.3861H460.005V64.0981H488.631V61.3861Z" fill="white"/>
<path d="M563.739 61.3861H498.543V64.0981H563.739V61.3861Z" fill="white"/>
<path d="M628.705 61.3861H580.825V64.0981H628.705V61.3861Z" fill="white"/>
<path d="M489.403 71.6239H460.778V74.3359H489.403V71.6239Z" fill="white"/>
<path d="M543.115 71.6239H499.329V74.3359H543.115V71.6239Z" fill="white"/>
<path d="M629.492 71.6239H581.611V74.3359H629.492V71.6239Z" fill="white"/>
<path d="M490.19 81.8482H461.565V84.5602H490.19V81.8482Z" fill="white"/>
<path d="M556.648 81.8482H500.116V84.5602H556.648V81.8482Z" fill="white"/>
<path d="M630.265 81.8482H582.384V84.5602H630.265V81.8482Z" fill="white"/>
<path d="M490.976 92.0859H462.351V94.798H490.976V92.0859Z" fill="white"/>
<path d="M563.197 92.0859H500.889V94.798H563.197V92.0859Z" fill="white"/>
<path d="M631.051 92.0859H583.171V94.798H631.051V92.0859Z" fill="white"/>
<path d="M491.749 102.31H463.124V105.022H491.749V102.31Z" fill="white"/>
<path d="M523.561 102.31H501.675V105.022H523.561V102.31Z" fill="white"/>
<path d="M546.654 102.31H531.019V105.022H546.654V102.31Z" fill="white"/>
<path d="M631.824 102.31H583.944V105.022H631.824V102.31Z" fill="white"/>
<path d="M492.536 112.534H463.911V115.246H492.536V112.534Z" fill="white"/>
<path d="M567.645 112.534H502.448V115.246H567.645V112.534Z" fill="white"/>
<path d="M632.611 112.534H584.73V115.246H632.611V112.534Z" fill="white"/>
<path d="M493.309 122.772H464.684V125.484H493.309V122.772Z" fill="white"/>
<path d="M552.552 122.772H503.235V125.484H552.552V122.772Z" fill="white"/>
<path d="M633.397 122.772H585.517V125.484H633.397V122.772Z" fill="white"/>
<path d="M494.095 132.996H465.47V135.708H494.095V132.996Z" fill="white"/>
<path d="M547.806 132.996H504.021V135.708H547.806V132.996Z" fill="white"/>
<path d="M569.204 132.996H555.495V135.708H569.204V132.996Z" fill="white"/>
<path d="M634.17 132.996H586.29V135.708H634.17V132.996Z" fill="white"/>
<path d="M494.882 143.221H466.257V145.933H494.882V143.221Z" fill="white"/>
<path d="M565.421 143.221H504.794V145.933H565.421V143.221Z" fill="white"/>
<path d="M634.956 143.221H587.076V145.933H634.956V143.221Z" fill="white"/>
<path d="M1282 459.02H604V459.359H1282V459.02Z" fill="#EBEBEB"/>
<path d="M1214.06 480.838H1169.15V481.177H1214.06V480.838Z" fill="#EBEBEB"/>
<path d="M1053.13 484.526H1041.35V484.865H1053.13V484.526Z" fill="#EBEBEB"/>
<path d="M1167.8 468.254H1103.16V468.593H1167.8V468.254Z" fill="#EBEBEB"/>
<path d="M707.246 470.532H675.136V470.871H707.246V470.532Z" fill="#EBEBEB"/>
<path d="M754.367 470.532H719.314V470.871H754.367V470.532Z" fill="#EBEBEB"/>
<path d="M869.925 476.254H782.273V476.593H869.925V476.254Z" fill="#EBEBEB"/>
<path d="M925.372 398.542H663.542C661.491 398.538 659.525 397.721 658.076 396.269C656.627 394.818 655.813 392.85 655.813 390.799V22.7401C655.831 20.7007 656.652 18.7507 658.1 17.3137C659.547 15.8767 661.502 15.0686 663.542 15.0652H925.372C927.426 15.0652 929.395 15.8809 930.847 17.333C932.299 18.785 933.115 20.7544 933.115 22.8079V390.799C933.115 392.853 932.299 394.822 930.847 396.274C929.395 397.726 927.426 398.542 925.372 398.542V398.542ZM663.542 15.3364C661.581 15.3399 659.701 16.1216 658.315 17.5097C656.93 18.8977 656.152 20.7789 656.152 22.7401V390.799C656.152 392.76 656.93 394.642 658.315 396.03C659.701 397.418 661.581 398.199 663.542 398.203H925.372C927.335 398.199 929.216 397.418 930.603 396.03C931.991 394.643 932.772 392.762 932.776 390.799V22.7401C932.772 20.7776 931.991 18.8965 930.603 17.5088C929.216 16.1211 927.335 15.3399 925.372 15.3364H663.542Z" fill="#EBEBEB"/>
<path d="M1218.69 398.542H956.845C954.792 398.538 952.825 397.721 951.374 396.27C949.922 394.819 949.106 392.852 949.102 390.799V22.7401C949.123 20.6995 949.948 18.7495 951.398 17.3129C952.847 15.8762 954.804 15.0686 956.845 15.0652H1218.69C1220.73 15.0722 1222.68 15.8818 1224.12 17.3185C1225.57 18.7551 1226.39 20.7031 1226.4 22.7401V390.799C1226.4 392.848 1225.59 394.813 1224.15 396.265C1222.7 397.716 1220.74 398.535 1218.69 398.542V398.542ZM956.845 15.3364C954.882 15.3399 953.001 16.1211 951.613 17.5088C950.226 18.8965 949.445 20.7776 949.441 22.7401V390.799C949.445 392.762 950.226 394.643 951.613 396.03C953.001 397.418 954.882 398.199 956.845 398.203H1218.69C1220.65 398.199 1222.53 397.418 1223.92 396.03C1225.31 394.643 1226.09 392.762 1226.09 390.799V22.7401C1226.09 20.7776 1225.31 18.8965 1223.92 17.5088C1222.53 16.1211 1220.65 15.3399 1218.69 15.3364H956.845Z" fill="#EBEBEB"/>
<path d="M822.777 401.376L1055.68 0H1174.17L941.264 401.376H822.777Z" fill="#FAFAFA"/>
<path d="M657.874 401.376L776.795 196.43H837.3L718.379 401.376H657.874Z" fill="#FAFAFA"/>
<path d="M1062.31 278.441L1157.49 114.419H1205.91L1110.74 278.441H1062.31Z" fill="#FAFAFA"/>
<path d="M981.5 370.023V0H960V370.023H646V459H1282V370.023H981.5Z" fill="#F0F0F0"/>
<path d="M1237.96 157.811H1058.63C1055.41 157.764 1052.33 156.526 1049.97 154.337C1047.61 152.148 1046.15 149.164 1045.87 145.96L1039.28 59.2708C1039.13 57.7539 1039.31 56.2239 1039.8 54.7805C1040.29 53.337 1041.07 52.0125 1042.11 50.8931C1043.14 49.7738 1044.4 48.8847 1045.8 48.2839C1047.2 47.683 1048.71 47.3838 1050.23 47.4058H1229.52C1232.74 47.4568 1235.82 48.6976 1238.18 50.8886C1240.54 53.0797 1242 56.0658 1242.28 59.2708L1248.91 145.96C1249.05 147.476 1248.87 149.004 1248.39 150.446C1247.9 151.888 1247.11 153.211 1246.08 154.328C1245.04 155.446 1243.79 156.334 1242.39 156.934C1240.99 157.534 1239.48 157.833 1237.96 157.811Z" fill="#E6E6E6"/>
<path d="M1234.11 157.811H1054.78C1051.56 157.761 1048.48 156.522 1046.12 154.333C1043.77 152.145 1042.3 149.162 1042.02 145.96L1035.4 59.2708C1035.25 57.7539 1035.43 56.2239 1035.92 54.7805C1036.41 53.337 1037.19 52.0125 1038.23 50.8931C1039.26 49.7738 1040.52 48.8847 1041.92 48.2839C1043.32 47.683 1044.83 47.3838 1046.35 47.4058H1225.67C1228.89 47.4565 1231.98 48.6968 1234.33 50.8876C1236.69 53.0784 1238.16 56.0646 1238.45 59.2708L1245.06 145.96C1245.2 147.476 1245.02 149.004 1244.54 150.446C1244.05 151.888 1243.26 153.211 1242.23 154.328C1241.19 155.446 1239.94 156.334 1238.54 156.934C1237.14 157.534 1235.63 157.833 1234.11 157.811Z" fill="#F0F0F0"/>
<path d="M1079.63 61.3861H1051.01V64.0981H1079.63V61.3861Z" fill="white"/>
<path d="M1154.74 61.3861H1089.54V64.0981H1154.74V61.3861Z" fill="white"/>
<path d="M1219.71 61.3861H1171.83V64.0981H1219.71V61.3861Z" fill="white"/>
<path d="M1080.4 71.6239H1051.78V74.3359H1080.4V71.6239Z" fill="white"/>
<path d="M1134.11 71.6239H1090.33V74.3359H1134.11V71.6239Z" fill="white"/>
<path d="M1220.49 71.6239H1172.61V74.3359H1220.49V71.6239Z" fill="white"/>
<path d="M1081.19 81.8482H1052.56V84.5602H1081.19V81.8482Z" fill="white"/>
<path d="M1147.65 81.8482H1091.12V84.5602H1147.65V81.8482Z" fill="white"/>
<path d="M1221.26 81.8482H1173.38V84.5602H1221.26V81.8482Z" fill="white"/>
<path d="M1081.98 92.0859H1053.35V94.798H1081.98V92.0859Z" fill="white"/>
<path d="M1154.2 92.0859H1091.89V94.798H1154.2V92.0859Z" fill="white"/>
<path d="M1222.05 92.0859H1174.17V94.798H1222.05V92.0859Z" fill="white"/>
<path d="M1082.75 102.31H1054.12V105.022H1082.75V102.31Z" fill="white"/>
<path d="M1114.56 102.31H1092.68V105.022H1114.56V102.31Z" fill="white"/>
<path d="M1137.65 102.31H1122.02V105.022H1137.65V102.31Z" fill="white"/>
<path d="M1222.82 102.31H1174.94V105.022H1222.82V102.31Z" fill="white"/>
<path d="M1083.54 112.534H1054.91V115.246H1083.54V112.534Z" fill="white"/>
<path d="M1158.64 112.534H1093.45V115.246H1158.64V112.534Z" fill="white"/>
<path d="M1223.61 112.534H1175.73V115.246H1223.61V112.534Z" fill="white"/>
<path d="M1084.31 122.772H1055.68V125.484H1084.31V122.772Z" fill="white"/>
<path d="M1143.55 122.772H1094.23V125.484H1143.55V122.772Z" fill="white"/>
<path d="M1224.4 122.772H1176.52V125.484H1224.4V122.772Z" fill="white"/>
<path d="M1085.1 132.996H1056.47V135.708H1085.1V132.996Z" fill="white"/>
<path d="M1138.81 132.996H1095.02V135.708H1138.81V132.996Z" fill="white"/>
<path d="M1160.2 132.996H1146.49V135.708H1160.2V132.996Z" fill="white"/>
<path d="M1225.17 132.996H1177.29V135.708H1225.17V132.996Z" fill="white"/>
<path d="M1085.88 143.221H1057.26V145.933H1085.88V143.221Z" fill="white"/>
<path d="M1156.42 143.221H1095.79V145.933H1156.42V143.221Z" fill="white"/>
<path d="M1225.96 143.221H1178.08V145.933H1225.96V143.221Z" fill="white"/>
<path d="M316 555.771C461.204 555.771 578.915 548.899 578.915 540.421C578.915 531.944 461.204 525.072 316 525.072C170.796 525.072 53.0851 531.944 53.0851 540.421C53.0851 548.899 170.796 555.771 316 555.771Z" fill="#F5F5F5"/>
<path d="M304.296 89.2806L150.838 123.954L123.257 121.242C120.633 120.973 118.089 120.179 115.778 118.907C113.467 117.635 111.436 115.911 109.805 113.838L270.667 77.497C279.359 75.5336 288.376 75.5011 297.082 77.4021L299.455 77.9173C302.185 78.5218 304.668 79.9403 306.574 81.9853C307.089 82.559 307.445 83.2565 307.609 84.0094C307.773 84.7623 307.738 85.5449 307.508 86.2804C307.279 87.0159 306.862 87.6791 306.299 88.205C305.736 88.731 305.046 89.1016 304.296 89.2806Z" fill="#CFD8DC"/>
<path opacity="0.3" d="M169.189 126.75L91.766 144.269L92.0653 145.592L169.488 128.073L169.189 126.75Z" fill="#CFD8DC"/>
<path opacity="0.3" d="M109.511 135.095L74 143.13L74.2993 144.453L109.81 136.417L109.511 135.095Z" fill="#CFD8DC"/>
<path opacity="0.3" d="M94.4277 105.938L76.6656 109.958L76.9649 111.28L94.727 107.261L94.4277 105.938Z" fill="#CFD8DC"/>
<path opacity="0.1" d="M306.574 81.9175C306.094 81.3969 305.573 80.9162 305.015 80.4802L124.409 121.282L150.838 123.994L304.296 89.2806C305.063 89.1155 305.773 88.7493 306.351 88.2194C306.93 87.6895 307.357 87.0151 307.589 86.2655C307.821 85.5159 307.849 84.7181 307.671 83.954C307.493 83.1898 307.114 82.487 306.574 81.9175Z" fill="white"/>
<path opacity="0.5" d="M297.082 77.3343C294.694 76.8162 292.275 76.4449 289.841 76.2224L261.365 82.6633C261.461 83.1003 261.643 83.5138 261.9 83.8798C262.157 84.2458 262.485 84.5571 262.863 84.7955C263.242 85.034 263.664 85.1949 264.105 85.2688C264.546 85.3427 264.998 85.3282 265.433 85.2262L298.777 77.6868L297.082 77.3343Z" fill="white"/>
<g opacity="0.5">
<path opacity="0.5" d="M255.923 85.6224L255.433 85.7331C254.929 85.847 254.613 86.348 254.727 86.852L255.062 88.3333C255.176 88.8373 255.677 89.1535 256.181 89.0396L256.67 88.9289C257.174 88.815 257.491 88.314 257.377 87.81L257.042 86.3287C256.928 85.8247 256.427 85.5085 255.923 85.6224Z" fill="white"/>
<path opacity="0.5" d="M250.505 86.8663L250.015 86.9767C249.511 87.0905 249.195 87.5914 249.309 88.0954L249.643 89.5769C249.757 90.0809 250.258 90.3973 250.762 90.2835L251.251 90.1731C251.755 90.0593 252.072 89.5584 251.958 89.0544L251.623 87.5729C251.51 87.0689 251.009 86.7525 250.505 86.8663Z" fill="white"/>
<path opacity="0.5" d="M245.096 88.0733L244.607 88.184C244.103 88.2979 243.787 88.7989 243.901 89.3029L244.235 90.7842C244.349 91.2882 244.85 91.6045 245.354 91.4905L245.844 91.3799C246.348 91.2659 246.664 90.7649 246.55 90.2609L246.215 88.7796C246.101 88.2756 245.6 87.9594 245.096 88.0733Z" fill="white"/>
<path opacity="0.5" d="M239.668 89.3072L239.179 89.4178C238.675 89.5318 238.358 90.0328 238.472 90.5368L238.807 92.0181C238.921 92.5221 239.422 92.8383 239.926 92.7244L240.416 92.6137C240.92 92.4998 241.236 91.9988 241.122 91.4948L240.787 90.0135C240.673 89.5094 240.172 89.1932 239.668 89.3072Z" fill="white"/>
<path opacity="0.5" d="M234.234 90.5322L233.745 90.6427C233.241 90.7565 232.924 91.2573 233.038 91.7614L233.372 93.2428C233.486 93.7469 233.987 94.0633 234.491 93.9495L234.98 93.839C235.485 93.7253 235.801 93.2244 235.687 92.7203L235.353 91.2389C235.239 90.7348 234.738 90.4185 234.234 90.5322Z" fill="white"/>
<path opacity="0.5" d="M228.839 91.7313L228.349 91.8419C227.845 91.9559 227.529 92.4569 227.643 92.9609L227.978 94.4422C228.092 94.9462 228.593 95.2624 229.097 95.1485L229.586 95.0378C230.09 94.9239 230.406 94.4229 230.293 93.9189L229.958 92.4376C229.844 91.9336 229.343 91.6173 228.839 91.7313Z" fill="white"/>
<path opacity="0.5" d="M223.406 92.9932L222.917 93.1037C222.412 93.2175 222.096 93.7183 222.21 94.2224L222.544 95.7038C222.658 96.2079 223.159 96.5243 223.663 96.4105L224.152 96.3C224.656 96.1862 224.973 95.6854 224.859 95.1813L224.525 93.6999C224.411 93.1958 223.91 92.8794 223.406 92.9932Z" fill="white"/>
<path opacity="0.5" d="M217.985 94.1852L217.496 94.2958C216.992 94.4098 216.676 94.9107 216.79 95.4148L217.125 96.8961C217.239 97.4001 217.74 97.7163 218.244 97.6024L218.733 97.4917C219.237 97.3778 219.553 96.8768 219.439 96.3728L219.104 94.8915C218.99 94.3874 218.489 94.0712 217.985 94.1852Z" fill="white"/>
<path opacity="0.5" d="M212.575 95.4274L212.085 95.5378C211.581 95.6516 211.265 96.1525 211.379 96.6565L211.713 98.138C211.827 98.6421 212.328 98.9584 212.832 98.8447L213.321 98.7342C213.825 98.6204 214.142 98.1195 214.028 97.6155L213.693 96.134C213.58 95.63 213.079 95.3136 212.575 95.4274Z" fill="white"/>
<path opacity="0.5" d="M207.159 96.6361L206.669 96.7468C206.165 96.8607 205.849 97.3617 205.963 97.8657L206.298 99.347C206.412 99.851 206.913 100.167 207.417 100.053L207.906 99.9427C208.41 99.8287 208.727 99.3277 208.613 98.8237L208.278 97.3424C208.164 96.8384 207.663 96.5222 207.159 96.6361Z" fill="white"/>
<path opacity="0.5" d="M201.72 97.8778L201.23 97.9882C200.726 98.102 200.41 98.6029 200.524 99.1069L200.858 100.588C200.972 101.092 201.473 101.409 201.977 101.295L202.466 101.185C202.97 101.071 203.287 100.57 203.173 100.066L202.838 98.5844C202.725 98.0804 202.224 97.764 201.72 97.8778Z" fill="white"/>
<path opacity="0.5" d="M196.303 99.1039L195.813 99.2145C195.309 99.3285 194.993 99.8294 195.107 100.333L195.442 101.815C195.556 102.319 196.057 102.635 196.561 102.521L197.05 102.41C197.554 102.296 197.87 101.796 197.756 101.291L197.422 99.8102C197.308 99.3061 196.807 98.9899 196.303 99.1039Z" fill="white"/>
<path opacity="0.5" d="M191.88 100.958L191.388 101.068C190.881 101.182 190.563 101.685 190.677 102.191L191.011 103.679C191.125 104.186 191.627 104.504 192.134 104.39L192.625 104.28C193.132 104.166 193.45 103.664 193.336 103.157L193.002 101.669C192.889 101.163 192.386 100.844 191.88 100.958Z" fill="white"/>
<path opacity="0.5" d="M185.476 101.541L184.987 101.652C184.483 101.766 184.166 102.267 184.28 102.771L184.615 104.252C184.729 104.756 185.23 105.072 185.734 104.958L186.224 104.848C186.728 104.734 187.044 104.233 186.93 103.729L186.595 102.248C186.481 101.743 185.98 101.427 185.476 101.541Z" fill="white"/>
<path opacity="0.5" d="M180.048 102.748L179.558 102.859C179.054 102.973 178.738 103.474 178.852 103.978L179.186 105.459C179.3 105.963 179.801 106.279 180.305 106.166L180.795 106.055C181.299 105.941 181.615 105.44 181.501 104.936L181.166 103.455C181.053 102.951 180.552 102.635 180.048 102.748Z" fill="white"/>
<path opacity="0.5" d="M174.636 103.992L174.147 104.103C173.643 104.217 173.326 104.718 173.44 105.222L173.775 106.703C173.889 107.207 174.39 107.523 174.894 107.409L175.384 107.299C175.888 107.185 176.204 106.684 176.09 106.18L175.755 104.698C175.641 104.194 175.14 103.878 174.636 103.992Z" fill="white"/>
<path opacity="0.5" d="M169.206 105.237L168.716 105.347C168.212 105.461 167.896 105.962 168.009 106.466L168.344 107.947C168.458 108.452 168.959 108.768 169.463 108.654L169.952 108.544C170.456 108.43 170.772 107.929 170.659 107.425L170.324 105.944C170.21 105.439 169.71 105.123 169.206 105.237Z" fill="white"/>
<path opacity="0.5" d="M163.777 106.455L163.287 106.566C162.783 106.68 162.467 107.181 162.58 107.685L162.915 109.166C163.029 109.67 163.53 109.986 164.034 109.873L164.523 109.762C165.027 109.648 165.343 109.148 165.23 108.644L164.895 107.162C164.781 106.658 164.281 106.342 163.777 106.455Z" fill="white"/>
<path opacity="0.5" d="M158.368 107.666L157.879 107.777C157.375 107.891 157.059 108.392 157.173 108.896L157.507 110.377C157.621 110.881 158.122 111.198 158.626 111.084L159.116 110.973C159.62 110.859 159.936 110.358 159.822 109.854L159.487 108.373C159.373 107.869 158.872 107.552 158.368 107.666Z" fill="white"/>
<path opacity="0.5" d="M152.951 108.88L152.461 108.99C151.957 109.104 151.641 109.605 151.755 110.109L152.09 111.59C152.204 112.095 152.704 112.411 153.208 112.297L153.698 112.186C154.202 112.073 154.518 111.572 154.404 111.068L154.07 109.586C153.956 109.082 153.455 108.766 152.951 108.88Z" fill="white"/>
</g>
<path d="M114.117 89.2806L106.185 91.1383L112.788 113.16L143.488 106.149C133.06 108.509 114.117 89.2806 114.117 89.2806Z" fill="#CFD8DC"/>
<path d="M164.099 117.336C162.498 115.996 160.479 115.258 158.391 115.248L136.993 115.153L127.081 117.39L144.044 121.865L164.099 117.336Z" fill="#263238"/>
<path d="M254.246 99.0574L186.27 90.2705C182.508 89.7808 178.688 89.9599 174.988 90.7993L166.147 92.7927L207.315 109.661L254.246 99.0574Z" fill="#263238"/>
<path d="M251.426 100.468L212.102 120.903C209.883 122.048 207.527 122.905 205.091 123.452L199.22 124.808L211.058 109.607L251.426 100.468Z" fill="#263238"/>
<path d="M139.759 122.842L150.838 123.967L304.296 89.2806C305.295 89.0592 306.188 88.4999 306.823 87.697C307.457 86.8942 307.796 85.897 307.781 84.8736L139.759 122.842Z" fill="#263238"/>
</svg>
