<?xml version="1.0" encoding="UTF-8" standalone="no"?><!DOCTYPE svg PUBLIC "-//W3C//DTD SVG 1.1//EN" "http://www.w3.org/Graphics/SVG/1.1/DTD/svg11.dtd"><svg width="100%" height="100%" viewBox="0 0 3616 666" version="1.1" xmlns="http://www.w3.org/2000/svg" xmlns:xlink="http://www.w3.org/1999/xlink" xml:space="preserve" xmlns:serif="http://www.serif.com/" style="fill-rule:evenodd;clip-rule:evenodd;stroke-miterlimit:10;"><path id="path5037" d="M3247.94,7.123l-0,328.436l-8.381,6.922l-4.016,3.634l-3.841,3.634l-3.666,3.634l-3.667,3.807l-3.491,3.807l-3.492,3.807l-0,-357.681l-367.174,0l-0,299.019l-30.38,-0l0,-299.019l-367.174,0l0,299.538l-30.38,0l0,-299.538l-367.173,0l-0,341.414l-93.758,309.574l82.409,0l41.379,-137.05l11.872,0l68.442,137.05l99.519,0l-66.346,-137.05l150.501,0l-41.728,137.05l89.916,0l41.205,-136.704l19.904,0l-0,-0.346l200.435,-0l-39.808,136.704l90.79,-0l38.586,-136.704l40.855,-0l1.047,136.704l76.123,-0l87.473,-136.704l57.267,-0l-29.682,136.704l89.393,-0l29.158,-136.704l51.68,-0l-0.349,7.787l0.185,7.96l0.349,7.613l0.697,7.614l0.524,3.634l0.523,3.634l0.698,3.634l0.698,3.634l0.872,3.634l0.872,3.461l1.047,3.461l1.047,3.461l1.223,3.46l1.223,3.288l1.396,3.288l1.398,3.115l1.572,3.288l1.572,3.114l1.747,2.942l1.746,3.115l1.921,2.942l2.096,2.768l2.095,2.942l2.269,2.596l2.27,2.768l2.27,2.596l2.619,2.596l2.619,2.422l6.635,5.538l3.491,2.595l3.667,2.423l3.666,2.423l3.667,2.249l3.841,1.903l4.016,2.076l3.841,1.73l4.016,1.73l4.015,1.558l4.19,1.558l4.191,1.385l4.19,1.211l4.19,1.211l4.191,1.039l8.38,1.902l8.555,1.386l8.381,1.211l8.38,1.038l8.206,0.692l8.032,0.347l7.857,0.347l7.507,-0l10.127,-0.164l10.126,-0.165l10.302,-0.519l10.3,-0.519l20.603,-1.732l10.301,-1.039l10.301,-1.211l10.476,-1.385l10.476,-1.558l10.475,-1.73l10.476,-1.731l10.476,-1.902l10.475,-2.077l10.476,-2.076l10.65,-2.423l31.078,-124.072l101.964,0l0,-513.938l-367.174,0l-0.009,-0.016Zm-1158.79,501.133l0.524,-1.902l1.223,1.902l-1.747,0Zm319.859,-184.118l-5.238,17.478l-48.886,160.93l-1.921,5.71l-160.628,0l-12.396,-26.302l173.024,-175.293l-111.218,0l-135.311,144.491l43.823,-144.491l-82.059,0l-0,-286.559l340.81,-0l-0,304.036l0,0Zm94.805,136.012l-2.619,0.164l-2.444,0.165l-2.619,0.164l-9.602,-0l-2.969,0.164l-2.793,-0l-21.825,-0.164l10.127,-37.031l4.714,-18.343l11.523,-43.088l7.508,0l3.666,-0.164l20.428,0l10.301,0.164l9.428,0.347l4.191,0.164l4.015,0.347l3.842,0.52l3.491,0.519l3.143,0.519l2.968,0.866l2.794,0.866l2.444,1.039l2.095,1.038l1.921,1.386l1.747,1.385l1.396,1.73l0.872,1.386l0.698,1.385l0.697,1.558l0.524,1.73l0.349,1.903l0.184,1.902l0,4.326l-0.184,2.423l-0.164,2.422l-1.047,5.538l-1.572,5.883l-1.921,6.576l-1.922,5.538l-2.095,5.364l-2.269,5.018l-2.445,4.672l-1.223,2.077l-1.223,2.076l-1.398,2.077l-3.144,3.805l-1.572,1.73l-1.747,1.73l-1.747,1.558l-1.921,1.385l-1.921,1.558l-2.095,1.211l-2.27,1.386l-2.269,1.211l-2.445,1.038l-2.444,1.039l-2.619,0.866l-2.793,1.038l-2.969,0.692l-6.285,1.383l-3.492,0.52l-3.492,0.519l-3.666,0.347l-3.841,0.346l0,0.027Zm248.275,48.106l35.792,-126.321l1.398,126.321l-37.19,0Zm54.474,-202.114l-85.203,-0l-58.664,202.114l-90.44,0l8.38,-3.46l4.016,-1.73l4.016,-1.903l3.841,-1.902l3.666,-2.25l3.667,-2.077l3.492,-2.249l3.492,-2.423l3.317,-2.422l3.143,-2.423l3.143,-2.769l2.968,-2.595l2.793,-2.942l2.794,-2.769l2.619,-3.115l2.618,-2.941l2.445,-3.288l2.27,-3.115l2.269,-3.461l2.095,-3.461l1.922,-3.46l1.921,-3.634l1.746,-3.807l1.747,-3.807l1.572,-3.807l1.396,-3.98l1.397,-4.153l1.047,-4.153l1.223,-4.153l0.873,-4.499l0.872,-4.326l1.223,-6.922l1.047,-6.576l0.698,-6.229l0.523,-5.884l0.185,-5.883l-0.185,-5.365l-0.164,-5.364l-0.698,-5.018l-0.698,-4.672l-1.223,-4.673l-1.223,-4.326l-1.747,-4.153l-1.921,-3.98l-2.095,-3.98l-2.444,-3.634l-2.794,-3.46l-2.27,-2.423l-2.269,-2.423l-2.445,-2.076l-2.619,-1.903l-2.793,-1.902l-2.794,-1.731l-2.968,-1.557l-2.968,-1.386l-3.143,-1.385l-3.142,-1.039l-6.635,-2.077l-3.492,-0.866l-3.492,-0.692l-3.492,-0.691l-3.666,-0.52l-7.508,-1.038l-7.508,-0.519l-7.682,-0.52l-7.857,-0.164l-98.995,0l0,-286.04l340.81,0l0,286.04l-0.009,-0.009Zm207.07,202.114l-51.156,0l77.52,-121.13l-26.364,121.13Zm190.483,-196.404l-0.184,70.083l-4.365,6.056l-4.016,6.23l-4.016,6.229l-3.666,6.23l-3.492,6.23l-3.492,6.402l-2.968,6.23l-2.968,6.229l-2.794,6.057l-2.444,6.229l-2.444,6.057l-2.095,5.883l-1.922,5.884l-1.746,5.71l-1.572,5.538l-1.398,5.537l-0.872,3.634l-0.873,3.807l-0.872,3.634l-0.698,3.807l-0.698,3.633l-0.523,3.634l-0.523,3.634l-0.349,3.807l-50.109,0l42.776,-201.595l-144.216,-0.164l-129.026,201.768l-9.428,0l-0,-488.154l340.985,-0l-0,291.75l0.008,-0.009Zm196.595,278.946l-7.159,1.211l-7.333,1.038l-7.333,1.039l-7.158,0.866l-7.159,0.692l-7.158,0.519l-6.984,0.347l-11.523,-0l-4.54,-0.164l-4.364,-0.347l-4.365,-0.52l-4.191,-0.691l-4.015,-0.692l-4.016,-0.866l-3.841,-1.039l-3.667,-1.211l-3.666,-1.21l-3.492,-1.558l-3.317,-1.558l-3.318,-1.903l-3.142,-1.902l-2.968,-2.077l-2.794,-2.076l-2.793,-2.423l-2.445,-2.596l-2.444,-2.595l-2.27,-2.942l-2.095,-2.942l-1.921,-3.288l-1.747,-3.287l-1.746,-3.461l-1.398,-3.634l-1.223,-3.98l-1.047,-3.98l-1.047,-4.153l-0.698,-4.326l-0.523,-4.499l-0.349,-4.672l-0.185,-4.846l158.882,0l-17.459,69.737l0.011,-0.011Zm201.483,-82.542l-85.901,0l14.142,-56.412l-172.151,0l-14.142,56.412l-83.282,0l-0,-11.594l1.047,-4.845l0.872,-4.845l1.047,-5.191l1.046,-5.192l1.573,-5.71l1.572,-5.71l1.746,-5.711l1.921,-5.537l2.095,-5.538l2.27,-5.537l2.445,-5.364l2.444,-5.365l2.794,-5.364l2.793,-5.018l2.968,-5.192l6.635,-9.69l3.317,-4.672l3.667,-4.499l3.841,-4.326l4.015,-4.154l4.016,-3.806l4.365,-3.807l4.365,-3.634l4.539,-3.288l4.889,-3.115l4.889,-2.769l5.063,-2.595l5.238,-2.423l5.412,-2.076l5.587,-1.73l5.762,-1.386l5.936,-1.211l6.111,-0.866l6.285,-0.519l6.46,-0.164l5.064,0.164l5.063,0.347l5.063,0.691l4.889,1.039l2.444,0.692l4.54,1.383l2.095,1.038l2.095,0.867l2.095,1.211l3.842,2.421l3.494,3.116l1.572,1.558l1.572,1.902l1.398,1.731l1.223,2.076l1.047,2.25l1.046,2.249l0.873,2.423l0.697,2.595l0.524,2.596l0.523,2.942l0.185,2.942l-0,6.402l-0.349,3.461l102.662,-0l1.572,-7.095l1.398,-8.133l0.698,-4.326l0.698,-9.344l-0,-4.845l-0.165,-5.019l-0.523,-5.191l-0.523,-2.423l-0.349,-2.595l-0.698,-2.596l-0.698,-2.595l-0.872,-2.769l-0.873,-2.596l-1.046,-2.595l-2.447,-5.192l-1.572,-2.595l-1.572,-2.596l-1.747,-2.596l-2.095,-2.768l-4.539,-5.192l-2.445,-2.422l-2.619,-2.423l-2.793,-2.249l-2.794,-2.077l-2.968,-2.076l-3.143,-2.077l-3.142,-1.73l-3.317,-1.73l-3.492,-1.731l-3.492,-1.557l-3.667,-1.558l-3.841,-1.386l-3.841,-1.385l-3.841,-1.211l-4.19,-1.038l-4.016,-1.039l-4.365,-1.038l-8.73,-1.733l-4.539,-0.691l-4.714,-0.52l-9.603,-1.038l-9.777,-0.866l-10.301,-0.347l-10.476,-0.164l-7.857,0.164l-8.206,0.164l-8.555,0.519l-8.904,0.692l-9.254,1.039l-9.428,1.21l-9.603,1.558l-9.777,2.077l-4.889,1.038l-5.063,1.211l-4.889,1.386l-5.063,1.385l-5.063,1.558l-5.064,1.73l-5.063,1.73l-4.889,1.903l-5.063,2.076l-5.063,2.25l-4.889,2.249l-5.063,2.423l-4.889,2.596l-9.777,5.537l-4.889,3.115l0,-306.286l341.334,-0l0,488.154l-0.023,0.016Z" style="fill:#003087;fill-rule:nonzero;stroke:#fff;stroke-opacity:0;stroke-width:0.17px;"/><path d="M165.184,308.009l-165.184,351.123l88.327,-0l28.646,-68.43l126.424,-0l14.522,68.43l83.499,-0l-81.099,-351.123l-95.135,-0Zm35.132,83.528l0.799,-0l25.847,121.771l-77.608,0l50.962,-121.771Z" style="fill:#030404;fill-rule:nonzero;"/><path d="M394.081,308.009l-12.26,81.675l246.781,-0l12.27,-81.675l-246.791,-0Zm-20.209,134.714l-12.25,81.694l217.169,0l12.26,-81.694l-217.179,-0Zm-20.199,134.704l-12.251,81.705l246.781,-0l12.27,-81.705l-246.8,0Z" style="fill:#030404;fill-rule:nonzero;"/><path d="M872.424,569.101c-23.545,10.865 -58.696,12.65 -75.921,12.65c-55.555,-0 -92.345,-37.902 -90.482,-94.238c1.989,-59.486 46.953,-102.128 108.019,-102.128c28.88,0 54.278,9.539 77.081,28.802l16.893,-84.074c-34.878,-20.541 -64.139,-28.958 -100.685,-28.958c-101.104,-0 -184.534,84.23 -188.046,190.055c-3.413,102.645 63.31,174.781 162.424,174.781c17.225,0 54.502,-1.794 78.018,-12.65l12.699,-84.24Z" style="fill:#030404;fill-rule:nonzero;"/><path d="M1140.27,495.836c12.777,-59.359 -9.334,-105.6 -54.209,-114.759c-49.304,-10.114 -94.15,27.661 -107.678,90.395c-12.787,59.379 9.314,105.6 54.18,114.788c49.362,10.066 94.189,-27.68 107.707,-90.424m-57.965,-193.839c93.906,6.681 151.998,83.118 141.513,185.305c-10.836,105.317 -95.818,183.715 -191.655,176.878c-93.925,-6.671 -152.017,-83.119 -141.522,-185.295c10.826,-105.308 95.808,-183.716 191.664,-176.888" style="fill:#030404;fill-rule:nonzero;"/><path d="M1613.75,659.13l-6.438,-351.143l-79.168,0l-101.348,198.073l-40.915,-198.073l-79.081,0l-109.092,351.143l87.264,-0l59.369,-205.583l37.307,205.583l44.475,-0l102.899,-205.485l-1.229,205.485l85.957,-0Z" style="fill:#030404;fill-rule:nonzero;"/></svg>
